<ttFont>
          <CharString index="0">
            -12 callgsubr
            -86 -65 -16 -33 -49 hvcurveto
            -66 -46 -37 -74 -86 vvcurveto
            -64 20 -51 37 -32 vhcurveto
            -32 36 57 -15 83 hhcurveto
            97 72 21 43 51 hvcurveto
            51 44 29 70 83 vvcurveto
            67 -19 50 -38 29 vhcurveto
            28 -36 -58 14 -79 hhcurveto
            -68 -381 rmoveto
            -25 -10 23 42 -78 callsubr
            hvcurveto
            return
          </CharString>
          <CharString index="1">
            306 119 rmoveto
            -14 -12 -23 -21 -24 hhcurveto
            -23 -7 16 20 15 8 39 5 22 hvcurveto
            50 234 rlineto
            -203 hlineto
            -42 -195 rlineto
            -9 -44 -15 -56 -33 vvcurveto
            -65 48 -45 80 60 65 31 41 35 vhcurveto
            6 hlineto
            return
          </CharString>
          <CharString index="2">
            -53 -29 -41 -42 -39 22 -31 49 53 28 40 43 39 -22 31 -48 hvcurveto
            212 hmoveto
            -53 -29 -41 -42 -39 22 -31 49 53 29 40 43 39 -22 31 -49 hvcurveto
            endchar
          </CharString>
          <CharString index="3">
            499 201 rmoveto
            21 29 11 47 36 vvcurveto
            88 -69 40 -132 -245 -74 -128 -132 -145 104 -44 133 73 92 13 34 52 vhcurveto
            26 107 rlineto
            -164 hlineto
            return
          </CharString>
          <CharString index="4">
            rmoveto
            179 146 rlineto
            -172 hlineto
            -93 -46 callgsubr
          </CharString>
          <CharString index="5">
            rmoveto
            -132 -92 -83 92 rlineto
            -77 hlineto
            83 -146 rlineto
            149 hlineto
            146 146 rlineto
            endchar
          </CharString>
          <CharString index="6">
            rmoveto
            53 -41 25 -52 -59 -53 -32 -60 -54 41 -25 53 57 54 33 60 vhcurveto
            return
          </CharString>
          <CharString index="7">
            -97 callgsubr
            endchar
          </CharString>
          <CharString index="8">
            485 -58 callsubr
            -237 hlineto
            -295 -56 callsubr
            97 hlineto
            71 159 rlineto
            185 hlineto
            14 -159 51 callsubr
            -278 504 rmoveto
            23 -272 rlineto
            -145 hlineto
            return
          </CharString>
          <CharString index="9">
            vvcurveto
            -50 27 -24 59 50 58 17 33 40 vhcurveto
            -23 42 rlineto
            -20 -24 -16 -6 -12 hhcurveto
            -17 -14 11 27 return
          </CharString>
          <CharString index="10">
            -276 -87 rmoveto
            20 15 -19 -15 10 -34 callgsubr
            -11 -25 -27 -26 hhcurveto
            -22 -7 21 26 45 22 165 63 hvcurveto
            return
          </CharString>
          <CharString index="11">
            18 -64 rlineto
            161 -2 callgsubr
            4 20 4 33 25 vvcurveto
            87 -48 56 -170 -88 -69 -15 -33 -67 vhcurveto
            214 -253 rmoveto
            return
          </CharString>
          <CharString index="12">
            -40 -90 33 -43 hhcurveto
            -57 -39 -35 -68 -41 hvcurveto
            33 -29 rlineto
            14 12 29 21 24 hhcurveto
            return
          </CharString>
          <CharString index="13">
            8 -8 74 -74 197 262 194 -73 73 -27 callsubr
            65 135 -135 198 81 214 -161 161 hintmask 1001110100000000
            -92 callsubr
            hintmask 0101101010000000
            -90 callsubr
            vhcurveto
            hintmask 1010110100000000
            4 callgsubr
            return
          </CharString>
          <CharString index="14">
            -92 -8 66 -66 135 177 137 -67 67 -27 callsubr
            33 105 -105 194 12 206 -135 135 hintmask 1001110100000000
            -91 callsubr
            hintmask 0101101010000000
            -98 callgsubr
            vhcurveto
            hintmask 1010110100000000
            -20 callgsubr
            return
          </CharString>
          <CharString index="15">
            560 451 rmoveto
            37 139 rlineto
            29 -34 -70 26 -93 hhcurveto
            -141 -194 -57 -171 -114 86 -28 64 -19 hvcurveto
            67 -20 62 -17 -59 vvcurveto
            -42 -29 -52 -54 -48 -13 42 32 vhcurveto
            return
          </CharString>
          <CharString index="16">
            437 304 rmoveto
            23 101 rlineto
            21 -41 -70 15 -73 hhcurveto
            -118 -125 -38 -117 -83 62 -23 34 -9 hvcurveto
            49 -12 61 -16 -38 vvcurveto
            -19 -15 -28 -39 -34 -13 19 31 vhcurveto
            return
          </CharString>
          <CharString index="17">
            12 2 25 1 12 vhcurveto
            -176 hlineto
            -34 -137 rlineto
            0 45 -60 190 189 141 60 167 118 -70 32 -68 19 vhcurveto
            -79 22 -78 2 68 vvcurveto
            47 37 45 47 43 7 -39 -41 return
          </CharString>
          <CharString index="18">
            192 vstem
            623 484 rmoveto
            128 -102 23 -123 vhcurveto
            -263 -80 callsubr
            -26 callgsubr
            59 277 rlineto
            11 hlineto
            88 -277 rlineto
            223 hlineto
            -116 299 rlineto
            102 35 40 72 78 vvcurveto
            -335 -143 rmoveto
            50 226 rlineto
            45 hlineto
            40 8 -29 -34 -57 -26 -106 -70 hvcurveto
            return
          </CharString>
          <CharString index="19">
            363 365 rmoveto
            -6 hlineto
            64 -20 -62 12 -44 hhcurveto
            -207 -15 -251 -51 -80 35 -59 93 84 45 47 25 16 hvcurveto
            7 hlineto
            -12 -65 rlineto
            -78 -14 -26 -26 -80 hhcurveto
            -32 -49 0 6 -42 hvcurveto
            -19 -72 rlineto
            return
          </CharString>
          <CharString index="20">
            60 -8 75 329 249 -69 69 -27 callsubr
            34 223 0 196 hintmask 10110100
            604 243 rmoveto
            -185 hlineto
            -132 -29 -41 -44 -41 hhcurveto
            -49 -2 61 27 138 52 283 103 38 3 -41 -21 hvcurveto
            hintmask 11011000
            -30 -5 -60 -3 -28 vhcurveto
            180 hlineto
            36 186 rlineto
            26 -51 -73 37 -118 hhcurveto
            -249 -136 -177 -216 -187 101 -73 178 113 71 29 33 67 hvcurveto
            return
          </CharString>
          <CharString index="21">
            18 -64 rlineto
            162 hlineto
            92 -31 callsubr
            return
          </CharString>
          <CharString index="22">
            hmoveto
            518 hlineto
            14 76 rlineto
            -263 hlineto
            326 474 9 85 rlineto
            -494 hlineto
            -15 -76 rlineto
            252 hlineto
            -329 -468 rlineto
            return
          </CharString>
          <CharString index="23">
            99 hmoveto
            209 hlineto
            101 218 37 -218 rlineto
            209 hlineto
            199 -31 callsubr
            -106 45 callgsubr
            -34 294 rlineto
            -191 45 callgsubr
            -35 294 rlineto
            -212 hlineto
            return
          </CharString>
          <CharString index="24">
            644 -58 callsubr
            -108 hlineto
            -150 -251 -68 251 rlineto
            -240 hlineto
            98 -378 -55 -257 rlineto
            217 hlineto
            51 240 rlineto
            return
          </CharString>
          <CharString index="25">
            -33 -6 -33 -22 -28 hhcurveto
            -23 -19 16 32 40 30 44 77 hvcurveto
            18 hlineto
            return
          </CharString>
          <CharString index="26">
            rmoveto
            93 hlineto
            -105 146 rlineto
            -173 hlineto
            endchar
          </CharString>
          <CharString index="27">
            hlineto
            -135 -56 callsubr
            return
          </CharString>
          <CharString index="28">
            -32 -5 -57 -4 -29 vhcurveto
            169 hlineto
            38 194 rlineto
            28 -65 -69 27 -99 hhcurveto
            -257 -127 -179 -208 -193 110 -73 116 76 43 32 40 35 hvcurveto
            4 hlineto
            return
          </CharString>
          <CharString index="29">
            70 28 178 73 24 5 -20 -37 -84 -27 -172 -68 return
          </CharString>
          <CharString index="30">
            rmoveto
            199 146 rlineto
            -172 hlineto
            -113 -146 rlineto
            319 hmoveto
            199 146 rlineto
            -172 hlineto
            -113 -46 callgsubr
          </CharString>
          <CharString index="31">
            hstem
            442 209 vstem
            287 hmoveto
            21 callgsubr
            -135 -635 rlineto
            return
          </CharString>
          <CharString index="32">
            -112 -87 rmoveto
            20 14 -18 -15 10 hvcurveto
            -37 -175 rlineto
            -11 -8 -28 -30 -26 hhcurveto
            -23 -7 21 26 43 22 159 63 hvcurveto
            return
          </CharString>
          <CharString index="33">
            -75 -17 -43 -30 -28 hhcurveto
            -28 -4 37 29 80 35 167 75 21 9 -17 -42 hvcurveto
            return
          </CharString>
          <CharString index="34">
            -32 3 hvcurveto
            41 16 27 17 37 vvcurveto
            48 -56 13 -48 -74 -46 -29 0 vhcurveto
            -12 -56 rlineto
            85 hlineto
            return
          </CharString>
          <CharString index="35">
            rmoveto
            44 -28 21 -38 -43 -37 -27 -46 vhcurveto
            return
          </CharString>
          <CharString index="36">
            26 11 -29 -82 3 hvcurveto
            109 hlineto
            44 206 rlineto
            21 -28 -38 2 -10 hhcurveto
            -78 -46 -38 -48 -30 hvcurveto
            -7 hlineto
            return
          </CharString>
          <CharString index="37">
            rmoveto
            43 hlineto
            -36 -168 rlineto
            103 hlineto
            55 255 rlineto
            -77 hlineto
            -17 -21 -28 -16 -33 -4 rrcurveto
            return
          </CharString>
          <CharString index="38">
            rmoveto
            356 hlineto
            18 77 rlineto
            -355 hlineto
            endchar
          </CharString>
          <CharString index="39">
            rmoveto
            107 497 rlineto
            48 hlineto
            41 15 -25 -41 -63 -36 -368 -132 hvcurveto
            return
          </CharString>
          <CharString index="40">
            21 -48 callgsubr
            return
          </CharString>
          <CharString index="41">
            626 -58 callsubr
            -535 hlineto
            -18 -76 rlineto
            159 hlineto
            -119 -559 rlineto
            -26 callgsubr
            119 559 rlineto
            161 hlineto
            return
          </CharString>
          <CharString index="42">
            12 34 callgsubr
            10 -69 callgsubr
            return
          </CharString>
          <CharString index="43">
            -21 -2 -16 -1 -22 vhcurveto
            136 hlineto
            28 128 return
          </CharString>
          <CharString index="44">
            -217 -80 callsubr
            return
          </CharString>
          <CharString index="45">
            -54 -16 -43 -32 -23 hhcurveto
            -31 -3 38 25 21 2 28 5 29 hvcurveto
            281 hlineto
            21 29 11 47 36 vvcurveto
            88 -69 40 -132 -71 -56 -11 -18 -45 vhcurveto
            19 -36 -54 10 -78 hhcurveto
            -84 -60 -12 -31 -55 hvcurveto
            560 -78 -94 callgsubr
            -356 -180 rmoveto
            return
          </CharString>
          <CharString index="46">
            -20 hstem
            -77 callgsubr
            return
          </CharString>
          <CharString index="47">
            204 hlineto
            return
          </CharString>
          <CharString index="48">
            rlineto
            75 hlineto
            15 5 13 4 8 hhcurveto
            12 10 -9 -17 -37 -32 -10 -19 -18 -28 10 9 -6 hvcurveto
            -23 -30 rlineto
            -17 17 21 -13 43 hhcurveto
            69 79 28 69 hvcurveto
            return
          </CharString>
          <CharString index="49">
            635 rmoveto
            return
          </CharString>
          <CharString index="50">
            67 rlineto
            -84 39 callsubr
            29 12 40 hhcurveto
            return
          </CharString>
          <CharString index="51">
            -635 rlineto
            return
          </CharString>
          <CharString index="52">
            rmoveto
            -33 callsubr
            return
          </CharString>
          <CharString index="53">
            -76 0 77 214 75 193 76 return
          </CharString>
          <CharString index="54">
            -27 hhcurveto
            -22 -7 21 26 45 22 165 63 hvcurveto
            return
          </CharString>
          <CharString index="55">
            -64 callsubr
            rlineto
            return
          </CharString>
          <CharString index="56">
            -53 -16 4 26 13 5 26 6 30 hvcurveto
            return
          </CharString>
          <CharString index="57">
            94 -65 -21 343 98 return
          </CharString>
          <CharString index="58">
            6 -8 92 -63 -41 callsubr
            return
          </CharString>
          <CharString index="59">
            -8 callgsubr
            hintmask 11101100
            53 -41 25 -52 -59 -53 -32 -60 vhcurveto
            hintmask 11110100
            -54 41 -25 53 57 54 33 60 vhcurveto
            endchar
          </CharString>
          <CharString index="60">
            -10 hmoveto
            -60 callsubr
            64 299 rlineto
            20 16 16 4 13 hhcurveto
            return
          </CharString>
          <CharString index="61">
            33 11 15 13 14 hhcurveto
            14 2 -15 -14 -22 -12 return
          </CharString>
          <CharString index="62">
            rlineto
            -6 -29 -2 -25 -16 vvcurveto
            return
          </CharString>
          <CharString index="63">
            -304 -119 30 callsubr
            -3 204 vstemhm
            201 85 rmoveto
            60 -41 29 -53 -57 -53 -38 -64 vhcurveto
            hintmask 11100000
            38 -28 18 -24 -24 vvcurveto
            -29 -28 callsubr
            88 34 105 91 100 vvcurveto
            endchar
          </CharString>
          <CharString index="64">
            61 -51 38 -69 -101 -69 -75 0 vhcurveto
            return
          </CharString>
          <CharString index="65">
            -2 33 80 -3 40 hhcurveto
            215 80 90 119 25 hvcurveto
            return
          </CharString>
          <CharString index="66">
            -21 -11 callgsubr
            return
          </CharString>
          <CharString index="67">
            39 callsubr
            26 12 52 hhcurveto
            20 38 -2 -4 29 hvcurveto
            16 80 rlineto
            12 -51 -47 5 -41 hhcurveto
            return
          </CharString>
          <CharString index="68">
            21 -41 callsubr
            return
          </CharString>
          <CharString index="69">
            38 9 20 32 40 hhcurveto
            36 8 -25 -22 -20 -6 -30 -2 -13 hvcurveto
            -156 -159 -13 -138 -78 54 -43 65 59 84 13 61 75 hvcurveto
            -55 41 75 -19 89 hhcurveto
            73 92 13 34 52 hvcurveto
            return
          </CharString>
          <CharString index="70">
            215 rmoveto
            175 215 rlineto
            -120 hlineto
            -196 -215 118 -215 rlineto
            120 hlineto
            return
          </CharString>
          <CharString index="71">
            28 9 13 36 20 hhcurveto
            11 4 -14 -21 -78 -73 -42 -84 -21 hvcurveto
            return
          </CharString>
          <CharString index="72">
            rmoveto
            115 48 78 85 81 -43 21 -66 -47 -33 -11 -15 -22 hvcurveto
            -22 -17 -11 -25 -32 vvcurveto
            -43 18 -26 54 24 24 6 15 16 vhcurveto
            4 hlineto
            -55 -10 -26 -23 -12 hhcurveto
            -10 -2 return
          </CharString>
          <CharString index="73">
            -90 -19 -25 -9 -40 hhcurveto
            return
          </CharString>
          <CharString index="74">
            -205 hlineto
            return
          </CharString>
          <CharString index="75">
            -41 -15 -16 -25 -31 vvcurveto
            -46 37 -26 72 vhcurveto
            21 163 rmoveto
            return
          </CharString>
          <CharString index="76">
            430 rlineto
            return
          </CharString>
          <CharString index="77">
            hhcurveto
            181 16 255 55 76 -29 59 -93 return
          </CharString>
          <CharString index="78">
            9 callgsubr
            140 180 return
          </CharString>
          <CharString index="79">
            -25 -28 -48 -37 vhcurveto
            28 -42 rlineto
            return
          </CharString>
          <CharString index="80">
            1 callsubr
            hstemhm
            return
          </CharString>
          <CharString index="81">
            -21 callsubr
            endchar
          </CharString>
          <CharString index="82">
            41 callsubr
            403 -20 return
          </CharString>
          <CharString index="83">
            12 11 6 5 10 hhcurveto
            20 4 -18 -18 -25 -10 -40 -26 -14 -2 10 27 hvcurveto
            return
          </CharString>
          <CharString index="84">
            63 -8 75 -46 -21 223 67 106 249 -69 69 return
          </CharString>
          <CharString index="85">
            hstemhm
            hintmask 11010000
            -56 callgsubr
            77 13 callgsubr
            127 -73 callgsubr
            77 13 callgsubr
            return
          </CharString>
          <CharString index="86">
            rmoveto
            58 -41 27 -54 -57 -51 -3 callsubr
            return
          </CharString>
          <CharString index="87">
            -4 -8 68 313 68 return
          </CharString>
          <CharString index="88">
            635 -20 return
          </CharString>
          <CharString index="89">
            hlineto
            -21 -91 rlineto
            147 hlineto
            -36 -164 rlineto
            106 hlineto
            34 164 rlineto
            152 hlineto
            20 91 rlineto
            -153 hlineto
            hintmask 10100000
            33 158 rlineto
            return
          </CharString>
          <CharString index="90">
            1 -14 -16 0 -16 hhcurveto
            -212 -96 -116 -139 -141 97 -53 150 67 63 10 22 56 hvcurveto
            29 141 rlineto
            -143 hlineto
            return
          </CharString>
          <CharString index="91">
            vstem
            -65 callgsubr
            return
          </CharString>
          <CharString index="92">
            47 callgsubr
            144 193 return
          </CharString>
          <CharString index="93">
            7 21 29 callsubr
            return
          </CharString>
          <CharString index="94">
            152 60 153 return
          </CharString>
          <CharString index="95">
            rlineto
            9 44 17 return
          </CharString>
          <CharString index="96">
            rmoveto
            90 58 35 47 33 -26 16 -73 callsubr
            return
          </CharString>
          <CharString index="97">
            rmoveto
            90 58 35 47 34 -26 15 -73 callsubr
            return
          </CharString>
          <CharString index="98">
            -79 callgsubr
            42 201 102 -201 rlineto
            224 hlineto
            -149 267 199 163 rlineto
            -132 hlineto
            -233 -182 rlineto
            return
          </CharString>
          <CharString index="99">
            -147 -21 return
          </CharString>
          <CharString index="100">
            12 4 15 -1 vvcurveto
            -84 hlineto
            -13 -61 rlineto
            -26 31 32 -8 45 hhcurveto
            return
          </CharString>
          <CharString index="101">
            -67 callsubr
            hstem
            return
          </CharString>
          <CharString index="102">
            22 hvcurveto
            22 18 11 24 33 vvcurveto
            43 -18 26 -54 -24 -24 -6 -15 -16 vhcurveto
            -4 hlineto
            55 10 26 23 12 hhcurveto
            10 2 -14 return
          </CharString>
          <CharString index="103">
            rmoveto
            -21 -16 18 16 -9 hvcurveto
            39 179 rlineto
            13 10 26 26 26 -35 callgsubr
          </CharString>
          <CharString index="104">
            -34 -62 -58 41 -27 50 58 54 35 61 vhcurveto
            return
          </CharString>
          <CharString index="105">
            -149 hlineto
            return
          </CharString>
          <CharString index="106">
            205 vstem
            -77 callgsubr
            return
          </CharString>
          <CharString index="107">
            rlineto
            76 hlineto
            return
          </CharString>
          <CharString index="108">
            194 -20 return
          </CharString>
          <CharString index="109">
            83 41 callgsubr
            118 83 -61 61 return
          </CharString>
          <CharString index="110">
            -8 callsubr
            598 -20 return
          </CharString>
          <CharString index="111">
            -8 34 callsubr
            return
          </CharString>
          <CharString index="112">
            154 55 46 return
          </CharString>
          <CharString index="113">
            39 8 callsubr
            vhcurveto
            15 69 rlineto
            -53 -17 4 26 13 6 26 6 30 hvcurveto
            41 9 callsubr
            79 hlineto
            return
          </CharString>
          <CharString index="114">
            -70 callsubr
            endchar
          </CharString>
          <CharString index="115">
            65 4 4 19 return
          </CharString>
          <CharString index="116">
            195 rlineto
            return
          </CharString>
          <CharString index="117">
            38 -28 17 -25 -24 vvcurveto
            -28 -28 callsubr
            89 33 105 92 100 vvcurveto
            endchar
          </CharString>
          <CharString index="118">
            77 294 67 -67 201 hstemhm
            60 return
          </CharString>
          <CharString index="119">
            hstemhm
            46 callsubr
            return
          </CharString>
          <CharString index="120">
            38 -38 88 34 133 -116 43 25 48 hstemhm
            return
          </CharString>
          <CharString index="121">
            82 389 rlineto
            -162 hlineto
            return
          </CharString>
          <CharString index="122">
            rmoveto
            -53 -29 -41 -42 -39 22 -31 49 53 28 40 43 39 -22 31 -48 hvcurveto
            212 hmoveto
            return
          </CharString>
          <CharString index="123">
            -38 28 -18 24 24 vvcurveto
            29 25 28 49 37 vhcurveto
            -29 42 rlineto
            -88 -34 -105 -91 -100 vvcurveto
            return
          </CharString>
          <CharString index="124">
            -46 callsubr
            -18 -36 hvcurveto
            -1 -6 -37 0 return
          </CharString>
          <CharString index="125">
            -21 212 229 -118 118 -11 -20 return
          </CharString>
          <CharString index="126">
            -20 hstem
            -65 callgsubr
            return
          </CharString>
          <CharString index="127">
            -15 -2 15 12 16 10 20 22 return
          </CharString>
          <CharString index="128">
            380 50 callgsubr
            49 24 34 37 vvcurveto
            return
          </CharString>
          <CharString index="129">
            rmoveto
            -193 hlineto
            -29 -133 rlineto
            68 hlineto
            return
          </CharString>
          <CharString index="130">
            12 4 15 -2 vvcurveto
            -84 hlineto
            -13 -60 rlineto
            -26 31 32 -8 45 hhcurveto
            return
          </CharString>
          <CharString index="131">
            -25 hhcurveto
            -56 -227 rmoveto
            -11 -5 9 16 18 13 42 28 11 2 return
          </CharString>
          <CharString index="132">
            hlineto
            hintmask 10100000
            -32 -140 rlineto
            96 hlineto
            hintmask 01100000
            30 140 rlineto
            return
          </CharString>
          <CharString index="133">
            177 137 -67 67 hstemhm
            33 105 return
          </CharString>
          <CharString index="134">
            92 -63 -41 callsubr
            hstemhm
            return
          </CharString>
          <CharString index="135">
            110 -46 46 -46 191 return
          </CharString>
          <CharString index="136">
            -21 33 callsubr
            return
          </CharString>
          <CharString index="137">
            -21 314 -20 hstemhm
            return
          </CharString>
          <CharString index="138">
            78 464 rmoveto
            -60 41 -29 54 56 53 38 64 vhcurveto
            return
          </CharString>
          <CharString index="139">
            rlineto
            10 -49 -94 11 -76 hhcurveto
            -193 -102 -68 -109 return
          </CharString>
          <CharString index="140">
            346 84 11 -20 return
          </CharString>
          <CharString index="141">
            70 514 69 return
          </CharString>
          <CharString index="142">
            -67 callsubr
            95 6 callgsubr
            hintmask 11010000
            return
          </CharString>
          <CharString index="143">
            -74 74 -7 -20 164 91 -67 91 -17 -20 hstemhm
            return
          </CharString>
          <CharString index="144">
            rmoveto
            403 hlineto
            20 91 rlineto
            -402 hlineto
            endchar
          </CharString>
          <CharString index="145">
            -8 callsubr
            189 -21 return
          </CharString>
          <CharString index="146">
            hlineto
            19 90 rlineto
            66 14 return
          </CharString>
          <CharString index="147">
            90 553 -20 return
          </CharString>
          <CharString index="148">
            -21 159 73 return
          </CharString>
          <CharString index="149">
            -28 -16 25 34 50 36 21 64 hvcurveto
            18 hlineto
            return
          </CharString>
          <CharString index="150">
            97 -73 89 32 99 -83 83 return
          </CharString>
          <CharString index="151">
            hlineto
            65 306 rlineto
            return
          </CharString>
          <CharString index="152">
            hstemhm
            11 206 return
          </CharString>
          <CharString index="153">
            350 208 return
          </CharString>
          <CharString index="154">
            -21 363 67 return
          </CharString>
          <CharString index="155">
            0 -3 -1 -2 hvcurveto
            78 hlineto
            13 57 rlineto
            return
          </CharString>
          <CharString index="156">
            83 hstemhm
            33 105 -105 194 12 206 return
          </CharString>
          <CharString index="157">
            27 callsubr
            11 206 return
          </CharString>
          <CharString index="158">
            rlineto
            234 hlineto
            return
          </CharString>
        <CharString name=".notdef">
          -352 endchar
        </CharString>
        <CharString name="A">
          -43 callgsubr
          hstem
          -99 callsubr
          endchar
        </CharString>
        <CharString name="AE">
          37 callgsubr
          hstem
          867 -58 callsubr
          -452 hlineto
          -476 -56 callsubr
          94 hlineto
          145 199 rlineto
          174 hlineto
          -42 -199 rlineto
          422 hlineto
          15 77 rlineto
          -204 hlineto
          45 209 rlineto
          172 hlineto
          16 75 rlineto
          -172 hlineto
          43 198 -79 callgsubr
          -619 -287 rmoveto
          192 264 -56 -264 rlineto
          endchar
        </CharString>
        <CharString name="AEacute">
          37 callgsubr
          35 callgsubr
          867 -58 callsubr
          -452 hlineto
          -476 -56 callsubr
          94 hlineto
          145 199 rlineto
          174 hlineto
          -42 -199 rlineto
          422 hlineto
          15 77 rlineto
          -204 hlineto
          45 209 rlineto
          172 hlineto
          16 75 rlineto
          -172 hlineto
          43 198 -79 callgsubr
          -619 -287 rmoveto
          192 264 -56 -264 rlineto
          292 421 -103 callsubr
        </CharString>
        <CharString name="Aacute">
          -43 callgsubr
          224 -20 hstem
          -99 callsubr
          247 461 -103 callsubr
        </CharString>
        <CharString name="Abreve">
          -43 callgsubr
          78 82 79 -20 hstem
          -99 callsubr
          229 461 -104 callgsubr
        </CharString>
        <CharString name="Acircumflex">
          -43 callgsubr
          224 -20 hstem
          -99 callsubr
          107 461 -105 callgsubr
        </CharString>
        <CharString name="Adieresis">
          -43 callgsubr
          67 153 hstem
          187 29 callgsubr
          -99 callsubr
          115 603 rmoveto
          -105 callsubr
        </CharString>
        <CharString name="Agrave">
          -43 callgsubr
          224 -20 hstem
          -99 callsubr
          175 461 -81 callsubr
        </CharString>
        <CharString name="Amacron">
          -43 callgsubr
          115 77 hstem
          -99 callsubr
          55 498 -69 callsubr
        </CharString>
        <CharString name="Aogonek">
          23 -204 66 159 -25 callsubr
          hstem
          305 128 vstem
          485 -58 callsubr
          -237 hlineto
          -295 -56 callsubr
          97 hlineto
          71 159 rlineto
          185 hlineto
          14 -159 rlineto
          96 hlineto
          -52 -22 -59 -40 -68 -98 callsubr
          43 42 34 36 23 hvcurveto
          43 hlineto
          -278 504 rmoveto
          23 -272 rlineto
          -145 hlineto
          endchar
        </CharString>
        <CharString name="Aring">
          -43 callgsubr
          67 54 63 56 hstem
          283 57 68 58 vstem
          -99 callsubr
          312 543 -91 callgsubr
          endchar
        </CharString>
        <CharString name="Aringacute">
          23 21 41 callsubr
          408 55 63 56 162 -20 hstem
          290 58 67 59 vstem
          484 625 rmoveto
          -236 hlineto
          -295 -625 rlineto
          97 hlineto
          72 159 rlineto
          183 hlineto
          14 -159 rlineto
          235 hlineto
          -80 734 rmoveto
          47 -37 33 -47 -53 -47 -39 -54 -48 37 -33 47 52 48 39 55 vhcurveto
          -199 -241 rmoveto
          23 -261 rlineto
          -142 hlineto
          285 599 rmoveto
          134 145 rlineto
          -121 hlineto
          -91 -145 rlineto
          52 -101 rmoveto
          -20 -18 -15 -19 -17 -13 13 16 20 18 14 19 16 14 -11 -17 vhcurveto
          endchar
        </CharString>
        <CharString name="Atilde">
          -43 callgsubr
          95 6 callgsubr
          hintmask 11101000
          -99 callsubr
          425 612 rmoveto
          hintmask 11110000
          -52 callgsubr
          hintmask 11101000
          -95 callsubr
          hintmask 11110000
          -82 callgsubr
        </CharString>
        <CharString name="B">
          43 0 63 236 70 198 68 hstemhm
          376 214 -166 166 -166 189 hintmask 11100100
          613 490 rmoveto
          121 -111 24 -104 vhcurveto
          -263 -80 callsubr
          297 hlineto
          hintmask 11101000
          189 104 86 121 91 -59 30 -29 11 hvcurveto
          hintmask 11100100
          63 32 48 41 78 vvcurveto
          -318 -121 rmoveto
          43 198 rlineto
          30 hlineto
          39 17 -32 -38 -48 -25 -80 -58 hvcurveto
          -112 -306 rmoveto
          49 236 rlineto
          37 hlineto
          hintmask 11110000
          42 19 -30 -46 -56 -28 -104 -79 hvcurveto
          endchar
        </CharString>
        <CharString name="C">
          60 -8 75 329 249 -69 69 hstemhm
          34 223 0 196 hintmask 10101000
          604 243 rmoveto
          -185 hlineto
          -132 -29 -41 -44 -41 hhcurveto
          -49 -2 61 27 138 52 283 103 38 3 -41 -21 hvcurveto
          hintmask 11010000
          -30 -5 -60 -3 -28 vhcurveto
          180 hlineto
          36 186 rlineto
          26 -51 -73 37 -118 hhcurveto
          -249 -136 -177 -216 -187 101 -73 178 113 71 29 33 67 hvcurveto
          endchar
        </CharString>
        <CharString name="CR">
          -388 endchar
        </CharString>
        <CharString name="Cacute">
          -87 callsubr
          -96 639 -103 callsubr
        </CharString>
        <CharString name="Ccaron">
          -87 callsubr
          2 785 -102 callsubr
        </CharString>
        <CharString name="Ccedilla">
          60 44 callgsubr
          186 -74 74 -74 250 153 249 -69 69 hstemhm
          34 223 95 103 hintmask 1000110110000000
          604 243 rmoveto
          -185 hlineto
          hintmask 1010001110000000
          -132 -29 -41 -44 -41 hhcurveto
          -49 -2 61 27 138 52 283 103 38 3 -41 -21 hvcurveto
          hintmask 1010010110000000
          -30 -5 -60 -3 -28 vhcurveto
          180 hlineto
          36 186 rlineto
          26 -51 -73 37 -118 hhcurveto
          -249 -136 -177 -216 -168 81 -76 144 -13 hvcurveto
          -30 -114 -59 callsubr
          hintmask 0101010110000000
          22 callgsubr
          15 61 99 3 66 27 63 31 rlinecurve
          endchar
        </CharString>
        <CharString name="Ccircumflex">
          -87 callsubr
          -246 639 -105 callgsubr
        </CharString>
        <CharString name="Cdotaccent">
          60 -8 75 329 249 -69 69 27 171 hstemhm
          34 223 82 205 hintmask 10111100
          604 243 rmoveto
          -185 hlineto
          -132 -29 -41 -44 -41 hhcurveto
          -49 -2 61 27 138 52 283 103 38 3 -41 -21 hvcurveto
          hintmask 11011100
          -30 -5 -60 -3 -28 vhcurveto
          180 hlineto
          36 186 rlineto
          26 -51 -73 37 -118 hhcurveto
          -249 -136 -177 -216 -187 101 -73 178 113 71 29 33 67 hvcurveto
          -20 711 -96 callgsubr
        </CharString>
        <CharString name="D">
          83 0 70 497 68 -76 callsubr
          231 70 -68 callsubr
          endchar
        </CharString>
        <CharString name="Dcaron">
          83 0 70 497 68 204 -20 -76 callsubr
          231 70 -68 callsubr
          249 769 -102 callsubr
        </CharString>
        <CharString name="Dcroat">
          -66 callgsubr
        </CharString>
        <CharString name="Ddotbelow">
          83 -33 callgsubr
          81 70 497 68 hstem
          129 167 146 209 vstem
          287 hmoveto
          21 callgsubr
          -135 -635 rlineto
          231 70 -68 callsubr
          22 -214 -100 callsubr
        </CharString>
        <CharString name="E">
          -54 callsubr
          hstem
          -101 callgsubr
          endchar
        </CharString>
        <CharString name="Eacute">
          -54 callsubr
          35 callgsubr
          -101 callgsubr
          254 58 -103 callsubr
        </CharString>
        <CharString name="Ebreve">
          -54 callsubr
          58 82 79 -20 hstem
          -101 callgsubr
          211 58 -104 callgsubr
        </CharString>
        <CharString name="Ecaron">
          -54 callsubr
          35 callgsubr
          -101 callgsubr
          346 204 -102 callsubr
        </CharString>
        <CharString name="Ecircumflex">
          -54 callsubr
          35 callgsubr
          -101 callgsubr
          126 58 -105 callgsubr
        </CharString>
        <CharString name="Edieresis">
          -54 callsubr
          47 153 hstem
          172 29 callgsubr
          -101 callgsubr
          119 200 rmoveto
          -105 callsubr
        </CharString>
        <CharString name="Edotaccent">
          -54 callsubr
          37 171 hstem
          260 205 vstem
          -101 callgsubr
          330 130 -96 callgsubr
        </CharString>
        <CharString name="Edotbelow">
          -76 -33 callgsubr
          81 77 214 75 193 76 hstem
          104 167 vstem
          -101 callgsubr
          136 -779 -100 callsubr
        </CharString>
        <CharString name="Egrave">
          -54 callsubr
          35 callgsubr
          -101 callgsubr
          182 58 -81 callsubr
        </CharString>
        <CharString name="Emacron">
          -54 callsubr
          95 77 hstem
          -101 callgsubr
          42 95 -69 callsubr
        </CharString>
        <CharString name="Eng">
          65 -168 90 99 -48 callgsubr
          hstem
          670 -58 callsubr
          -92 hlineto
          -99 -463 -105 463 rlineto
          -239 -80 callsubr
          90 hlineto
          100 464 107 -353 rlineto
          12 -39 10 -46 -28 vvcurveto
          -59 -43 -17 -59 -20 -38 2 5 -28 vhcurveto
          -17 -80 rlineto
          -12 52 47 -5 41 hhcurveto
          133 124 58 159 34 hvcurveto
          endchar
        </CharString>
        <CharString name="Eogonek">
          -76 -204 66 138 77 214 75 193 76 hstem
          94 128 vstem
          0 vmoveto
          205 hlineto
          -52 -22 -59 -40 -68 -98 callsubr
          43 42 34 36 23 hvcurveto
          121 hlineto
          15 77 rlineto
          -204 hlineto
          46 214 rlineto
          171 hlineto
          16 75 rlineto
          -171 hlineto
          42 193 -79 callgsubr
          16 76 46 callgsubr
          endchar
        </CharString>
        <CharString name="Eth">
          -66 callgsubr
        </CharString>
        <CharString name="Etilde">
          -54 callsubr
          75 6 callgsubr
          hintmask 11101000
          -101 callgsubr
          399 209 rmoveto
          hintmask 11110000
          -52 callgsubr
          hintmask 11101000
          -95 callsubr
          hintmask 11110000
          -82 callgsubr
        </CharString>
        <CharString name="Euro">
          10 -8 70 124 75 93 75 147 69 hstem
          58 354 rmoveto
          71 hlineto
          -7 -30 -3 -31 -1 -32 rrcurveto
          -80 hlineto
          -17 -75 rlineto
          100 hlineto
          -136 16 79 -58 148 hhcurveto
          65 46 11 20 42 hvcurveto
          0 -29 56 -1 1 vhcurveto
          -14 -33 -35 -4 -24 hhcurveto
          -44 -20 14 79 hvcurveto
          31 111 vlineto
          16 75 rlineto
          -120 hlineto
          3 29 5 32 6 32 rrcurveto
          127 hlineto
          16 75 rlineto
          -123 hlineto
          81 26 41 66 62 hhcurveto
          21 39 -7 -8 20 hvcurveto
          26 64 rlineto
          12 -33 -45 8 -50 hhcurveto
          -167 -106 -83 -133 -54 hvcurveto
          -77 hlineto
          endchar
        </CharString>
        <CharString name="F">
          -88 21 -21 299 77 183 76 hstem
          0 vmoveto
          -26 callgsubr
          64 299 rlineto
          171 hlineto
          16 77 rlineto
          -171 hlineto
          39 183 rlineto
          205 hlineto
          16 76 46 callgsubr
          endchar
        </CharString>
        <CharString name="G">
          -23 callsubr
          hstemhm
          35 224 0 195 hintmask 10101010
          -72 callgsubr
          hvcurveto
          hintmask 10110100
          -79 callsubr
          hintmask 01110100
          -38 callgsubr
          endchar
        </CharString>
        <CharString name="Gbreve">
          -23 callsubr
          48 82 79 -20 hstemhm
          35 224 0 195 hintmask 1010111010000000
          -72 callgsubr
          hvcurveto
          hintmask 1011011100000000
          -79 callsubr
          hintmask 0111011100000000
          -38 callgsubr
          83 403 -104 callgsubr
        </CharString>
        <CharString name="Gcircumflex">
          -23 callsubr
          -27 callsubr
          35 224 0 195 hintmask 10101101
          -72 callgsubr
          hvcurveto
          hintmask 10110110
          -79 callsubr
          hintmask 01110110
          -38 callgsubr
          -26 403 -105 callgsubr
        </CharString>
        <CharString name="Gcommaaccent">
          63 -31 callgsubr
          54 29 -21 67 156 0 67 0 106 180 69 hstemhm
          35 224 -30 146 -116 195 -185 106 hintmask 1111011001000000
          -72 callgsubr
          -32 -5 -57 -4 -29 hvcurveto
          169 hlineto
          38 194 rlineto
          28 -65 -69 27 -99 hhcurveto
          hintmask 1111101100100000
          -257 -127 -179 -208 -193 110 -73 116 76 43 32 40 35 hvcurveto
          4 hlineto
          -38 callgsubr
          hintmask 1111011010000000
          20 -417 -72 callsubr
          -93 callgsubr
        </CharString>
        <CharString name="Gdotaccent">
          -23 callsubr
          27 171 hstemhm
          35 224 69 205 hintmask 10101111
          -72 callgsubr
          hvcurveto
          hintmask 10110111
          -79 callsubr
          hintmask 01110111
          -38 callgsubr
          178 475 -96 callgsubr
        </CharString>
        <CharString name="H">
          87 21 -21 283 76 276 -20 hstem
          692 -58 callsubr
          -218 hlineto
          -59 -276 rlineto
          -122 hlineto
          59 276 rlineto
          -63 callsubr
          -26 callgsubr
          60 283 rlineto
          123 hlineto
          -60 -283 rlineto
          -26 callgsubr
          endchar
        </CharString>
        <CharString name="Hbar">
          125 21 -21 283 76 87 77 -77 189 hstemhm
          hintmask 11010000
          711 -58 callsubr
          -218 hlineto
          hintmask 11100000
          -24 -112 rlineto
          -122 hlineto
          hintmask 11010000
          24 112 rlineto
          -217 hlineto
          hintmask 11100000
          -24 -112 rlineto
          -81 hlineto
          -19 -77 rlineto
          84 hlineto
          -95 -446 rlineto
          -26 callgsubr
          60 283 rlineto
          123 hlineto
          -60 -283 rlineto
          -26 callgsubr
          96 446 rlineto
          81 hlineto
          18 77 rlineto
          -83 hlineto
          hintmask 11010000
          -374 -164 rmoveto
          18 87 rlineto
          122 hlineto
          -18 -87 rlineto
          endchar
        </CharString>
        <CharString name="Hcircumflex">
          87 21 -21 283 76 276 -20 224 -20 hstem
          692 -58 callsubr
          -218 hlineto
          -59 -276 rlineto
          -122 hlineto
          59 276 rlineto
          -63 callsubr
          -26 callgsubr
          60 283 rlineto
          123 hlineto
          -60 -283 rlineto
          -26 callgsubr
          -236 693 -105 callgsubr
        </CharString>
        <CharString name="Hdotbelow">
          87 -33 callgsubr
          102 -21 283 76 276 -20 hstem
          159 167 vstem
          692 -58 callsubr
          -218 hlineto
          -59 -276 rlineto
          -122 hlineto
          59 276 rlineto
          -63 callsubr
          -26 callgsubr
          60 283 rlineto
          123 hlineto
          -60 -283 rlineto
          -26 callgsubr
          -229 -144 -100 callsubr
        </CharString>
        <CharString name="I">
          -25 callgsubr
          hstem
          352 -58 callsubr
          -63 callsubr
          -26 callgsubr
          endchar
        </CharString>
        <CharString name="IJ">
          333 -9 68 -68 244 -214 -48 callgsubr
          hstemhm
          hintmask 00110000
          352 -58 callsubr
          -63 callsubr
          -26 callgsubr
          88 84 rmoveto
          hintmask 10010000
          -70 callgsubr
          -29 callgsubr
          hintmask 01010000
          3 callgsubr
          endchar
        </CharString>
        <CharString name="Iacute">
          -25 callgsubr
          224 -20 hstem
          352 -58 callsubr
          -63 callsubr
          -26 callgsubr
          60 693 -103 callsubr
        </CharString>
        <CharString name="Ibreve">
          -25 callgsubr
          78 82 79 -20 hstem
          352 -58 callsubr
          -63 callsubr
          -26 callgsubr
          42 693 -104 callgsubr
        </CharString>
        <CharString name="Icircumflex">
          -25 callgsubr
          224 -20 hstem
          352 -58 callsubr
          -63 callsubr
          -26 callgsubr
          -68 693 -105 callgsubr
        </CharString>
        <CharString name="Idieresis">
          -25 callgsubr
          67 153 hstem
          80 29 callgsubr
          352 -58 callsubr
          -63 callsubr
          -26 callgsubr
          -54 835 rmoveto
          -105 callsubr
        </CharString>
        <CharString name="Idotaccent">
          -25 callgsubr
          57 171 hstem
          147 205 vstem
          352 -58 callsubr
          -63 callsubr
          -26 callgsubr
          136 765 -96 callgsubr
        </CharString>
        <CharString name="Idotbelow">
          -253 -33 callgsubr
          102 -48 callgsubr
          hstem
          -4 167 vstem
          352 -58 callsubr
          -63 callsubr
          -26 callgsubr
          -53 -144 -100 callsubr
        </CharString>
        <CharString name="Igrave">
          -25 callgsubr
          224 -20 hstem
          352 -58 callsubr
          -63 callsubr
          -26 callgsubr
          -12 693 -81 callsubr
        </CharString>
        <CharString name="Imacron">
          -25 callgsubr
          115 77 hstem
          352 -58 callsubr
          -63 callsubr
          -26 callgsubr
          -132 730 -69 callsubr
        </CharString>
        <CharString name="Iogonek">
          -253 -204 66 159 -48 callgsubr
          hstem
          -48 128 vstem
          352 -58 callsubr
          -63 callsubr
          63 hlineto
          -52 -22 -59 -40 -68 -98 callsubr
          43 42 34 36 23 hvcurveto
          58 hlineto
          endchar
        </CharString>
        <CharString name="Itilde">
          -253 35 callsubr
          352 -58 callsubr
          -63 callsubr
          -26 callgsubr
          238 844 -84 callgsubr
        </CharString>
        <CharString name="J">
          11 -9 68 -68 244 400 -20 hstemhm
          hintmask 10100000
          -18 84 rmoveto
          -70 callgsubr
          -29 callgsubr
          hintmask 01100000
          3 callgsubr
          endchar
        </CharString>
        <CharString name="Jcircumflex">
          11 -9 68 -68 244 400 -20 224 -20 hstemhm
          hintmask 10110000
          -18 84 rmoveto
          -70 callgsubr
          -29 callgsubr
          hintmask 01110000
          3 callgsubr
          400 458 -105 callgsubr
        </CharString>
        <CharString name="K">
          29 -67 callsubr
          21 -20 hstemhm
          hintmask 11000000
          352 -58 callsubr
          -63 callsubr
          -26 callgsubr
          59 279 88 -279 rlineto
          218 hlineto
          -152 393 rlineto
          hintmask 10100000
          31 callgsubr
          endchar
        </CharString>
        <CharString name="Kcommaaccent">
          29 -31 callgsubr
          62 -19 callsubr
          21 -20 hstemhm
          187 146 hintmask 11101000
          352 -58 callsubr
          -63 callsubr
          -26 callgsubr
          59 279 88 -279 rlineto
          218 hlineto
          -152 393 rlineto
          hintmask 11011000
          31 callgsubr
          hintmask 11101000
          40 -486 -72 callsubr
          -93 callgsubr
        </CharString>
        <CharString name="L">
          -97 0 84 551 -20 hstem
          -71 callgsubr
          endchar
        </CharString>
        <CharString name="Lacute">
          -4 callgsubr
          160 58 -103 callsubr
        </CharString>
        <CharString name="Lcaron">
          -4 callgsubr
          264 204 -102 callsubr
        </CharString>
        <CharString name="Lcommaaccent">
          -97 -31 callgsubr
          62 -19 callsubr
          hstemhm
          118 146 vstemhm
          -71 callgsubr
          129 -762 -72 callsubr
          hintmask 11110000
          -93 callgsubr
        </CharString>
        <CharString name="Ldot">
          -74 0 84 134 171 246 -20 hstem
          311 205 vstem
          -71 callgsubr
          381 -324 -96 callgsubr
        </CharString>
        <CharString name="Lslash">
          -65 0 84 551 -20 hstem
          -8 243 rmoveto
          96 17 -55 -260 rlineto
          420 hlineto
          17 84 rlineto
          -203 hlineto
          46 216 99 18 21 97 -99 -18 51 238 rlineto
          -217 hlineto
          -59 -279 -101 -18 rlineto
          endchar
        </CharString>
        <CharString name="M">
          265 -6 callsubr
          870 -58 callsubr
          -257 hlineto
          -192 -358 -31 358 rlineto
          -255 -80 callsubr
          90 hlineto
          96 447 45 -447 rlineto
          136 hlineto
          237 432 -92 -432 rlineto
          222 hlineto
          endchar
        </CharString>
        <CharString name="N">
          65 -6 callsubr
          -90 callgsubr
          endchar
        </CharString>
        <CharString name="NULL">
          -388 endchar
        </CharString>
        <CharString name="Nacute">
          65 -67 callsubr
          224 -20 hstem
          -90 callgsubr
          -81 693 -103 callsubr
        </CharString>
        <CharString name="Ncaron">
          65 -67 callsubr
          224 -20 hstem
          -90 callgsubr
          -3 839 -102 callsubr
        </CharString>
        <CharString name="Ncommaaccent">
          65 -31 callgsubr
          62 -19 callsubr
          hstemhm
          188 146 vstemhm
          -90 callgsubr
          -199 -127 -72 callsubr
          hintmask 11110000
          -93 callgsubr
        </CharString>
        <CharString name="Ndotaccent">
          65 -67 callsubr
          57 171 hstem
          336 205 vstem
          -90 callgsubr
          8 765 -96 callgsubr
        </CharString>
        <CharString name="Ntilde">
          65 35 callsubr
          -90 callgsubr
          76 844 -84 callgsubr
        </CharString>
        <CharString name="O">
          -6 callgsubr
          hstem
          -45 callgsubr
          vstem
          -107 callgsubr
          endchar
        </CharString>
        <CharString name="OE">
          295 0 62 -62 77 -64 -21 299 75 204 65 5 -20 hstemhm
          34 218 0 204 hintmask 00110110
          412 640 rmoveto
          -95 -73 -22 -41 -59 hvcurveto
          -96 -66 -55 -124 -142 vvcurveto
          -78 16 -60 31 -39 vhcurveto
          -53 41 68 -23 114 hhcurveto
          hintmask 10011010
          37 34 3 5 31 hvcurveto
          386 hlineto
          hintmask 01011010
          15 77 rlineto
          -204 hlineto
          46 214 rlineto
          171 hlineto
          16 75 rlineto
          -171 hlineto
          42 193 -79 callgsubr
          16 76 rlineto
          -419 hlineto
          hintmask 10010101
          5 -24 -30 0 -42 hhcurveto
          -115 -578 rmoveto
          -27 -18 24 75 hvcurveto
          hintmask 10011001
          148 70 261 93 27 14 -22 -68 -150 -68 -268 -91 vhcurveto
          endchar
        </CharString>
        <CharString name="Oacute">
          -6 callgsubr
          1 callsubr
          hstem
          -45 callgsubr
          vstem
          -107 callgsubr
          174 631 -103 callsubr
        </CharString>
        <CharString name="Obreve">
          -6 callgsubr
          48 82 79 -20 hstem
          -45 callgsubr
          vstem
          -107 callgsubr
          136 631 -104 callgsubr
        </CharString>
        <CharString name="Ocircumflex">
          -6 callgsubr
          1 callsubr
          hstem
          -45 callgsubr
          vstem
          -107 callgsubr
          46 631 -105 callgsubr
        </CharString>
        <CharString name="Odieresis">
          -6 callgsubr
          37 153 hstemhm
          35 218 8 152 44 220 -204 153 hintmask 11111100
          -107 callgsubr
          45 773 15 callsubr
          hintmask 11111010
          -53 -29 -41 -42 -39 22 -31 49 53 29 40 43 39 -22 31 -49 hvcurveto
          endchar
        </CharString>
        <CharString name="Odotbelow">
          106 -33 callgsubr
          73 34 callsubr
          hstemhm
          35 218 -80 167 117 220 hintmask 11110100
          -107 callgsubr
          hintmask 11101100
          42 -206 -100 callsubr
        </CharString>
        <CharString name="Ograve">
          -6 callgsubr
          1 callsubr
          hstem
          -45 callgsubr
          vstem
          -107 callgsubr
          102 631 -81 callsubr
        </CharString>
        <CharString name="Ohungarumlaut">
          -6 callgsubr
          48 146 hstem
          -45 callgsubr
          vstem
          -107 callgsubr
          57 631 -77 callsubr
        </CharString>
        <CharString name="Omacron">
          -6 callgsubr
          85 77 hstem
          -45 callgsubr
          vstem
          -107 callgsubr
          -38 668 -69 callsubr
        </CharString>
        <CharString name="Oogonek">
          106 -204 66 130 34 callsubr
          hstemhm
          35 218 -129 129 204 220 hintmask 11110100
          411 645 rmoveto
          -95 -71 -20 -41 -58 hvcurveto
          -97 -68 -55 -122 -147 vvcurveto
          -86 18 -56 29 -37 vhcurveto
          30 -40 46 -23 70 -8 rrcurveto
          hintmask 11101100
          -51 -23 -53 -39 -65 -98 callsubr
          38 33 31 33 23 hvcurveto
          112 2 76 24 60 66 -42 callgsubr
        </CharString>
        <CharString name="Oslash">
          106 -8 70 -66 -21 601 69 12 -20 hstemhm
          -45 callgsubr
          hintmask 01101100
          411 645 rmoveto
          -246 -130 -163 -235 -86 18 -56 29 -37 hvcurveto
          2 -4 -40 -45 57 -44 39 45 rlineto
          hintmask 10011100
          -21 callgsubr
          hintmask 10101100
          -47 callgsubr
        </CharString>
        <CharString name="Oslashacute">
          106 -8 70 -66 -21 601 69 -27 callsubr
          -45 callgsubr
          hintmask 01111100
          462 693 rmoveto
          179 146 rlineto
          -172 hlineto
          -93 -146 rlineto
          35 -48 rmoveto
          -246 -130 -163 -235 -86 18 -56 29 -37 hvcurveto
          2 -4 -40 -45 57 -44 39 45 rlineto
          hintmask 10111100
          -21 callgsubr
          -47 callgsubr
        </CharString>
        <CharString name="Otilde">
          -6 callgsubr
          65 6 callgsubr
          -45 callgsubr
          hintmask 11011100
          -107 callgsubr
          324 782 rmoveto
          hintmask 11101100
          -52 callgsubr
          hintmask 11011100
          -95 callsubr
          hintmask 11101100
          -82 callgsubr
        </CharString>
        <CharString name="P">
          21 21 -21 210 64 293 68 hstem
          431 192 vstem
          275 274 rmoveto
          63 293 rlineto
          45 hlineto
          40 8 -28 -36 -76 -31 -153 -79 hvcurveto
          -3 -64 rmoveto
          222 83 115 139 149 -106 22 -151 hvcurveto
          -231 -80 callsubr
          -26 callgsubr
          45 210 rlineto
          endchar
        </CharString>
        <CharString name="Q">
          106 576 69 hstem
          -45 callgsubr
          vstem
          411 645 rmoveto
          -95 -71 -20 -41 -58 hvcurveto
          -97 -68 -55 -122 -147 vvcurveto
          -86 18 -56 29 -37 vhcurveto
          33 -43 50 -23 78 -7 15 -45 39 -81 85 -53 rrcurveto
          2 -1 159 118 0 vvcurveto
          -48 10 -48 23 -34 34 63 12 49 27 41 45 -42 callgsubr
        </CharString>
        <CharString name="R">
          54 21 -21 567 68 hstem
          431 -89 callsubr
          endchar
        </CharString>
        <CharString name="Racute">
          54 21 -21 567 68 35 callgsubr
          431 -89 callsubr
          74 352 -103 callsubr
        </CharString>
        <CharString name="Rcaron">
          54 21 -21 567 68 35 callgsubr
          431 -89 callsubr
          176 498 -102 callsubr
        </CharString>
        <CharString name="Rcommaaccent">
          54 -31 callgsubr
          62 341 226 0 68 hstemhm
          195 146 90 192 hintmask 11011100
          623 484 rmoveto
          128 -102 23 -123 vhcurveto
          -263 -80 callsubr
          -26 callgsubr
          59 277 rlineto
          11 hlineto
          88 -277 rlineto
          223 hlineto
          -116 299 rlineto
          102 35 40 72 78 vvcurveto
          hintmask 11101100
          -335 -143 rmoveto
          50 226 rlineto
          45 hlineto
          40 8 -29 -34 -57 -26 -106 -70 hvcurveto
          6 -468 -72 callsubr
          -93 callgsubr
        </CharString>
        <CharString name="Rdotbelow">
          54 -33 callgsubr
          102 -21 567 68 hstem
          184 167 80 -89 callsubr
          16 -485 -100 callsubr
        </CharString>
        <CharString name="S">
          8 -8 74 -74 197 262 194 -73 73 hstemhm
          65 135 -135 198 81 214 -161 161 hintmask 10011010
          -92 callsubr
          hintmask 01010101
          -90 callsubr
          vhcurveto
          hintmask 10101010
          4 callgsubr
          endchar
        </CharString>
        <CharString name="Sacute">
          -94 callsubr
          52 242 -103 callsubr
        </CharString>
        <CharString name="Scaron">
          -94 callsubr
          130 388 -102 callsubr
        </CharString>
        <CharString name="Schwa">
          67 -8 70 212 67 79 225 -69 69 hstemhm
          14 206 198 217 hintmask 11011100
          14 177 rmoveto
          -128 84 -57 158 294 85 201 194 207 -98 51 -172 -108 -75 -20 -49 -64 vhcurveto
          hintmask 11101100
          -33 -156 rlineto
          174 hlineto
          hintmask 11011100
          91 22 61 65 37 hhcurveto
          36 3 -57 -36 -39 -4 -50 -8 -53 hvcurveto
          -353 hlineto
          -25 -43 -14 -68 -53 vvcurveto
          206 -31 rmoveto
          45 10 83 0 vhcurveto
          164 hlineto
          -111 -23 -41 -101 -62 hhcurveto
          -25 -23 17 67 hvcurveto
          endchar
        </CharString>
        <CharString name="Scircumflex">
          -94 callsubr
          -76 242 -105 callgsubr
        </CharString>
        <CharString name="Sdotbelow">
          8 -33 callgsubr
          73 74 -74 197 262 194 -73 73 hstemhm
          65 135 -135 198 -138 167 52 214 -161 161 hintmask 1100110010000000
          -92 callsubr
          hintmask 1010101001000000
          -90 callsubr
          vhcurveto
          hintmask 1101000110000000
          4 callgsubr
          -102 -595 -100 callsubr
        </CharString>
        <CharString name="T">
          -24 21 -21 559 76 hstem
          -66 callsubr
          endchar
        </CharString>
        <CharString name="Tbar">
          -20 21 -21 305 77 177 76 hstem
          110 305 rmoveto
          70 hlineto
          -65 -305 rlineto
          -26 callgsubr
          65 305 rlineto
          70 hlineto
          18 77 rlineto
          -72 hlineto
          38 177 rlineto
          161 hlineto
          17 76 rlineto
          -535 hlineto
          -18 -76 rlineto
          159 hlineto
          -38 -177 rlineto
          -67 hlineto
          endchar
        </CharString>
        <CharString name="Tcaron">
          -24 21 -21 559 76 35 callgsubr
          -66 callsubr
          -98 280 -102 callsubr
        </CharString>
        <CharString name="Tdotbelow">
          -24 -33 callgsubr
          102 -21 559 76 hstem
          108 167 vstem
          -66 callsubr
          -334 -703 -100 callsubr
        </CharString>
        <CharString name="Thorn">
          13 21 -21 101 64 293 68 -68 177 hstemhm
          407 192 hintmask 11011000
          352 -58 callsubr
          -63 callsubr
          -26 callgsubr
          22 101 rlineto
          56 hlineto
          222 83 116 136 hvcurveto
          hintmask 11101000
          151 -104 22 -166 vhcurveto
          hintmask 11011000
          30 -68 rmoveto
          40 8 -28 -37 -74 -31 -154 -79 hvcurveto
          -45 hlineto
          63 293 rlineto
          endchar
        </CharString>
        <CharString name="U">
          -19 callgsubr
          hstem
          35 221 vstem
          -106 callgsubr
          endchar
        </CharString>
        <CharString name="Uacute">
          -19 callgsubr
          224 -20 hstem
          35 221 vstem
          -106 callgsubr
          208 466 -103 callsubr
        </CharString>
        <CharString name="Ubreve">
          -19 callgsubr
          78 82 79 -20 hstem
          35 221 vstem
          -106 callgsubr
          160 466 -104 callgsubr
        </CharString>
        <CharString name="Ucircumflex">
          -19 callgsubr
          224 -20 hstem
          35 221 vstem
          -106 callgsubr
          60 466 -105 callgsubr
        </CharString>
        <CharString name="Udieresis">
          -19 callgsubr
          67 153 hstem
          35 221 15 29 callgsubr
          -106 callgsubr
          86 608 rmoveto
          -105 callsubr
        </CharString>
        <CharString name="Udotbelow">
          51 -33 callgsubr
          73 40 callsubr
          hstemhm
          35 221 -92 167 hintmask 11110000
          -106 callgsubr
          hintmask 11101000
          64 -371 -100 callsubr
        </CharString>
        <CharString name="Ugrave">
          -19 callgsubr
          224 -20 hstem
          35 221 vstem
          -106 callgsubr
          136 466 -81 callsubr
        </CharString>
        <CharString name="Uhungarumlaut">
          -19 callgsubr
          78 146 hstem
          35 221 vstem
          -106 callgsubr
          71 466 -77 callsubr
        </CharString>
        <CharString name="Umacron">
          -19 callgsubr
          115 77 hstem
          35 221 vstem
          -106 callgsubr
          -4 503 -69 callsubr
        </CharString>
        <CharString name="Uogonek">
          51 -204 66 132 88 553 -20 hstemhm
          35 200 -200 221 -149 128 hintmask 11110000
          355 -58 callsubr
          -227 hlineto
          -61 -284 rlineto
          -18 -84 -14 -76 -46 vvcurveto
          -90 55 -50 116 -10 vhcurveto
          hintmask 11100100
          -49 -24 -50 -38 -63 -98 callsubr
          39 35 32 34 23 hvcurveto
          187 13 58 100 25 118 87 410 rcurveline
          -91 hlineto
          -85 -408 rlineto
          -76 -16 -23 -69 -93 hhcurveto
          hintmask 11101000
          -63 -34 31 46 18 5 21 6 29 hvcurveto
          endchar
        </CharString>
        <CharString name="Uring">
          -19 callgsubr
          67 54 63 56 hstem
          35 221 113 57 68 58 vstem
          -106 callgsubr
          285 548 -91 callgsubr
          endchar
        </CharString>
        <CharString name="Utilde">
          -19 callgsubr
          95 6 callgsubr
          35 221 hintmask 11011000
          -106 callgsubr
          346 617 rmoveto
          hintmask 11101000
          -52 callgsubr
          hintmask 11011000
          -95 callsubr
          hintmask 11101000
          -82 callgsubr
        </CharString>
        <CharString name="V">
          2 -6 callsubr
          100 227 vstem
          119 hmoveto
          236 hlineto
          296 635 rlineto
          -99 hlineto
          -208 -430 -34 -31 callsubr
          -228 hlineto
          endchar
        </CharString>
        <CharString name="W">
          365 -6 callsubr
          99 231 190 197 vstem
          -86 callgsubr
          endchar
        </CharString>
        <CharString name="Wacute">
          365 -67 callsubr
          224 -20 hstem
          99 231 190 197 vstem
          -86 callgsubr
          571 58 -103 callsubr
        </CharString>
        <CharString name="Wcircumflex">
          365 -67 callsubr
          224 -20 hstem
          99 231 190 197 vstem
          -86 callgsubr
          443 58 -105 callgsubr
        </CharString>
        <CharString name="Wdieresis">
          365 -67 callsubr
          67 153 hstemhm
          99 231 122 152 -84 197 -53 153 hintmask 11110100
          -86 callgsubr
          456 200 rmoveto
          hintmask 11111010
          -105 callsubr
        </CharString>
        <CharString name="Wgrave">
          365 -67 callsubr
          224 -20 hstem
          99 231 190 197 vstem
          -86 callgsubr
          499 58 -81 callsubr
        </CharString>
        <CharString name="X">
          23 -6 callsubr
          302 -58 callsubr
          -247 hlineto
          147 -346 -236 -289 rlineto
          120 hlineto
          154 199 85 -199 rlineto
          247 hlineto
          -149 350 237 285 rlineto
          -120 hlineto
          -153 -200 rlineto
          endchar
        </CharString>
        <CharString name="Y">
          -9 -6 callsubr
          -83 callsubr
          endchar
        </CharString>
        <CharString name="Yacute">
          -9 -67 callsubr
          224 -20 hstem
          -83 callsubr
          54 453 -103 callsubr
        </CharString>
        <CharString name="Ycircumflex">
          -9 -67 callsubr
          224 -20 hstem
          -83 callsubr
          -74 453 -105 callgsubr
        </CharString>
        <CharString name="Ydieresis">
          -9 -67 callsubr
          67 153 hstem
          247 29 callgsubr
          -83 callsubr
          -60 595 rmoveto
          -105 callsubr
        </CharString>
        <CharString name="Ygrave">
          -9 -67 callsubr
          224 -20 hstem
          -83 callsubr
          -18 453 -81 callsubr
        </CharString>
        <CharString name="Ytilde">
          -9 35 callsubr
          -83 callsubr
          222 604 -84 callgsubr
        </CharString>
        <CharString name="Z">
          -26 0 76 483 76 hstem
          -21 -85 callsubr
          endchar
        </CharString>
        <CharString name="Zacute">
          -26 0 76 483 76 35 callgsubr
          -21 -85 callsubr
          390 602 -103 callsubr
        </CharString>
        <CharString name="Zcaron">
          -26 0 76 483 76 35 callgsubr
          -21 -85 callsubr
          518 748 -102 callsubr
        </CharString>
        <CharString name="Zdotaccent">
          -26 0 76 483 76 37 171 hstem
          278 205 vstem
          -21 -85 callsubr
          486 674 -96 callgsubr
        </CharString>
        <CharString name="Zdotbelow">
          -26 -33 callgsubr
          81 76 483 76 hstem
          136 167 vstem
          -21 -85 callsubr
          306 -235 -100 callsubr
        </CharString>
        <CharString name="a">
          -68 callgsubr
          -15 callsubr
          hintmask 10110110
          -44 callgsubr
          hintmask 10101110
          -100 callgsubr
          hintmask 01110110
          -96 callsubr
          hintmask 10110110
          -82 callsubr
          endchar
        </CharString>
        <CharString name="a.salt">
          -60 callgsubr
          hstemhm
          7 202 hintmask 10011000
          396 430 rmoveto
          -34 -65 rlineto
          -8 hlineto
          hintmask 10101000
          -89 callgsubr
          hintmask 01011000
          -86 callsubr
          hintmask 10101000
          -97 callsubr
          endchar
        </CharString>
        <CharString name="aacute">
          -68 callgsubr
          194 -20 -99 callgsubr
          53 272 -103 callsubr
        </CharString>
        <CharString name="aacute.salt">
          -60 callgsubr
          225 -20 -92 callgsubr
          101 146 -103 callsubr
        </CharString>
        <CharString name="abreve">
          -68 callgsubr
          48 82 79 -20 -15 callsubr
          hintmask 1011011110000000
          -44 callgsubr
          hintmask 1010111110000000
          -100 callgsubr
          hintmask 0111011110000000
          -96 callsubr
          hintmask 1011011110000000
          -82 callsubr
          13 272 -104 callgsubr
        </CharString>
        <CharString name="abreve.salt">
          -60 callgsubr
          79 82 79 5 callgsubr
          hintmask 10011110
          396 430 rmoveto
          -34 -65 rlineto
          -8 hlineto
          hintmask 10101110
          -89 callgsubr
          hintmask 01011110
          -86 callsubr
          hintmask 10101110
          -97 callsubr
          83 146 -104 callgsubr
        </CharString>
        <CharString name="acircumflex">
          -68 callgsubr
          194 -20 -99 callgsubr
          -87 272 -105 callgsubr
        </CharString>
        <CharString name="acircumflex.salt">
          -60 callgsubr
          225 -20 -92 callgsubr
          -27 146 -105 callgsubr
        </CharString>
        <CharString name="acute">
          -262 28 callgsubr
          112 489 -103 callsubr
        </CharString>
        <CharString name="adieresis">
          -68 callgsubr
          37 153 47 callgsubr
          -40 152 32 193 -165 153 -153 165 hintmask 1011011010000000
          -44 callgsubr
          hintmask 1010111010000000
          -100 callgsubr
          hintmask 0111011000100000
          -96 callsubr
          hintmask 1011011010000000
          -82 callsubr
          -83 414 rmoveto
          hintmask 1011010101000000
          -105 callsubr
        </CharString>
        <CharString name="adieresis.salt">
          -60 callgsubr
          68 153 -23 callgsubr
          -10 -13 callsubr
          hintmask 10011101
          396 430 rmoveto
          -34 -65 rlineto
          -8 hlineto
          hintmask 10101101
          -89 callgsubr
          hintmask 01011101
          -86 callsubr
          hintmask 10101101
          -97 callsubr
          -13 288 rmoveto
          hintmask 10101011
          -105 callsubr
        </CharString>
        <CharString name="ae">
          19 callgsubr
          hstemhm
          -11 187 458 180 hintmask 1001010110000000
          56 304 rmoveto
          143 hlineto
          hintmask 1000101110000000
          -38 callsubr
          hintmask 0011010110000000
          26 107 rlineto
          -164 hlineto
          hintmask 1001010110000000
          -62 callsubr
          hintmask 0101010110000000
          -26 -5 -24 -27 -29 hhcurveto
          hintmask 0010110110000000
          42 callsubr
          endchar
        </CharString>
        <CharString name="aeacute">
          19 callgsubr
          -27 callsubr
          -11 187 458 180 hintmask 1001010111000000
          56 304 rmoveto
          143 hlineto
          hintmask 1000101111000000
          -38 callsubr
          hintmask 0011010111000000
          26 107 rlineto
          -164 hlineto
          hintmask 1001010111000000
          -62 callsubr
          hintmask 0101010111000000
          -26 -5 -24 -27 -29 hhcurveto
          hintmask 0010110111000000
          42 callsubr
          189 272 -103 callsubr
        </CharString>
        <CharString name="agrave">
          -68 callgsubr
          194 -20 -99 callgsubr
          -16 272 -81 callsubr
        </CharString>
        <CharString name="agrave.salt">
          -60 callgsubr
          225 -20 -92 callgsubr
          29 146 -81 callsubr
        </CharString>
        <CharString name="amacron">
          -68 callgsubr
          85 77 -99 callgsubr
          -154 309 -69 callsubr
        </CharString>
        <CharString name="amacron.salt">
          -60 callgsubr
          116 77 -92 callgsubr
          -91 183 -69 callsubr
        </CharString>
        <CharString name="ampersand">
          126 -8 113 -84 -21 590 55 hstemhm
          0 202 -14 188 118 91 hintmask 01101100
          661 hmoveto
          -114 214 10 15 28 44 27 44 13 48 rlinecurve
          -71 hlineto
          -9 -24 -15 -27 -20 -28 -48 96 rcurveline
          41 18 82 20 92 vvcurveto
          88 -73 45 -105 -129 -90 -68 -106 -30 8 -20 17 -38 vhcurveto
          hintmask 10110100
          -148 -31 -65 -84 -101 vvcurveto
          -124 97 -51 106 99 52 41 22 18 vhcurveto
          6 hlineto
          hintmask 01110100
          24 -55 rlineto
          -58 120 rmoveto
          hintmask 10110100
          -9 -9 -9 -6 -21 hhcurveto
          -63 -40 60 62 41 17 47 23 13 hvcurveto
          179 262 rmoveto
          48 25 -36 -37 -34 -21 -36 -43 -10 hvcurveto
          -41 77 rlineto
          hintmask 10101100
          -8 15 -5 14 12 vvcurveto
          19 13 16 32 vhcurveto
          endchar
        </CharString>
        <CharString name="aogonek">
          -27 -204 66 130 93 -64 -21 217 47 40 137 -67 67 47 callgsubr
          53 128 -37 193 hintmask 1101101100000000
          -44 callgsubr
          hintmask 1101011010000000
          -100 callgsubr
          hintmask 1011101100000000
          18 -64 rlineto
          43 hlineto
          -52 -22 -59 -40 -68 -98 callsubr
          43 42 34 36 23 hvcurveto
          23 -2 callgsubr
          hintmask 1101101010000000
          4 20 4 33 25 vvcurveto
          87 -48 56 -170 -88 -69 -15 -33 -67 vhcurveto
          214 -253 rmoveto
          -82 callsubr
          endchar
        </CharString>
        <CharString name="aogonek.salt">
          -1 -204 66 130 -50 callsubr
          -11 5 callgsubr
          40 128 hintmask 11001110
          396 430 rmoveto
          -34 -65 rlineto
          -8 hlineto
          hintmask 11010110
          -89 callgsubr
          hintmask 10101110
          18 -64 rlineto
          44 hlineto
          -52 -22 -59 -40 -68 -98 callsubr
          43 42 34 36 23 hvcurveto
          23 hlineto
          92 -31 callsubr
          hintmask 11010110
          -97 callsubr
          endchar
        </CharString>
        <CharString name="apostrophe">
          -251 409 -21 263 -20 hstem
          146 170 vstem
          131 423 -83 callgsubr
        </CharString>
        <CharString name="aring">
          -68 callgsubr
          37 54 63 56 47 callgsubr
          44 57 43 193 -168 58 hintmask 1011011111000000
          -44 callgsubr
          hintmask 1010111111000000
          -100 callgsubr
          hintmask 0111011111000000
          -96 callsubr
          hintmask 1011011110100000
          -82 callsubr
          102 354 -91 callgsubr
          endchar
        </CharString>
        <CharString name="aring.salt">
          -60 callgsubr
          68 54 63 56 -23 callgsubr
          90 57 68 58 hintmask 1001111110000000
          396 430 rmoveto
          -34 -65 rlineto
          -8 hlineto
          hintmask 1010111110000000
          -89 callgsubr
          hintmask 0101111110000000
          -86 callsubr
          hintmask 1010111110000000
          -97 callsubr
          188 228 -91 callgsubr
          endchar
        </CharString>
        <CharString name="aringacute">
          -68 callgsubr
          37 54 63 56 36 -20 166 -20 47 callgsubr
          51 57 36 193 -161 58 hintmask 1011011111110000
          -44 callgsubr
          hintmask 1010111111110000
          -100 callgsubr
          hintmask 0111011111110000
          -96 callsubr
          hintmask 1011011111101000
          -82 callsubr
          109 354 -91 callgsubr
          32 120 -103 callsubr
        </CharString>
        <CharString name="aringacute.salt">
          -60 callgsubr
          68 54 63 56 37 -20 166 5 callgsubr
          90 57 68 58 hintmask 1001111111100000
          396 430 rmoveto
          -34 -65 rlineto
          -8 hlineto
          hintmask 1010111111100000
          -89 callgsubr
          hintmask 0101111111100000
          -86 callsubr
          hintmask 1010111111100000
          -97 callsubr
          188 228 -91 callgsubr
          34 121 -103 callsubr
        </CharString>
        <CharString name="asciicircum">
          -141 437 -21 219 -20 hstem
          151 416 rmoveto
          133 166 83 -166 0 callsubr
          -83 219 rlineto
          -2 callsubr
          -146 -219 rlineto
          endchar
        </CharString>
        <CharString name="asciitilde">
          -117 164 111 -74 108 hstemhm
          hintmask 01000000
          396 309 rmoveto
          hintmask 10000000
          -20 -16 -30 -14 -19 hhcurveto
          hintmask 01000000
          -40 -90 34 -43 hhcurveto
          -57 -39 -47 -68 -41 hvcurveto
          33 -28 rlineto
          14 12 29 21 24 hhcurveto
          hintmask 10000000
          37 92 -37 48 hhcurveto
          59 36 46 73 40 hvcurveto
          endchar
        </CharString>
        <CharString name="asterisk">
          -306 489 -21 35 callgsubr
          178 538 rmoveto
          -20 -70 rlineto
          51 hlineto
          6 70 48 -47 34 52 -59 26 70 25 -21 51 -62 -43 23 70 rlineto
          -56 hlineto
          -4 -70 -46 43 -35 -52 58 -24 -71 -27 22 -51 rlineto
          endchar
        </CharString>
        <CharString name="at">
          166 -116 76 75 62 181 64 99 79 hstemhm
          26 90 77 119 -119 214 9 86 121 86 hintmask 1111101110000000
          408 -21 rmoveto
          -11 -36 -35 -8 -37 hhcurveto
          -105 -79 67 140 177 126 97 155 143 83 -83 -129 -106 -56 -26 -31 -24 -10 14 25 17 5 21 5 25 hvcurveto
          29 136 rlineto
          -96 hlineto
          -25 -44 rlineto
          -4 hlineto
          43 -17 -31 8 -32 hhcurveto
          -133 -10 -151 -41 -81 42 -34 55 51 45 28 51 24 hvcurveto
          6 hlineto
          -63 2 38 -24 65 hhcurveto
          143 45 116 100 162 -122 115 -187 -196 -178 -125 -232 -179 105 -100 160 41 36 7 8 39 hvcurveto
          -35 379 rmoveto
          16 9 -12 -12 8 hvcurveto
          -27 -120 rlineto
          -11 -7 -17 -17 -19 hhcurveto
          hintmask 1111110110000000
          -16 -7 14 26 45 19 87 41 hvcurveto
          endchar
        </CharString>
        <CharString name="atilde">
          -68 callgsubr
          65 101 -64 97 -15 callsubr
          hintmask 1011010110000000
          -44 callgsubr
          hintmask 1010110110000000
          -100 callgsubr
          hintmask 0111010110000000
          -96 callsubr
          hintmask 1011001110000000
          -82 callsubr
          204 423 rmoveto
          hintmask 1011010110000000
          -52 callgsubr
          hintmask 1011001110000000
          -95 callsubr
          hintmask 1011010110000000
          -82 callgsubr
        </CharString>
        <CharString name="atilde.salt">
          -60 callgsubr
          96 101 -64 97 -23 callgsubr
          hintmask 10011010
          396 430 rmoveto
          -34 -65 rlineto
          -8 hlineto
          hintmask 10101010
          -89 callgsubr
          hintmask 01011010
          -86 callsubr
          hintmask 10100110
          -97 callsubr
          279 297 rmoveto
          hintmask 10101010
          -52 callgsubr
          hintmask 10100110
          -95 callsubr
          hintmask 10101010
          -82 callgsubr
        </CharString>
        <CharString name="b">
          6 -8 97 -68 -21 341 96 235 -20 12 callsubr
          hintmask 10111000
          197 65 rmoveto
          7 hlineto
          -38 20 64 -35 73 -30 callsubr
          -54 -59 -21 -50 -44 hvcurveto
          -7 44 callsubr
          -33 callsubr
          hintmask 01111000
          -142 -672 rlineto
          162 hlineto
          hintmask 10111000
          113 89 -4 callsubr
        </CharString>
        <CharString name="backslash">
          26 -6 callsubr
          534 hmoveto
          -349 635 rlineto
          -91 hlineto
          338 -56 callsubr
          endchar
        </CharString>
        <CharString name="bar">
          -358 -8 callsubr
          840 -20 hstem
          -33 -168 rmoveto
          105 hlineto
          181 840 rlineto
          -109 hlineto
          endchar
        </CharString>
        <CharString name="braceleft">
          -265 -69 85 619 85 hstemhm
          41 109 -69 110 hintmask 11010000
          184 208 rmoveto
          4 17 3 19 16 vvcurveto
          35 -15 19 -13 10 vhcurveto
          39 19 16 24 16 74 32 146 rcurveline
          46 10 28 2 62 hhcurveto
          18 85 rlineto
          -111 -87 -6 -122 -26 hvcurveto
          -30 -142 -12 -55 -31 -19 -40 -9 rlinecurve
          -16 -75 rlineto
          27 -4 23 -23 -30 vvcurveto
          -9 -2 -14 -2 -11 vhcurveto
          -31 -141 rlineto
          hintmask 11100000
          -3 -15 -2 -20 -12 vvcurveto
          -78 80 -4 101 vhcurveto
          18 85 rlineto
          -55 -35 0 30 12 6 18 4 19 hvcurveto
          endchar
        </CharString>
        <CharString name="braceright">
          -265 -69 85 619 85 hstemhm
          151 110 -69 109 hintmask 11100000
          159 443 rmoveto
          -4 -17 -4 -18 -17 vvcurveto
          -34 15 -20 14 -10 vhcurveto
          -39 -19 -17 -25 -16 -73 -31 -146 rcurveline
          -46 -10 -29 -2 -62 hhcurveto
          -18 -85 rlineto
          110 90 6 122 25 hvcurveto
          29 142 12 55 31 19 40 8 rlinecurve
          16 76 rlineto
          -26 4 -24 23 30 vvcurveto
          9 3 14 2 11 vhcurveto
          30 141 rlineto
          hintmask 11010000
          3 15 2 20 12 vvcurveto
          78 -78 4 -102 vhcurveto
          -19 -85 rlineto
          53 37 0 -29 -11 -5 -16 -4 -20 hvcurveto
          endchar
        </CharString>
        <CharString name="bracketleft">
          -284 -69 85 619 85 hstem
          -12 -69 rmoveto
          213 hlineto
          17 85 rlineto
          -106 hlineto
          133 619 rlineto
          106 hlineto
          17 85 rlineto
          -212 hlineto
          endchar
        </CharString>
        <CharString name="bracketright">
          -284 -69 85 619 85 hstem
          336 720 rmoveto
          -214 hlineto
          -16 -85 rlineto
          106 hlineto
          -134 -619 rlineto
          -106 hlineto
          -17 -85 rlineto
          213 hlineto
          endchar
        </CharString>
        <CharString name="breve">
          -197 489 82 79 -20 hstem
          165 489 -104 callgsubr
        </CharString>
        <CharString name="brokenbar">
          -356 -8 callsubr
          840 -20 hstem
          71 314 51 callgsubr
          -177 -840 51 callgsubr
          endchar
        </CharString>
        <CharString name="bullet">
          -231 247 236 hstem
          78 236 vstem
          78 364 rmoveto
          -66 51 -51 67 65 53 51 66 65 -53 54 -65 -67 -51 -54 -65 vhcurveto
          endchar
        </CharString>
        <CharString name="c">
          -58 -8 68 -68 173 90 186 -68 68 41 callgsubr
          0 140 hintmask 01101000
          -28 callgsubr
          hintmask 10010100
          -74 callsubr
          hintmask 10101000
          -52 callsubr
          49 -41 -65 9 -86 -14 callgsubr
          -139 101 -53 138 78 60 10 22 56 hvcurveto
          endchar
        </CharString>
        <CharString name="c_h">
          515 0 60 -60 165 -152 -21 263 186 -95 95 -68 68 -4 -20 23 -20 184 2 callsubr
          447 208 hintmask 0101000011101000
          -28 callgsubr
          hintmask 1000010011011000
          -1 callgsubr
          23 9 -16 -43 hvcurveto
          hintmask 1001000011101000
          -64 callsubr
          -10 12 -12 9 -13 8 rlinecurve
          -41 26 -24 19 42 vvcurveto
          78 91 27 76 20 14 -2 -4 12 vhcurveto
          -126 -598 -5 callgsubr
          67 310 rlineto
          hintmask 1000100011101000
          -18 callgsubr
          hintmask 1000001011101000
          61 -52 38 -69 -94 -64 -71 0 vhcurveto
          -8 hlineto
          63 300 32 callsubr
          hvcurveto
          hintmask 1000000111101000
          -38 12 -19 24 -13 vhcurveto
          hintmask 0011000011101000
          -11 -11 1 -11 hhcurveto
          -228 -92 -114 -140 -146 101 -49 145 68 63 10 22 56 hvcurveto
          endchar
        </CharString>
        <CharString name="c_k">
          527 0 60 -60 165 -152 -21 263 186 -68 68 -11 -20 194 2 callsubr
          hintmask 1000011110000000
          411 499 rmoveto
          78 91 27 76 20 13 -2 -3 12 vhcurveto
          -127 -599 -79 callgsubr
          42 201 102 -201 rlineto
          224 hlineto
          -149 267 199 163 rlineto
          -132 hlineto
          -233 -182 89 418 32 callsubr
          -38 12 -19 25 -13 hvcurveto
          hintmask 0010101110000000
          1 -15 -15 0 -16 -14 callgsubr
          -139 101 -53 138 78 60 10 22 56 hvcurveto
          hintmask 0101001110000000
          29 141 rlineto
          -143 hlineto
          hintmask 1000101101000000
          -74 callsubr
          hintmask 1001001110000000
          -64 callsubr
          -11 13 -13 9 -14 9 rlinecurve
          -40 25 -22 19 41 vvcurveto
          endchar
        </CharString>
        <CharString name="c_p">
          513 -8 callsubr
          160 68 -68 97 -97 173 90 182 -96 96 -64 64 4 -20 183 2 callsubr
          193 197 56 208 hintmask 1100001011101100
          411 500 rmoveto
          76 83 28 51 36 23 -14 -53 -28 -6 -32 -10 -47 vhcurveto
          -126 -598 -79 callgsubr
          49 233 rlineto
          6 hlineto
          -38 19 60 -35 67 hhcurveto
          182 16 255 55 77 -30 58 -93 -57 -63 -21 -50 -47 hvcurveto
          -6 hlineto
          22 100 rlineto
          7 30 3 27 24 vvcurveto
          101 -63 39 -121 -186 -103 -68 -110 -38 12 -18 25 -13 vhcurveto
          hintmask 1001000111101100
          -17 callsubr
          hintmask 1100001011011100
          -1 callgsubr
          23 9 -16 -43 hvcurveto
          hintmask 1010100011101100
          -52 callsubr
          -47 38 -53 18 61 vvcurveto
          361 -411 rmoveto
          -20 -16 17 15 -9 hvcurveto
          39 183 rlineto
          hintmask 1010010011101100
          13 11 24 24 25 hhcurveto
          24 7 -20 -26 -46 -22 -160 -63 hvcurveto
          endchar
        </CharString>
        <CharString name="c_t">
          336 -8 77 -77 173 90 186 -68 68 -11 -20 194 2 callsubr
          172 201 -58 155 hintmask 1000111101000000
          554 10 callgsubr
          78 hlineto
          -41 -199 rlineto
          -6 -29 -2 -29 -16 vvcurveto
          -86 64 -12 69 6 callsubr
          13 67 rlineto
          -77 hlineto
          20 93 rlineto
          hintmask 0101011100100000
          7 31 2 20 2 vvcurveto
          100 49 callgsubr
          -39 12 -18 25 -13 vhcurveto
          -17 callsubr
          -1 callgsubr
          hvcurveto
          hintmask 1010011010100000
          23 9 -16 -43 -21 -2 -16 -1 -22 hvcurveto
          136 hlineto
          28 128 rlineto
          -39 36 -61 20 60 vvcurveto
          78 107 27 73 71 64 -24 -48 vhcurveto
          hintmask 1000111101000000
          -63 -116 -30 -41 -9 vhcurveto
          endchar
        </CharString>
        <CharString name="cacute">
          -87 callgsubr
          -77 465 -103 callsubr
        </CharString>
        <CharString name="caron">
          -149 28 callgsubr
          318 635 -102 callsubr
        </CharString>
        <CharString name="caron.alt">
          -341 409 -21 263 -20 hstem
          42 170 vstem
          27 423 -83 callgsubr
        </CharString>
        <CharString name="ccaron">
          -87 callgsubr
          32 611 -102 callsubr
        </CharString>
        <CharString name="ccedilla">
          -58 44 callgsubr
          179 -68 68 -68 173 90 186 -68 68 41 callgsubr
          72 103 hintmask 1000110110000000
          -28 callgsubr
          hintmask 1010001110000000
          -74 callsubr
          hintmask 1010010110000000
          -52 callsubr
          49 -41 -65 9 -86 -14 callgsubr
          -118 72 -56 107 -14 hvcurveto
          -31 -115 -59 callsubr
          hintmask 0101010110000000
          22 callgsubr
          15 60 70 2 56 9 52 21 rlinecurve
          endchar
        </CharString>
        <CharString name="ccircumflex">
          -87 callgsubr
          -215 465 -105 callgsubr
        </CharString>
        <CharString name="cdotaccent">
          -58 -8 68 -68 173 90 186 -68 68 27 171 41 callgsubr
          46 205 hintmask 01101110
          -28 callgsubr
          hintmask 10011110
          -74 callsubr
          hintmask 10101110
          -52 callsubr
          49 -41 -65 9 -86 -14 callgsubr
          -139 101 -53 138 78 60 10 22 56 hvcurveto
          hintmask 01101110
          17 537 -96 callgsubr
        </CharString>
        <CharString name="cedilla">
          -335 44 callgsubr
          132 1 -20 hstemhm
          154 103 hintmask 10011000
          67 14 rmoveto
          hintmask 10101000
          -36 -133 -59 callsubr
          hintmask 01011000
          22 callgsubr
          hintmask 10101000
          20 81 rlineto
          endchar
        </CharString>
        <CharString name="cent">
          -42 0 170 -68 173 208 66 -66 163 hstemhm
          39 199 0 140 hintmask 10101000
          187 hmoveto
          105 hlineto
          hintmask 01101000
          24 102 60 3 49 10 47 19 rlinecurve
          29 141 rlineto
          -143 hlineto
          hintmask 10010100
          -74 -17 -43 -31 -28 hhcurveto
          -28 -4 37 29 80 35 167 75 21 9 -17 -42 -21 -2 -16 -1 -22 hvcurveto
          136 hlineto
          28 128 -30 35 -41 14 -53 6 rlinecurve
          24 98 rlineto
          -109 hlineto
          hintmask 10101000
          -20 -97 rlineto
          -187 -12 -84 -109 -134 vvcurveto
          -115 68 -56 102 -16 vhcurveto
          endchar
        </CharString>
        <CharString name="circumflex">
          -149 28 callgsubr
          112 489 -105 callgsubr
        </CharString>
        <CharString name="colon">
          -297 -8 168 69 168 hstemhm
          9 187 -137 187 hintmask 11100000
          196 81 rmoveto
          53 -38 26 -49 -53 -47 -33 -57 -53 20 callgsubr
          hintmask 11010000
          50 237 rmoveto
          54 -38 25 -49 -52 -48 -33 -56 -54 20 callgsubr
          endchar
        </CharString>
        <CharString name="comma">
          -44 callsubr
        </CharString>
        <CharString name="commaaccent">
          -352 -31 callgsubr
          -20 hstemhm
          46 146 vstemhm
          192 -127 -72 callsubr
          hintmask 11100000
          -93 callgsubr
        </CharString>
        <CharString name="copyright">
          176 -14 63 95 50 -50 127 67 137 -50 50 97 63 hstemhm
          45 68 87 146 320 67 hintmask 1011011110000000
          -59 callgsubr
          -126 -62 rmoveto
          -105 hlineto
          hintmask 1100111110000000
          -55 -13 -31 -22 -21 hhcurveto
          -21 -3 27 22 59 26 123 55 16 6 -13 -31 hvcurveto
          hintmask 1101011110000000
          -15 -1 -12 -1 -16 vhcurveto
          100 hlineto
          21 94 rlineto
          36 -30 -48 7 -63 hhcurveto
          -156 -71 -84 -106 -102 74 -39 102 57 44 7 17 42 hvcurveto
          endchar
        </CharString>
        <CharString name="currency">
          25 92 -21 37 97 263 98 36 -20 hstem
          86 99 268 100 vstem
          180 602 rmoveto
          -89 -75 56 -71 rlineto
          -38 -47 -23 -58 -58 vvcurveto
          -28 5 -25 10 -23 vhcurveto
          -85 -72 59 -74 86 71 rlineto
          -22 31 38 -12 44 hhcurveto
          44 44 12 22 38 hvcurveto
          58 -71 88 74 -57 71 rlineto
          39 47 25 58 59 vvcurveto
          28 -6 26 -10 23 vhcurveto
          84 70 -60 75 -84 -70 rlineto
          21 -31 -39 13 -43 hhcurveto
          -46 -44 -13 -22 -38 hvcurveto
          110 -63 rmoveto
          63 44 -46 -60 -87 -83 -70 -77 -63 -45 47 59 86 81 71 80 hvcurveto
          endchar
        </CharString>
        <CharString name="d">
          -2 -49 callgsubr
          231 5 callgsubr
          hintmask 10111000
          351 365 rmoveto
          -78 callgsubr
          hintmask 01111000
          -74 callgsubr
          hintmask 10111000
          -51 callgsubr
          endchar
        </CharString>
        <CharString name="dagger">
          -214 -8 callsubr
          540 75 225 -20 hstem
          49 372 rmoveto
          112 hlineto
          -114 -540 rlineto
          94 hlineto
          116 540 7 callgsubr
        </CharString>
        <CharString name="daggerdbl">
          -205 -8 callsubr
          235 76 229 75 225 -20 hstem
          53 372 rmoveto
          112 hlineto
          -49 -229 rlineto
          -111 hlineto
          -16 -76 rlineto
          111 hlineto
          -49 -235 rlineto
          94 hlineto
          50 235 rlineto
          110 hlineto
          15 76 rlineto
          -108 hlineto
          49 229 7 callgsubr
        </CharString>
        <CharString name="dcaron">
          94 -49 callgsubr
          210 -20 41 5 callgsubr
          424 170 hintmask 10111110
          351 365 rmoveto
          -78 callgsubr
          hintmask 01111110
          -74 callgsubr
          hintmask 10111110
          -51 callgsubr
          324 80 -83 callgsubr
        </CharString>
        <CharString name="dcroat">
          -2 -49 callgsubr
          57 76 -76 174 -23 callgsubr
          hintmask 10110100
          293 498 rmoveto
          86 hlineto
          -28 -133 rlineto
          -78 callgsubr
          hintmask 01110100
          18 -64 rlineto
          162 hlineto
          106 498 rlineto
          80 hlineto
          18 76 rlineto
          -82 hlineto
          hintmask 10101100
          21 98 rlineto
          -33 callsubr
          hintmask 10110100
          -21 -98 rlineto
          -83 hlineto
          -18 -231 rmoveto
          20 16 -19 -15 9 hvcurveto
          -39 -182 rlineto
          -51 callgsubr
          endchar
        </CharString>
        <CharString name="ddotbelow">
          -2 -33 callgsubr
          73 -50 callsubr
          231 5 callgsubr
          -59 167 hintmask 11011100
          351 365 rmoveto
          -78 callgsubr
          hintmask 10111100
          -74 callgsubr
          hintmask 11011100
          -51 callgsubr
          hintmask 11011010
          23 -487 -100 callsubr
        </CharString>
        <CharString name="degree">
          -231 380 62 145 64 hstem
          84 69 147 71 vstem
          371 526 rmoveto
          74 -57 51 -75 -82 -73 -60 -85 -76 56 -50 75 81 75 60 86 vhcurveto
          -71 -3 rmoveto
          -45 -40 -36 -42 -36 -29 29 38 45 38 33 43 35 31 -29 -35 vhcurveto
          endchar
        </CharString>
        <CharString name="dieresis">
          -162 478 153 hstem
          26 29 callgsubr
          108 631 rmoveto
          -105 callsubr
        </CharString>
        <CharString name="divide">
          -119 27 168 78 91 71 168 hstemhm
          96 187 -82 187 hintmask 11110000
          283 117 rmoveto
          53 -38 25 -49 -53 -47 -32 -57 -54 38 -25 46 54 49 33 57 vhcurveto
          hintmask 11101000
          105 407 rmoveto
          53 -38 26 -49 -53 -47 -33 -57 -53 20 callgsubr
          -357 -251 37 callsubr
        </CharString>
        <CharString name="dollar">
          17 -107 173 506 148 hstem
          65 198 81 214 vstem
          174 -107 rmoveto
          105 hlineto
          24 102 rlineto
          140 13 115 64 148 vvcurveto
          116 -70 33 -68 19 vhcurveto
          -87 24 -70 1 70 vvcurveto
          44 28 45 92 57 44 -17 -21 49 vhcurveto
          25 72 -32 18 -38 13 -49 5 rlinecurve
          19 78 rlineto
          -109 hlineto
          -17 -78 rlineto
          -121 -11 -146 -52 -158 vvcurveto
          -119 83 -27 67 -19 vhcurveto
          74 -21 55 -16 -62 vvcurveto
          -38 -21 -53 -79 -41 -81 15 31 -55 vhcurveto
          -25 -71 41 -26 48 -15 64 -6 rlinecurve
          endchar
        </CharString>
        <CharString name="dotaccent">
          -322 468 171 hstem
          26 205 vstem
          231 -30 callgsubr
          endchar
        </CharString>
        <CharString name="dotbelow">
          -322 -33 callgsubr
          hstem
          47 167 vstem
          214 -144 -100 callsubr
        </CharString>
        <CharString name="dotlessi">
          21 -21 430 -20 hstem
          0 callgsubr
          endchar
        </CharString>
        <CharString name="dotlessj">
          -285 -147 -21 598 -61 callsubr
          -34 callsubr
          -12 -50 callgsubr
          40 hvcurveto
          endchar
        </CharString>
        <CharString name="e">
          -64 callgsubr
          -29 callsubr
          hintmask 01111100
          -104 callsubr
          hintmask 10111100
          -103 callgsubr
          endchar
        </CharString>
        <CharString name="e_t">
          336 -8 77 -77 5 callsubr
          116 78 -11 -20 30 -20 184 83 9 callgsubr
          117 83 -60 60 -60 180 52 201 -58 155 hintmask 1010101110001000
          411 499 rmoveto
          78 107 27 73 71 64 -24 -48 -55 -94 -33 -48 -10 vhcurveto
          -15 -4 rlineto
          hintmask 1011001110010000
          -15 -67 rlineto
          78 hlineto
          -41 -199 rlineto
          -6 -29 -2 -27 -16 vvcurveto
          -88 66 -12 67 6 callsubr
          hintmask 1010101110001000
          13 67 rlineto
          -77 hlineto
          20 93 rlineto
          5 22 4 20 15 vvcurveto
          96 49 callgsubr
          vhcurveto
          hintmask 1010011110010000
          -39 12 -18 25 -13 vhcurveto
          hintmask 0111001100110000
          -13 -4 1 -22 hhcurveto
          -238 -77 -128 -129 -148 101 -44 135 74 92 13 34 52 hvcurveto
          26 107 rlineto
          -164 hlineto
          -54 -16 -42 -32 -26 hhcurveto
          -29 -3 40 24 20 2 28 5 29 hvcurveto
          281 hlineto
          21 29 11 47 35 vvcurveto
          hintmask 1011001110010000
          112 -120 -8 83 vvcurveto
          hintmask 1011001101010000
          -60 -179 -94 callgsubr
          endchar
        </CharString>
        <CharString name="eacute">
          -64 callgsubr
          194 -20 -29 callsubr
          hintmask 01111110
          -104 callsubr
          hintmask 10111110
          -103 callgsubr
          19 169 -103 callsubr
        </CharString>
        <CharString name="ebreve">
          -64 callgsubr
          48 82 79 -20 -29 callsubr
          hintmask 01111111
          -104 callsubr
          hintmask 10111111
          -103 callgsubr
          -19 169 -104 callgsubr
        </CharString>
        <CharString name="ecaron">
          -64 callgsubr
          194 -20 -29 callsubr
          hintmask 01111110
          -104 callsubr
          hintmask 10111110
          -103 callgsubr
          129 315 -102 callsubr
        </CharString>
        <CharString name="ecircumflex">
          -64 callgsubr
          194 -20 -29 callsubr
          hintmask 01111110
          -104 callsubr
          hintmask 10111110
          -103 callgsubr
          -109 169 -105 callgsubr
        </CharString>
        <CharString name="edieresis">
          -64 callgsubr
          37 153 9 callgsubr
          -37 152 25 180 -145 145 hintmask 0111110100000000
          -104 callsubr
          hintmask 1011110100000000
          -103 callgsubr
          -95 311 rmoveto
          hintmask 1011101010000000
          -105 callsubr
        </CharString>
        <CharString name="edotaccent">
          -64 callgsubr
          27 171 9 callgsubr
          30 205 -95 180 hintmask 01111101
          -104 callsubr
          hintmask 10111101
          -103 callgsubr
          hintmask 10111110
          95 241 -96 callgsubr
        </CharString>
        <CharString name="edotbelow">
          -32 -33 callgsubr
          73 -54 callgsubr
          9 callgsubr
          -78 167 51 180 hintmask 10111101
          -104 callsubr
          hintmask 11011101
          -103 callgsubr
          hintmask 11011011
          -51 -464 -100 callsubr
        </CharString>
        <CharString name="egrave">
          -64 callgsubr
          194 -20 -29 callsubr
          hintmask 01111110
          -104 callsubr
          hintmask 10111110
          -103 callgsubr
          -36 169 -81 callsubr
        </CharString>
        <CharString name="eight">
          41 -8 69 240 69 206 68 hstemhm
          24 214 -153 194 77 218 -178 192 hintmask 11110100
          269 -8 rmoveto
          191 114 91 115 73 -44 51 -61 15 hvcurveto
          hintmask 11101010
          36 9 83 37 101 vvcurveto
          70 -41 90 -180 -144 -138 -59 -124 -64 37 -39 43 -14 vhcurveto
          hintmask 11110100
          -103 -34 -38 -62 -77 vvcurveto
          -113 83 -66 162 vhcurveto
          51 378 rmoveto
          hintmask 11101100
          -37 -4 36 31 60 22 79 55 hvcurveto
          hintmask 11110010
          37 3 -35 -30 -58 -20 -83 -56 hvcurveto
          -38 -309 rmoveto
          -35 -9 39 41 68 23 92 56 hvcurveto
          hintmask 11110100
          34 5 -33 -40 -71 -17 -96 -57 hvcurveto
          endchar
        </CharString>
        <CharString name="eightinferior">
          -302 -8 38 76 49 63 38 hstemhm
          -19 43 callsubr
          hintmask 11101100
          90 -8 -76 callgsubr
          hintmask 11110100
          -32 callsubr
          hintmask 11101100
          20 callsubr
          hvcurveto
          hintmask 11110010
          -22 callgsubr
          -13 -4 16 16 19 9 25 23 hvcurveto
          hintmask 11110100
          14 2 -12 -17 -20 -7 -27 -24 hvcurveto
          endchar
        </CharString>
        <CharString name="eightsuperior">
          -303 380 38 77 48 63 38 hstemhm
          61 43 callsubr
          hintmask 11101100
          170 380 rmoveto
          84 51 37 46 29 -18 21 -25 7 hvcurveto
          14 3 34 16 40 vvcurveto
          28 -19 37 -81 -64 -61 -25 -50 -25 16 -16 17 -5 vhcurveto
          hintmask 11110100
          -41 -15 -16 -25 -30 vvcurveto
          -47 37 -26 72 vhcurveto
          21 163 rmoveto
          hintmask 11101100
          -15 -2 16 11 16 10 20 22 hvcurveto
          hintmask 11110010
          15 1 -14 -12 -16 -9 -21 -22 hvcurveto
          -16 -125 rmoveto
          -13 -4 16 16 19 9 26 23 hvcurveto
          hintmask 11110100
          14 2 -13 -17 -20 -7 -27 -24 hvcurveto
          endchar
        </CharString>
        <CharString name="ellipsis">
          331 -8 181 hstem
          0 203 115 203 115 203 cntrmask 01110000
          203 88 -21 callsubr
          318 hmoveto
          58 -41 27 -54 -56 -52 -3 callsubr
          318 hmoveto
          58 -41 27 -54 -56 -52 -34 -62 -58 41 -27 51 57 54 35 61 vhcurveto
          endchar
        </CharString>
        <CharString name="emacron">
          -64 callgsubr
          85 77 -29 callsubr
          hintmask 01111110
          -104 callsubr
          hintmask 10111110
          -103 callgsubr
          -173 206 -69 callsubr
        </CharString>
        <CharString name="emdash">
          295 165 91 hstem
          29 165 rmoveto
          775 hlineto
          20 91 rlineto
          -774 hlineto
          endchar
        </CharString>
        <CharString name="endash">
          21 165 91 hstem
          29 165 rmoveto
          501 hlineto
          20 91 rlineto
          -500 hlineto
          endchar
        </CharString>
        <CharString name="eng">
          7 -147 -21 189 29 callsubr
          12 callsubr
          hintmask 11101000
          262 366 rmoveto
          -18 64 rlineto
          -163 hlineto
          -91 -430 -79 callgsubr
          66 311 rlineto
          12 12 34 callgsubr
          10 -14 -20 hvcurveto
          -1 -15 -4 -19 -3 -17 -55 -261 rcurveline
          -34 callsubr
          -11 -69 rlineto
          131 137 19 186 39 hvcurveto
          33 158 -12 callsubr
          68 35 vvcurveto
          hintmask 11011000
          61 -50 38 -71 -99 -70 -75 0 vhcurveto
          endchar
        </CharString>
        <CharString name="eogonek">
          -32 -204 66 130 68 141 46 126 68 9 callgsubr
          -32 128 44 180 hintmask 11111010
          499 201 rmoveto
          21 29 11 47 36 vvcurveto
          89 -70 39 -133 -243 -74 -130 -126 -149 102 -44 135 8 9 0 1 9 vhcurveto
          hintmask 11110110
          -48 -24 -47 -37 -63 vvcurveto
          -49 28 -24 58 50 58 17 33 40 vhcurveto
          -23 42 rlineto
          -20 -24 -16 -6 -12 hhcurveto
          -17 -14 12 25 54 62 45 40 16 hvcurveto
          19 7 27 12 10 6 26 107 rcurveline
          -164 hlineto
          -51 -15 -41 -35 -28 hhcurveto
          hintmask 11111010
          -29 -3 40 24 20 -95 callgsubr
          endchar
        </CharString>
        <CharString name="equal">
          -166 162 75 93 75 hstem
          27 162 rmoveto
          316 hlineto
          16 75 rlineto
          -315 hlineto
          19 93 rmoveto
          317 hlineto
          15 75 rlineto
          -315 hlineto
          endchar
        </CharString>
        <CharString name="eth">
          39 -8 68 236 121 255 -20 hstem
          12 196 206 192 vstem
          289 468 rmoveto
          124 14 rlineto
          1 -8 0 -8 -9 vvcurveto
          -40 -4 -39 -18 -38 vhcurveto
          -11 hlineto
          66 -18 -90 11 -46 hhcurveto
          -195 -20 -186 -58 -100 61 -81 164 235 134 170 196 50 -9 49 -17 45 hvcurveto
          92 11 -10 75 -121 -14 -33 45 -45 35 -56 18 rlinecurve
          -71 -28 30 -20 22 -26 13 -41 rlinecurve
          -126 -14 rlineto
          -27 -483 rmoveto
          -29 -11 23 38 60 27 115 71 27 5 -17 -33 -78 -27 -108 -63 hvcurveto
          endchar
        </CharString>
        <CharString name="etilde">
          -64 callgsubr
          65 101 -64 97 -29 callsubr
          hintmask 01111011
          -104 callsubr
          hintmask 10110111
          -103 callgsubr
          167 320 rmoveto
          hintmask 10111011
          -52 callgsubr
          hintmask 10110111
          -95 callsubr
          hintmask 10111011
          -82 callgsubr
        </CharString>
        <CharString name="exclam">
          -285 -8 160 520 -20 hstem
          21 192 vstem
          66 201 rmoveto
          142 hlineto
          128 471 rlineto
          -204 hlineto
          -111 -607 rmoveto
          -49 39 -24 49 55 49 30 57 49 -39 24 -49 -53 -51 -30 -57 vhcurveto
          endchar
        </CharString>
        <CharString name="exclamdown">
          -283 -8 callsubr
          520 160 hstem
          80 192 vstem
          227 303 rmoveto
          -142 hlineto
          -128 -471 -79 callgsubr
          111 607 rmoveto
          49 -39 24 -49 -55 -49 -30 -57 -49 39 -24 49 53 51 30 57 vhcurveto
          endchar
        </CharString>
        <CharString name="f">
          -175 30 callgsubr
          168 91 hstem
          32 10 callgsubr
          78 -73 callgsubr
          77 13 callgsubr
          106 hlineto
          13 67 rlineto
          -105 -40 callsubr
          -134 -102 -58 -160 -34 38 callgsubr
        </CharString>
        <CharString name="f_b">
          380 -8 97 -68 -21 341 96 -74 74 -7 -20 188 91 -17 -20 hstemhm
          724 208 hintmask 10010011
          571 65 rmoveto
          7 hlineto
          -38 20 64 -35 73 -30 callsubr
          -54 -59 -21 -50 -44 hvcurveto
          -8 44 callsubr
          -141 hlineto
          hintmask 10001101
          -24 callgsubr
          hintmask 01010101
          -15 -67 rlineto
          78 -73 callgsubr
          76 13 callgsubr
          86 hlineto
          hintmask 01001101
          13 -57 callsubr
          23 15 -4 -8 20 hvcurveto
          -124 -586 rlineto
          162 hlineto
          hintmask 10100101
          113 89 rmoveto
          -21 -16 18 16 -9 hvcurveto
          39 179 rlineto
          13 10 25 26 27 -35 callgsubr
        </CharString>
        <CharString name="f_f">
          155 30 callgsubr
          144 91 -67 91 -22 callsubr
          106 hlineto
          13 67 rlineto
          -105 39 callsubr
          26 12 53 hhcurveto
          20 37 -2 -4 29 hvcurveto
          17 80 rlineto
          12 -52 -47 5 -41 hhcurveto
          -65 -58 -14 -33 -46 hvcurveto
          hintmask 11100000
          14 -47 -56 9 -56 -57 callgsubr
          21 25 -3 -6 23 hvcurveto
          -15 -26 -11 -32 8 callgsubr
        </CharString>
        <CharString name="f_f_b">
          712 0 89 -76 -21 349 96 36 callsubr
          1056 208 hintmask 1001010010000000
          32 10 callgsubr
          78 -73 callgsubr
          77 13 callgsubr
          128 -73 callgsubr
          76 13 callgsubr
          85 hlineto
          hintmask 1000101010000000
          14 -57 callsubr
          22 15 -4 -8 20 hvcurveto
          -123 -586 rlineto
          161 hlineto
          46 65 rlineto
          7 hlineto
          hintmask 0110000110000000
          -38 20 64 -35 72 hhcurveto
          182 16 255 55 76 -30 59 -92 -55 -58 -21 -50 -45 hvcurveto
          -7 44 callsubr
          -142 hlineto
          hintmask 1010001010000000
          39 callgsubr
          -73 -62 -16 -33 -49 hvcurveto
          hintmask 1000110010000000
          15 -47 -57 10 -58 hhcurveto
          -146 -99 -58 -160 -33 hvcurveto
          -4 -17 rlineto
          -77 hlineto
          hintmask 1001010010000000
          924 -341 rmoveto
          -21 -16 18 16 -9 hvcurveto
          38 179 rlineto
          hintmask 1010010010000000
          13 11 25 26 26 hhcurveto
          23 8 -20 -26 -46 -22 -160 -63 hvcurveto
          -629 407 rmoveto
          62 13 24 16 50 hhcurveto
          21 26 -3 -6 23 hvcurveto
          -15 -27 -10 -31 -9 -36 rrcurveto
          hintmask 1000110010000000
          -10 -41 rlineto
          -127 hlineto
          endchar
        </CharString>
        <CharString name="f_f_h">
          715 21 -21 346 91 36 callsubr
          1058 208 hintmask 10101001
          32 10 callgsubr
          78 -73 callgsubr
          77 13 callgsubr
          129 -73 callgsubr
          76 13 callgsubr
          85 hlineto
          hintmask 10010101
          14 -57 callsubr
          20 21 -3 -6 18 hvcurveto
          -124 -589 -5 callgsubr
          67 310 rlineto
          hintmask 11000011
          -18 callgsubr
          61 -52 38 -68 -95 -64 -71 0 vhcurveto
          -8 44 callsubr
          -143 hlineto
          hintmask 11000101
          39 callgsubr
          -74 -61 -16 -33 -47 hvcurveto
          hintmask 10011001
          15 -48 -58 10 -59 hhcurveto
          -147 -97 -58 -160 -34 hvcurveto
          -4 -17 rlineto
          -77 hlineto
          hintmask 10101001
          295 66 rmoveto
          62 13 24 16 50 hhcurveto
          22 28 -3 -7 23 hvcurveto
          -16 -26 -11 -31 -9 -36 rrcurveto
          hintmask 10011001
          -10 -41 rlineto
          -128 hlineto
          endchar
        </CharString>
        <CharString name="f_f_i">
          417 30 callgsubr
          153 82 -82 106 hstemhm
          hintmask 11010000
          -10 callgsubr
          125 -73 callgsubr
          92 -31 callsubr
          -330 -9 callgsubr
          hintmask 11100000
          15 -48 -60 11 -60 -57 callgsubr
          22 26 -3 -6 24 hvcurveto
          -17 -27 -12 -31 8 callgsubr
        </CharString>
        <CharString name="f_f_j">
          416 38 callsubr
          363 67 153 82 -82 106 hstemhm
          hintmask 11101000
          -10 callgsubr
          124 42 callgsubr
          -12 -69 rlineto
          131 137 19 186 40 hvcurveto
          84 393 rlineto
          -329 -9 callgsubr
          hintmask 11110000
          15 -48 -60 11 -60 -57 callgsubr
          22 26 -3 -6 24 hvcurveto
          -17 -27 -12 -31 8 callgsubr
        </CharString>
        <CharString name="f_f_k">
          709 30 callgsubr
          144 91 -67 91 -17 -20 hstemhm
          hintmask 11010000
          32 10 callgsubr
          78 -73 callgsubr
          77 13 callgsubr
          128 -73 callgsubr
          76 13 callgsubr
          85 hlineto
          14 -57 callsubr
          22 15 -4 -8 20 hvcurveto
          -124 -586 -9 callsubr
          hintmask 11001000
          90 424 rlineto
          -142 hlineto
          hintmask 11010000
          39 callgsubr
          -74 -61 -16 -33 -47 hvcurveto
          hintmask 11100000
          15 -48 -58 10 -58 hhcurveto
          -146 -99 -58 -160 -33 hvcurveto
          -4 -17 rlineto
          -77 hlineto
          295 66 rmoveto
          62 12 26 16 49 hhcurveto
          22 27 -4 -6 23 hvcurveto
          -15 -26 -13 -31 -8 -36 -10 -41 rcurveline
          -127 hlineto
          endchar
        </CharString>
        <CharString name="f_f_l">
          419 30 callgsubr
          144 91 -67 91 -17 -20 -22 callsubr
          85 hlineto
          13 -57 callsubr
          23 15 -4 -8 20 hvcurveto
          -124 -586 -79 callgsubr
          hintmask 11001000
          144 672 rlineto
          -143 hlineto
          hintmask 11010000
          12 -52 -54 5 -42 hhcurveto
          -73 -62 -15 -33 -49 hvcurveto
          hintmask 11100000
          14 -47 -58 10 -57 -57 callgsubr
          22 25 -3 -6 23 hvcurveto
          -16 -26 -11 -32 8 callgsubr
        </CharString>
        <CharString name="f_f_t">
          451 0 69 -56 -21 371 67 -67 201 10 91 -67 91 hstemhm
          698 202 hintmask 10101010
          314 10 callgsubr
          105 -73 callgsubr
          77 13 callgsubr
          32 callgsubr
          hintmask 01101010
          40 callgsubr
          vhcurveto
          hintmask 10101010
          38 8 callsubr
          hvcurveto
          -62 callgsubr
          41 9 callsubr
          79 hlineto
          13 67 rlineto
          -78 hlineto
          hintmask 10011010
          -27 callgsubr
          hintmask 10100110
          -86 -67 -39 -48 -102 hhcurveto
          -47 -40 callsubr
          -63 -56 -13 -30 -45 hvcurveto
          hintmask 10101010
          12 -43 -49 7 -50 hhcurveto
          -146 -99 -58 -160 -33 hvcurveto
          -3 -17 rlineto
          -78 hlineto
          -15 -67 rlineto
          78 -73 callgsubr
          105 496 rmoveto
          62 12 26 16 49 hhcurveto
          15 17 -2 -3 17 hvcurveto
          -16 -27 -12 -33 -8 -38 -9 -41 rcurveline
          -105 hlineto
          endchar
        </CharString>
        <CharString name="f_h">
          382 21 -21 346 84 -67 67 7 -20 181 91 -17 -20 hstemhm
          725 208 hintmask 11000110
          711 672 rmoveto
          -142 hlineto
          hintmask 11001010
          -24 callgsubr
          hintmask 10101010
          -17 callgsubr
          20 21 -3 -6 18 hvcurveto
          -124 -589 -79 callgsubr
          66 310 rlineto
          hintmask 11001010
          13 11 24 23 25 hhcurveto
          20 10 -14 -21 -7 -1 -8 -7 -35 hvcurveto
          -55 -261 -5 callgsubr
          42 195 -12 callsubr
          63 36 vvcurveto
          hintmask 10010110
          61 -51 38 -69 -95 -64 -71 0 vhcurveto
          -8 hlineto
          endchar
        </CharString>
        <CharString name="f_i">
          86 30 callgsubr
          153 106 hstem
          -56 callgsubr
          78 13 callgsubr
          125 -73 callgsubr
          92 -31 callsubr
          -330 -32 callgsubr
        </CharString>
        <CharString name="f_j">
          87 38 callsubr
          363 67 153 106 hstem
          -56 callgsubr
          78 13 callgsubr
          126 42 callgsubr
          -11 -50 callgsubr
          39 hvcurveto
          84 393 rlineto
          -331 -32 callgsubr
        </CharString>
        <CharString name="f_k">
          378 30 callgsubr
          168 91 -17 -20 hstemhm
          hintmask 11010000
          711 672 rmoveto
          -142 hlineto
          hintmask 11100000
          -24 callgsubr
          -17 callgsubr
          23 15 -4 -8 20 hvcurveto
          -124 -586 -53 callgsubr
        </CharString>
        <CharString name="f_l">
          88 30 callgsubr
          168 91 -17 -20 hstemhm
          hintmask 11100000
          -56 callgsubr
          77 13 callgsubr
          85 hlineto
          14 67 rlineto
          -84 hlineto
          19 90 rlineto
          66 13 30 12 40 hhcurveto
          23 14 -4 -8 20 hvcurveto
          -124 -586 -79 callgsubr
          hintmask 11010000
          144 672 rlineto
          -143 hlineto
          hintmask 11100000
          39 callgsubr
          -151 -104 -65 -153 -33 38 callgsubr
        </CharString>
        <CharString name="f_t">
          142 -8 77 -48 47 callsubr
          -67 201 34 91 hstemhm
          389 202 hintmask 10101100
          314 10 callgsubr
          32 callgsubr
          40 callgsubr
          vhcurveto
          hintmask 01101100
          38 8 callsubr
          hvcurveto
          hintmask 10101100
          -62 callgsubr
          41 9 callsubr
          79 hlineto
          13 67 rlineto
          -78 hlineto
          hintmask 10011100
          -27 callgsubr
          hintmask 01101100
          -86 -67 -39 -48 -102 hhcurveto
          -47 -40 callsubr
          -134 -102 -58 -160 -34 hvcurveto
          -9 -41 rlineto
          -77 hlineto
          -15 -67 rlineto
          78 -73 callgsubr
          endchar
        </CharString>
        <CharString name="five">
          -16 -8 70 -70 223 139 83 60 138 hstemhm
          184 143 0 209 hintmask 10111000
          545 -58 callsubr
          -408 hlineto
          -72 -335 rlineto
          123 hlineto
          42 25 28 12 24 hhcurveto
          49 13 -48 -54 -76 -25 -114 -68 -32 -18 26 66 hvcurveto
          hintmask 01110100
          32 2 9 2 20 vhcurveto
          -158 hlineto
          -29 -139 rlineto
          -68 71 63 -16 78 hhcurveto
          200 123 108 144 92 -51 101 -159 -51 -35 -11 -15 -30 hvcurveto
          17 86 rlineto
          289 hlineto
          endchar
        </CharString>
        <CharString name="fiveeighths">
          133 12 callgsubr
          124 13 callsubr
          157 52 0 99 93 97 -73 89 48 83 hintmask 1011101001001100
          216 -80 callgsubr
          hintmask 0111101001001100
          404 -8 -76 callgsubr
          hintmask 0111101001010100
          -32 callsubr
          hintmask 1011101001001100
          20 callsubr
          -22 callgsubr
          hintmask 1011101001010100
          -16 callgsubr
          -203 605 22 callsubr
          hintmask 1011100111001100
          -24 callsubr
          hintmask 1011011010101100
          -61 callgsubr
        </CharString>
        <CharString name="fiveinferior">
          -317 -8 13 callsubr
          64 52 0 99 hintmask 10100100
          219 247 22 callsubr
          hintmask 10011100
          -24 callsubr
          hintmask 01101010
          -61 callgsubr
        </CharString>
        <CharString name="fivesuperior">
          -317 380 13 callsubr
          145 52 0 99 hintmask 10100100
          300 635 22 callsubr
          hintmask 10011100
          -24 callsubr
          hintmask 01101010
          -61 callgsubr
        </CharString>
        <CharString name="florin">
          -72 -168 69 462 67 168 91 hstem
          70 10 callgsubr
          78 hlineto
          -77 -363 rlineto
          -90 -19 -45 -9 -92 hhcurveto
          -13 -69 rlineto
          162 179 19 186 40 hvcurveto
          70 326 rlineto
          105 hlineto
          13 67 rlineto
          -106 hlineto
          20 90 rlineto
          66 15 25 12 51 hhcurveto
          21 38 -2 -4 29 hvcurveto
          16 80 rlineto
          12 -51 -47 5 -40 hhcurveto
          -135 -99 -59 -159 -37 hvcurveto
          -10 -41 rlineto
          -76 hlineto
          endchar
        </CharString>
        <CharString name="four">
          28 0 244 -84 84 391 -20 hstemhm
          hintmask 01100000
          477 160 rmoveto
          91 hlineto
          18 84 rlineto
          -91 hlineto
          85 391 rlineto
          -258 hlineto
          -298 -358 -25 -117 rlineto
          261 hlineto
          hintmask 10100000
          -33 -160 rlineto
          -26 callgsubr
          hintmask 01100000
          -327 244 rmoveto
          222 278 -60 -278 rlineto
          endchar
        </CharString>
        <CharString name="fourinferior">
          -309 0 28 callsubr
          hstemhm
          hintmask 01000000
          178 64 -39 callgsubr
        </CharString>
        <CharString name="foursuperior">
          -309 380 28 callsubr
          hstemhm
          hintmask 01000000
          259 444 -39 callgsubr
        </CharString>
        <CharString name="fraction">
          -479 -6 callsubr
          -83 -80 callgsubr
          endchar
        </CharString>
        <CharString name="g">
          -3 callgsubr
          hstemhm
          9 202 hintmask 11101000
          -88 callsubr
          -42 callsubr
          hintmask 11011000
          14 callsubr
          hintmask 11101000
          -75 callsubr
          endchar
        </CharString>
        <CharString name="gbreve">
          -3 callgsubr
          79 82 79 -20 hstemhm
          9 202 hintmask 11101110
          -88 callsubr
          -42 callsubr
          hintmask 11011110
          14 callsubr
          hintmask 11101110
          -75 callsubr
          70 146 -104 callgsubr
        </CharString>
        <CharString name="gcircumflex">
          -3 callgsubr
          225 -20 hstemhm
          9 202 hintmask 11101100
          -88 callsubr
          -42 callsubr
          hintmask 11011100
          14 callsubr
          hintmask 11101100
          -75 callsubr
          -25 146 -105 callgsubr
        </CharString>
        <CharString name="gcommaaccent">
          -1 -168 71 0 97 0 94 0 249 0 98 -11 -20 31 37 222 -20 hstemhm
          9 202 74 106 -106 146 hintmask 0100100111000000
          -88 callsubr
          hintmask 1010011111000000
          -42 callsubr
          14 callsubr
          hintmask 1001011110100000
          -75 callsubr
          -11 200 rmoveto
          -44 28 -21 38 43 37 27 46 vhcurveto
          hintmask 1010100110100000
          -27 18 -13 17 17 vvcurveto
          21 19 21 33 25 vhcurveto
          -21 30 rlineto
          -63 -27 -74 -60 -70 vvcurveto
          endchar
        </CharString>
        <CharString name="gdotaccent">
          -3 callgsubr
          58 171 hstemhm
          9 202 76 205 hintmask 11101110
          -88 callsubr
          -42 callsubr
          hintmask 11011110
          14 callsubr
          hintmask 11101110
          -75 callsubr
          196 218 -96 callgsubr
        </CharString>
        <CharString name="germandbls">
          81 0 58 -45 -21 606 86 hstemhm
          304 174 -32 180 -180 193 hintmask 10101000
          626 152 rmoveto
          hintmask 10110000
          130 -148 28 59 vvcurveto
          hintmask 10100100
          60 161 29 102 vvcurveto
          95 -144 29 -116 -152 -103 -49 -164 -35 vhcurveto
          -99 -471 -5 callgsubr
          hintmask 10110000
          111 520 rlineto
          54 11 23 24 45 hhcurveto
          hintmask 10101000
          52 11 -31 -30 hvcurveto
          hintmask 10110000
          -107 -142 15 -131 vvcurveto
          -34 9 -37 39 -37 vhcurveto
          38 -36 52 -22 -39 vvcurveto
          -31 -33 -20 -33 -34 -30 22 17 -14 vhcurveto
          -44 -54 rlineto
          hintmask 01101000
          -24 30 31 -27 87 hhcurveto
          122 102 53 107 hvcurveto
          endchar
        </CharString>
        <CharString name="grave">
          -275 28 callgsubr
          211 489 -81 callsubr
        </CharString>
        <CharString name="greater">
          -183 130 -21 414 -20 hstem
          257 316 rmoveto
          -236 -207 rlineto
          118 hlineto
          246 207 -169 207 rlineto
          -118 hlineto
          endchar
        </CharString>
        <CharString name="guillemotleft">
          11 15 callgsubr
          152 -37 callsubr
          169 -37 callsubr
          endchar
        </CharString>
        <CharString name="guillemotright">
          9 15 callgsubr
          153 215 16 callgsubr
          362 -215 16 callgsubr
          endchar
        </CharString>
        <CharString name="guilsinglleft">
          -255 15 callgsubr
          152 -37 callsubr
          endchar
        </CharString>
        <CharString name="guilsinglright">
          -257 15 callgsubr
          153 215 rmoveto
          -175 -215 rlineto
          119 hlineto
          197 215 -118 215 rlineto
          -121 hlineto
          endchar
        </CharString>
        <CharString name="h">
          7 21 -21 346 91 235 -20 hstem
          46 callsubr
          -16 callsubr
          66 310 rlineto
          13 -65 callsubr
          63 36 vvcurveto
          61 -51 38 -69 -95 -64 -71 0 vhcurveto
          -7 hlineto
          endchar
        </CharString>
        <CharString name="hbar">
          7 21 -21 346 91 61 76 -76 174 12 callsubr
          hintmask 11011000
          337 672 -55 callsubr
          hintmask 11101000
          -21 -98 rlineto
          -91 hlineto
          -19 -76 rlineto
          94 hlineto
          -105 -498 -79 callgsubr
          66 310 rlineto
          13 -65 callsubr
          63 36 vvcurveto
          61 -51 38 -69 -95 -64 -71 0 vhcurveto
          -7 hlineto
          28 132 rlineto
          71 hlineto
          18 76 rlineto
          -73 hlineto
          endchar
        </CharString>
        <CharString name="hcircumflex">
          7 21 -21 346 91 52 183 -37 -20 12 callsubr
          hintmask 11101000
          -65 callgsubr
          66 310 rlineto
          13 -65 callsubr
          63 36 vvcurveto
          61 -51 38 -69 -95 -64 -71 0 vhcurveto
          -7 hlineto
          127 123 rmoveto
          133 93 83 -93 0 callsubr
          hintmask 11011000
          -83 146 rlineto
          -2 callsubr
          hintmask 11101000
          -146 -46 callgsubr
        </CharString>
        <CharString name="hdotbelow">
          7 -33 callgsubr
          102 -21 346 91 235 -20 hstem
          131 167 52 208 -16 callsubr
          66 310 rlineto
          13 -65 callsubr
          63 36 vvcurveto
          61 -51 38 -69 -95 -64 -71 0 vhcurveto
          -7 hlineto
          26 -510 -100 callsubr
        </CharString>
        <CharString name="hungarumlaut">
          13 489 146 hstem
          123 489 -77 callsubr
        </CharString>
        <CharString name="hyphen">
          17 callgsubr
        </CharString>
        <CharString name="i">
          -39 callsubr
          58 171 hstem
          107 205 vstem
          286 430 rmoveto
          -205 hlineto
          -91 -430 rlineto
          203 -37 callgsubr
          endchar
        </CharString>
        <CharString name="iacute">
          -39 callsubr
          225 -20 hstem
          0 callgsubr
          22 489 -103 callsubr
        </CharString>
        <CharString name="ibreve">
          -39 callsubr
          79 82 79 -20 hstem
          0 callgsubr
          4 489 -104 callgsubr
        </CharString>
        <CharString name="icircumflex">
          -39 callsubr
          225 -20 hstem
          0 callgsubr
          -93 489 -105 callgsubr
        </CharString>
        <CharString name="idieresis">
          -39 callsubr
          68 153 hstem
          27 29 callgsubr
          0 callgsubr
          -84 631 rmoveto
          -105 callsubr
        </CharString>
        <CharString name="idotbelow">
          -33 callgsubr
          102 -41 callsubr
          58 171 hstemhm
          -20 167 -40 205 hintmask 11111000
          147 -144 -97 callgsubr
          hintmask 11110100
          165 705 -101 callsubr
          -26 -131 -75 callgsubr
          203 hlineto
          endchar
        </CharString>
        <CharString name="igrave">
          -39 callsubr
          225 -20 hstem
          0 callgsubr
          -50 489 -81 callsubr
        </CharString>
        <CharString name="ij">
          1 36 callgsubr
          hstem
          107 205 79 205 vstem
          286 430 rmoveto
          -205 hlineto
          -91 -430 rlineto
          203 -37 callgsubr
          260 -131 -81 callgsubr
        </CharString>
        <CharString name="imacron">
          -39 callsubr
          116 77 hstem
          0 callgsubr
          -170 526 -69 callsubr
        </CharString>
        <CharString name="iogonek">
          -204 66 159 -41 callsubr
          58 171 hstem
          -63 128 42 -1 callsubr
          58 hlineto
          -52 -22 -59 -40 -68 -98 callsubr
          43 42 34 36 23 hvcurveto
          50 -37 callgsubr
          endchar
        </CharString>
        <CharString name="itilde">
          -39 callsubr
          96 6 callgsubr
          hintmask 11010000
          0 callgsubr
          200 640 -84 callgsubr
        </CharString>
        <CharString name="j">
          -285 3 callsubr
          58 171 hstem
          105 205 vstem
          286 430 -81 callgsubr
        </CharString>
        <CharString name="jcircumflex">
          -285 3 callsubr
          225 -61 callsubr
          -34 callsubr
          -12 -50 callgsubr
          40 hvcurveto
          -106 452 -105 callgsubr
        </CharString>
        <CharString name="k">
          20 -39 callsubr
          262 -20 hstem
          337 672 rmoveto
          -205 hlineto
          -142 -672 -53 callgsubr
        </CharString>
        <CharString name="kcommaaccent">
          20 -31 callgsubr
          62 -11 callgsubr
          262 -20 hstemhm
          166 146 vstemhm
          337 672 rmoveto
          -205 hlineto
          -142 -672 -9 callsubr
          65 -375 -72 callsubr
          hintmask 11111000
          -93 callgsubr
        </CharString>
        <CharString name="kgreenlandic">
          4 21 -21 430 -20 hstem
          286 430 rmoveto
          -205 hlineto
          -91 -430 -53 callgsubr
        </CharString>
        <CharString name="l">
          21 -21 672 19 callsubr
          endchar
        </CharString>
        <CharString name="lacute">
          21 -21 672 -20 213 19 callsubr
          65 719 -103 callsubr
        </CharString>
        <CharString name="lcaron">
          -186 21 -21 651 -20 41 -20 hstem
          353 170 -16 callsubr
          144 423 -83 callgsubr
        </CharString>
        <CharString name="lcommaaccent">
          -31 callgsubr
          62 672 -20 hstemhm
          -3 146 vstemhm
          -65 callgsubr
          -51 -127 -72 callsubr
          hintmask 11110000
          -93 callgsubr
        </CharString>
        <CharString name="ldot">
          -107 21 -21 218 171 283 -20 hstem
          290 205 -16 callsubr
          301 311 -96 callgsubr
        </CharString>
        <CharString name="less">
          -182 130 -21 414 -20 hstem
          163 316 rmoveto
          236 207 rlineto
          -117 hlineto
          -247 -207 169 -207 rlineto
          119 hlineto
          endchar
        </CharString>
        <CharString name="logicalnot">
          14 27 229 -91 91 hstemhm
          hintmask 01000000
          23 165 rmoveto
          393 hlineto
          hintmask 10000000
          -32 -138 rlineto
          105 hlineto
          55 229 rlineto
          -500 hlineto
          endchar
        </CharString>
        <CharString name="lslash">
          -180 21 -21 672 -20 hstem
          397 672 -55 callsubr
          -61 -288 -108 -34 -17 -96 105 34 -61 -288 -79 callgsubr
          76 358 107 35 21 96 -107 -35 rlineto
          endchar
        </CharString>
        <CharString name="m">
          282 21 29 callsubr
          hstemhm
          631 202 hintmask 11010000
          262 366 rmoveto
          -18 64 rlineto
          -163 hlineto
          -91 -430 -79 callgsubr
          66 311 rlineto
          12 12 34 callgsubr
          10 -14 -20 -15 -5 -19 -3 -17 hvcurveto
          -55 -261 rlineto
          187 hlineto
          65 310 rlineto
          12 12 24 24 25 hhcurveto
          20 11 -14 -19 -12 -5 -20 -4 -20 hvcurveto
          -54 -261 rlineto
          197 hlineto
          42 9 callsubr
          13 59 13 54 31 vvcurveto
          hintmask 10110000
          59 -48 43 -69 -94 -76 -76 0 vhcurveto
          -6 hlineto
          43 -4 -30 33 -64 hhcurveto
          -106 -68 -75 0 hvcurveto
          endchar
        </CharString>
        <CharString name="macron">
          -153 526 77 hstem
          26 526 -69 callsubr
        </CharString>
        <CharString name="minus">
          -78 273 91 hstem
          51 273 37 callsubr
        </CharString>
        <CharString name="mu">
          9 -8 callsubr
          160 27 callsubr
          hintmask 11010000
          315 -55 callgsubr
        </CharString>
        <CharString name="multiply">
          -68 130 -21 413 -20 hstem
          519 522 rmoveto
          -122 hlineto
          -118 -126 -74 126 rlineto
          -116 hlineto
          118 -203 -195 -210 rlineto
          123 hlineto
          120 129 75 -129 rlineto
          119 hlineto
          -122 206 rlineto
          endchar
        </CharString>
        <CharString name="n">
          -14 callsubr
          12 callsubr
          hintmask 11010000
          -102 callgsubr
          hintmask 10110000
          -43 callsubr
          endchar
        </CharString>
        <CharString name="nacute">
          -14 callsubr
          214 -20 12 callsubr
          hintmask 11011000
          -102 callgsubr
          hintmask 10111000
          -43 callsubr
          79 123 -103 callsubr
        </CharString>
        <CharString name="napostrophe">
          -14 callsubr
          352 -20 hstemhm
          101 170 79 208 hintmask 11011100
          -102 callgsubr
          hintmask 10111100
          -43 callsubr
          -182 179 -83 callgsubr
        </CharString>
        <CharString name="ncaron">
          -14 callsubr
          214 -20 12 callsubr
          hintmask 11011000
          -102 callgsubr
          hintmask 10111000
          -43 callsubr
          190 269 -102 callsubr
        </CharString>
        <CharString name="ncommaaccent">
          7 -31 callgsubr
          62 33 callsubr
          hstemhm
          150 146 54 208 hintmask 11101100
          -102 callgsubr
          hintmask 11011100
          -43 callsubr
          28 -493 -72 callsubr
          hintmask 11101100
          -93 callgsubr
        </CharString>
        <CharString name="ndotaccent">
          -14 callsubr
          47 171 hstemhm
          246 205 -101 208 hintmask 11010100
          -102 callgsubr
          hintmask 10111000
          -43 callsubr
          183 195 -96 callgsubr
        </CharString>
        <CharString name="nine">
          40 -8 68 171 96 249 69 hstemhm
          59 212 132 199 vstemhm
          236 -8 rmoveto
          260 106 201 197 195 -103 60 -146 -160 -134 -73 -175 -97 41 -69 104 59 61 22 43 38 hvcurveto
          10 hlineto
          -167 -26 -49 -69 -44 hhcurveto
          -32 -5 37 33 hvcurveto
          hintmask 11111000
          16 1 16 9 vvcurveto
          -154 hlineto
          -33 -140 rlineto
          -32 55 102 -7 49 hhcurveto
          128 584 rmoveto
          28 11 -24 -35 -59 -30 -131 -71 -26 -5 17 32 73 27 127 66 hvcurveto
          endchar
        </CharString>
        <CharString name="nineinferior">
          -298 -8 73 23 46 85 38 hstem
          -4 99 54 91 vstem
          77 -8 -35 callsubr
          13 14 2 0 3 1 2 hvcurveto
          -78 hlineto
          -13 -56 -7 callgsubr
        </CharString>
        <CharString name="ninesuperior">
          -298 380 74 22 46 85 38 hstem
          77 99 54 91 vstem
          158 380 -35 callsubr
          14 13 2 0 3 1 3 hvcurveto
          -78 hlineto
          -13 -57 -7 callgsubr
        </CharString>
        <CharString name="ntilde">
          -14 callsubr
          85 101 -64 97 12 callsubr
          hintmask 11010100
          -102 callgsubr
          hintmask 10101100
          -43 callsubr
          247 274 rmoveto
          hintmask 11010100
          -52 callgsubr
          hintmask 11001100
          -95 callsubr
          hintmask 11010100
          -82 callgsubr
        </CharString>
        <CharString name="numbersign">
          93 17 232 -92 92 153 91 -91 217 hstemhm
          hintmask 10100000
          67 402 rmoveto
          124 hlineto
          -36 -153 rlineto
          -119 hlineto
          hintmask 01100000
          -21 -92 rlineto
          119 25 callsubr
          159 25 callsubr
          131 hlineto
          20 92 rlineto
          -131 hlineto
          33 153 rlineto
          131 hlineto
          20 91 rlineto
          -132 26 callgsubr
          -165 26 callgsubr
          -124 hlineto
          193 -91 rmoveto
          163 hlineto
          -36 -153 rlineto
          -160 hlineto
          endchar
        </CharString>
        <CharString name="o">
          -20 callsubr
          hstem
          12 200 130 203 vstem
          -107 callsubr
          endchar
        </CharString>
        <CharString name="oacute">
          -20 callsubr
          1 callsubr
          hstem
          12 200 130 203 vstem
          -107 callsubr
          110 429 -103 callsubr
        </CharString>
        <CharString name="obreve">
          -20 callsubr
          48 82 79 -20 hstem
          12 200 130 203 vstem
          -107 callsubr
          92 429 -104 callgsubr
        </CharString>
        <CharString name="ocircumflex">
          -20 callsubr
          1 callsubr
          hstem
          12 200 130 203 vstem
          -107 callsubr
          -18 429 -105 callgsubr
        </CharString>
        <CharString name="odieresis">
          -20 callsubr
          37 153 hstemhm
          12 200 -51 152 29 203 -172 153 hintmask 11110100
          -12 callgsubr
          -86 -65 -16 -33 -49 hvcurveto
          -66 -46 -37 -74 -86 vvcurveto
          -64 20 -51 37 -32 vhcurveto
          -32 36 57 -15 83 hhcurveto
          97 72 21 43 51 hvcurveto
          51 44 29 70 83 vvcurveto
          67 -19 50 -38 29 vhcurveto
          28 -36 -58 14 -79 hhcurveto
          -68 -381 rmoveto
          -25 -10 23 42 hvcurveto
          hintmask 11101100
          -78 callsubr
          vhcurveto
          -4 571 15 callsubr
          hintmask 11110010
          -53 -29 -41 -42 -39 22 -31 49 53 29 40 43 39 -22 31 -49 hvcurveto
          endchar
        </CharString>
        <CharString name="odotbelow">
          -4 -33 callgsubr
          73 68 313 68 hstemhm
          12 200 -94 167 57 203 hintmask 11110100
          -107 callsubr
          hintmask 11101100
          38 -204 -100 callsubr
        </CharString>
        <CharString name="oe">
          339 -8 -54 callgsubr
          41 callgsubr
          131 241 140 180 hintmask 10111110
          313 441 rmoveto
          -86 -64 -16 -33 -49 hvcurveto
          -66 -46 -37 -74 -86 vvcurveto
          -64 20 -51 37 -32 vhcurveto
          -32 35 58 -15 83 hhcurveto
          83 65 15 32 49 hvcurveto
          -35 43 63 -12 72 hhcurveto
          73 92 13 34 52 hvcurveto
          hintmask 01111110
          26 107 rlineto
          -164 hlineto
          hintmask 10111110
          -54 -16 -43 -32 -23 hhcurveto
          -31 -3 38 25 21 2 28 5 29 hvcurveto
          281 hlineto
          21 29 11 47 36 vvcurveto
          88 -69 40 -132 -92 -67 -18 -29 -49 vhcurveto
          -2 1 -2 2 -2 2 rrcurveto
          28 -36 -58 14 -80 hhcurveto
          -67 -381 rmoveto
          -25 -11 23 42 70 29 178 72 24 6 -20 -37 -84 -28 -172 -67 hvcurveto
          476 260 -94 callgsubr
          endchar
        </CharString>
        <CharString name="ogonek">
          -328 -204 66 -66 218 hstemhm
          15 128 hintmask 10100000
          164 14 rmoveto
          -57 -19 -92 -40 -85 -98 callsubr
          hvcurveto
          hintmask 01100000
          52 64 40 38 22 vhcurveto
          endchar
        </CharString>
        <CharString name="ograve">
          -20 callsubr
          1 callsubr
          hstem
          12 200 130 203 vstem
          -107 callsubr
          38 429 -81 callsubr
        </CharString>
        <CharString name="ohungarumlaut">
          -20 callsubr
          48 146 hstem
          12 200 130 203 vstem
          -107 callsubr
          3 429 -77 callsubr
        </CharString>
        <CharString name="omacron">
          -20 callsubr
          85 77 hstem
          12 200 130 203 vstem
          -107 callsubr
          -92 466 -69 callsubr
        </CharString>
        <CharString name="one">
          -182 -6 callsubr
          57 465 rmoveto
          108 hlineto
          -99 -465 rlineto
          -26 callgsubr
          136 635 rlineto
          -153 hlineto
          -40 -51 -71 -40 -82 -12 rrcurveto
          endchar
        </CharString>
        <CharString name="oneeighth">
          82 12 callgsubr
          379 -20 hstemhm
          351 43 callsubr
          hintmask 1011110100000000
          166 -80 callgsubr
          31 548 -70 callsubr
          hintmask 0111101100000000
          363 -602 -76 callgsubr
          hintmask 0111110100000000
          -32 callsubr
          hintmask 1011101100000000
          20 callsubr
          hvcurveto
          hintmask 1011110010000000
          -22 callgsubr
          -13 -4 16 16 19 9 25 23 hvcurveto
          hintmask 1011110100000000
          14 2 -12 -17 -20 -7 -27 -24 hvcurveto
          endchar
        </CharString>
        <CharString name="onehalf">
          96 0 67 95 103 -39 39 370 -20 hstemhm
          513 110 hintmask 11011000
          165 -80 callgsubr
          31 548 -70 callsubr
          252 -594 50 callgsubr
          48 24 35 37 vvcurveto
          53 -61 25 -15 callgsubr
          hintmask 10111000
          -36 callsubr
          endchar
        </CharString>
        <CharString name="oneinferior">
          -395 21 -21 255 -20 hstem
          -10 168 7 callsubr
        </CharString>
        <CharString name="onequarter">
          69 0 28 callsubr
          380 -20 hstemhm
          hintmask 10010000
          165 -80 callgsubr
          31 548 -70 callsubr
          hintmask 01010000
          446 -530 rmoveto
          37 hlineto
          9 46 rlineto
          -36 hlineto
          hintmask 00110000
          -36 callgsubr
          hintmask 10010000
          -14 -64 rlineto
          103 hlineto
          hintmask 01010000
          -138 110 rmoveto
          78 91 -19 -91 rlineto
          endchar
        </CharString>
        <CharString name="onesuperior">
          -395 401 -21 255 -20 hstem
          71 548 7 callsubr
        </CharString>
        <CharString name="onethird">
          80 33 callgsubr
          378 -20 hstemhm
          430 56 22 85 hintmask 00110111
          165 -80 callgsubr
          hintmask 01010111
          390 -8 -11 callsubr
          hintmask 01001111
          17 callsubr
          18 14 -11 -21 vhcurveto
          hintmask 10010111
          -13 callgsubr
          vhcurveto
          hintmask 01010111
          23 callsubr
          -359 556 7 callsubr
        </CharString>
        <CharString name="oogonek">
          -4 -204 66 131 67 313 68 hstemhm
          12 191 -128 128 139 203 hintmask 11110100
          -12 callgsubr
          -86 -65 -16 -33 -49 hvcurveto
          -66 -46 -37 -74 -86 vvcurveto
          -64 20 -51 37 -32 vhcurveto
          25 -23 36 -14 47 -6 rrcurveto
          hintmask 11101100
          -50 -23 -52 -39 -64 -98 callsubr
          38 34 32 33 23 hvcurveto
          84 3 64 21 47 39 rrcurveto
          51 44 29 70 83 vvcurveto
          67 -19 50 -38 29 vhcurveto
          28 -36 -58 14 -79 hhcurveto
          -68 -381 rmoveto
          -25 -10 23 42 -78 callsubr
          hvcurveto
          endchar
        </CharString>
        <CharString name="ordfeminine">
          -186 276 49 56 68 61 38 21 82 -47 47 hstemhm
          89 114 hintmask 11110100
          62 276 48 callgsubr
          56 244 rmoveto
          85 hlineto
          hintmask 11101100
          23 6 12 12 21 hhcurveto
          23 5 -14 -16 -9 -2 -9 -2 -8 hvcurveto
          -94 -94 -10 -83 -48 30 -26 41 37 41 21 23 16 hvcurveto
          4 hlineto
          10 -39 rlineto
          97 hlineto
          28 133 rlineto
          3 16 3 16 14 vvcurveto
          53 -33 33 -110 -49 -35 -6 -19 -33 vhcurveto
          hintmask 11110100
          125 -145 rmoveto
          -16 -3 -14 -16 -17 hhcurveto
          -17 -10 14 16 22 18 9 38 hvcurveto
          10 hlineto
          endchar
        </CharString>
        <CharString name="ordmasculine">
          -179 276 49 55 52 168 51 hstem
          97 115 79 117 vstem
          274 651 rmoveto
          -118 -59 -65 -88 -73 37 -45 98 116 60 60 98 79 -39 34 -95 hvcurveto
          -41 -219 rmoveto
          -14 -7 14 25 36 17 93 44 15 3 -12 -23 -44 -17 -89 -41 hvcurveto
          -166 -156 48 callgsubr
          endchar
        </CharString>
        <CharString name="oslash">
          -4 -21 -21 34 68 313 68 27 -20 hstem
          315 441 -67 callgsubr
        </CharString>
        <CharString name="oslashacute">
          -4 -21 -21 34 68 313 68 1 callsubr
          hstem
          350 489 rmoveto
          179 146 rlineto
          -172 hlineto
          -93 -146 rlineto
          51 -48 -67 callgsubr
        </CharString>
        <CharString name="otilde">
          -20 callsubr
          65 6 callgsubr
          12 200 130 203 hintmask 11011100
          -107 callsubr
          278 580 rmoveto
          hintmask 11101100
          -52 callgsubr
          hintmask 11011100
          -95 callsubr
          hintmask 11101100
          -82 callgsubr
        </CharString>
        <CharString name="p">
          5 -8 callsubr
          160 97 252 96 -7 -20 hstemhm
          349 208 hintmask 11101000
          208 65 rmoveto
          2 callgsubr
          hintmask 11011000
          -18 64 rlineto
          -163 hlineto
          -126 -598 -79 callgsubr
          106 257 43 callgsubr
          hintmask 11101000
          13 11 25 24 25 -35 callgsubr
        </CharString>
        <CharString name="paragraph">
          36 -8 callsubr
          737 76 hstem
          247 -168 rmoveto
          159 737 rlineto
          89 hlineto
          -168 -737 rlineto
          97 hlineto
          158 737 rlineto
          66 hlineto
          16 76 rlineto
          -327 hlineto
          -79 -59 -15 -30 -43 hvcurveto
          -61 -41 -33 -68 -78 vvcurveto
          -59 17 -46 34 -30 vhcurveto
          28 -25 43 -14 59 -4 -92 -403 rcurveline
          endchar
        </CharString>
        <CharString name="parenleft">
          -271 -49 -21 788 -20 hstem
          31 144 vstem
          340 718 rmoveto
          -163 -91 -146 -207 -195 vvcurveto
          -135 69 -109 101 -51 vhcurveto
          37 31 rlineto
          -32 51 -31 66 103 vvcurveto
          185 104 201 96 112 vhcurveto
          endchar
        </CharString>
        <CharString name="parenright">
          -271 -49 -21 788 -20 hstem
          161 143 vstem
          -4 -70 rmoveto
          163 91 145 207 195 vvcurveto
          135 -69 109 -101 51 vhcurveto
          -36 -31 rlineto
          31 -51 32 -66 -103 vvcurveto
          -186 -104 -200 -97 -113 vhcurveto
          endchar
        </CharString>
        <CharString name="percent">
          145 24 callgsubr
          79 103 73 102 33 103 73 102 hintmask 0111011111000000
          226 -80 callgsubr
          hintmask 1011101111000000
          126 645 -88 callgsubr
          354 -167 -88 callgsubr
          endchar
        </CharString>
        <CharString name="period">
          -305 -8 181 hstem
          0 203 vstem
          203 88 -26 callsubr
        </CharString>
        <CharString name="periodcentered">
          -306 224 181 hstem
          46 203 vstem
          249 320 -26 callsubr
        </CharString>
        <CharString name="perthousand">
          475 24 callgsubr
          78 103 73 102 33 103 73 102 54 103 73 102 hintmask 0111011111110000
          225 -80 callgsubr
          hintmask 1011101111110000
          126 645 -88 callgsubr
          354 -167 -88 callgsubr
          375 221 -88 callgsubr
          endchar
        </CharString>
        <CharString name="plus">
          -120 130 -21 164 91 -91 249 hstemhm
          hintmask 10100000
          233 522 rmoveto
          hintmask 11000000
          -35 -158 rlineto
          -147 -18 callsubr
          endchar
        </CharString>
        <CharString name="plusminus">
          -87 27 92 235 91 -91 249 hstemhm
          hintmask 10100000
          260 603 rmoveto
          hintmask 11000000
          -35 -158 rlineto
          -146 -18 callsubr
          -362 -576 rmoveto
          403 hlineto
          20 92 rlineto
          -402 hlineto
          endchar
        </CharString>
        <CharString name="q">
          -2 -8 callsubr
          160 94 257 98 -11 5 callgsubr
          hintmask 11101000
          361 365 rmoveto
          -6 hlineto
          64 -20 -61 12 -47 hhcurveto
          -204 -16 -257 -54 -80 35 -58 94 84 45 47 25 15 hvcurveto
          7 hlineto
          -50 -232 rlineto
          205 hlineto
          hintmask 11011000
          127 598 rlineto
          -162 hlineto
          hintmask 11101000
          -113 -87 rmoveto
          20 16 -19 -15 9 hvcurveto
          -39 -183 rlineto
          -14 -11 -24 -26 -53 callsubr
          endchar
        </CharString>
        <CharString name="question">
          -54 -8 160 308 219 -70 70 hstemhm
          137 193 32 187 hintmask 11011000
          346 304 rmoveto
          83 23 120 65 124 vvcurveto
          109 -77 54 -152 -72 -76 -12 -57 -68 vhcurveto
          -31 -150 rlineto
          147 hlineto
          hintmask 10111000
          75 22 36 74 50 hhcurveto
          26 8 -21 -35 -85 -62 -95 -98 -24 hvcurveto
          -25 -148 rlineto
          150 hlineto
          -190 -136 rmoveto
          -49 36 -24 50 54 53 32 55 49 -36 24 -48 -55 -54 -27 -60 vhcurveto
          endchar
        </CharString>
        <CharString name="questiondown">
          -58 -168 70 -70 219 308 160 hstemhm
          -27 187 32 193 hintmask 01111000
          176 207 rmoveto
          -83 -23 -120 -65 -124 vvcurveto
          -109 77 -54 152 72 76 12 57 68 vhcurveto
          31 150 rlineto
          -147 hlineto
          hintmask 10111000
          -75 -22 -36 -74 -50 hhcurveto
          -26 -8 21 35 85 62 95 98 24 hvcurveto
          25 148 rlineto
          -150 hlineto
          190 136 rmoveto
          49 -36 24 -50 -54 -53 -32 -55 -49 36 -24 48 55 54 27 60 vhcurveto
          endchar
        </CharString>
        <CharString name="quotedbl">
          -133 18 callgsubr
          99 hlineto
          320 279 rmoveto
          -152 hlineto
          -44 -279 rlineto
          99 hlineto
          endchar
        </CharString>
        <CharString name="quotedblbase">
          -40 -119 30 callsubr
          -3 204 60 204 vstemhm
          465 85 rmoveto
          60 -41 29 -53 -57 -53 -38 -64 vhcurveto
          hintmask 11110000
          38 -28 18 -24 -24 vvcurveto
          -29 -28 callsubr
          88 34 105 91 100 vvcurveto
          -264 hmoveto
          60 -41 29 -54 -57 -52 -38 -64 vhcurveto
          38 -28 17 -24 -24 vvcurveto
          -29 -28 callsubr
          89 34 105 91 100 vvcurveto
          endchar
        </CharString>
        <CharString name="quotedblleft">
          -47 396 30 callsubr
          78 148 -148 204 61 148 -148 204 hintmask 11011000
          31 callsubr
          hintmask 11010100
          16 callsubr
          265 hmoveto
          -60 41 -29 53 57 53 38 64 vhcurveto
          hintmask 11100100
          -38 28 -18 24 24 vvcurveto
          29 25 28 48 37 vhcurveto
          -28 42 rlineto
          -88 -34 -105 -91 -100 vvcurveto
          endchar
        </CharString>
        <CharString name="quotedblright">
          -51 396 30 callsubr
          100 204 60 204 vstemhm
          568 600 rmoveto
          59 -41 30 -53 -57 -53 -38 -64 vhcurveto
          hintmask 11110000
          38 -28 18 -25 -24 vvcurveto
          -28 -28 callsubr
          88 33 105 92 100 vvcurveto
          -264 hmoveto
          59 -41 30 -54 -57 -52 -38 -64 vhcurveto
          10 callsubr
        </CharString>
        <CharString name="quoteleft">
          -312 396 30 callsubr
          78 204 vstemhm
          31 callsubr
          hintmask 11100000
          16 callsubr
          endchar
        </CharString>
        <CharString name="quoteright">
          -315 396 30 callsubr
          100 204 vstemhm
          304 600 rmoveto
          59 -41 30 -54 -57 -52 -38 -64 vhcurveto
          hintmask 11100000
          10 callsubr
        </CharString>
        <CharString name="quotesinglbase">
          -44 callsubr
        </CharString>
        <CharString name="quotesingle">
          -365 18 callgsubr
          78 hlineto
          endchar
        </CharString>
        <CharString name="r">
          -96 21 18 callsubr
          hstemhm
          hintmask 10100000
          -47 callsubr
          hintmask 11000000
          -71 callsubr
          hintmask 10010000
          -15 75 rlineto
          -163 hlineto
          endchar
        </CharString>
        <CharString name="racute">
          -58 callgsubr
          252 59 -103 callsubr
        </CharString>
        <CharString name="rcaron">
          -58 callgsubr
          353 205 -102 callsubr
        </CharString>
        <CharString name="rcommaaccent">
          -96 -31 callgsubr
          62 323 118 -11 -20 hstemhm
          1 146 hintmask 11101000
          -47 callsubr
          -71 callsubr
          hintmask 11011000
          -15 75 rlineto
          -163 hlineto
          66 -557 -72 callsubr
          hintmask 11101000
          -93 callgsubr
        </CharString>
        <CharString name="rdotbelow">
          -96 -33 callgsubr
          102 18 callsubr
          hstemhm
          -10 167 hintmask 11010100
          -47 callsubr
          hintmask 11100100
          -71 callsubr
          hintmask 11001100
          -15 75 rlineto
          -163 hlineto
          76 -574 -100 callsubr
        </CharString>
        <CharString name="registered">
          176 -14 63 111 179 99 -20 154 63 hstem
          45 68 333 113 107 67 vstem
          -59 callgsubr
          -107 74 rmoveto
          65 -54 12 -76 vhcurveto
          -2 callsubr
          -69 -324 rlineto
          126 hlineto
          29 136 rlineto
          7 hlineto
          44 -136 rlineto
          129 hlineto
          -59 149 rlineto
          52 19 20 38 41 vvcurveto
          -185 -68 rmoveto
          25 99 rlineto
          23 hlineto
          20 4 -13 -19 -23 -14 -44 -35 hvcurveto
          endchar
        </CharString>
        <CharString name="ring">
          -322 478 54 63 56 hstem
          37 57 68 58 vstem
          220 571 -91 callgsubr
          endchar
        </CharString>
        <CharString name="s">
          -92 -8 66 -66 135 26 callsubr
          -105 194 12 206 -135 135 hintmask 10011010
          -91 callsubr
          hintmask 01010101
          -98 callgsubr
          vhcurveto
          hintmask 10101010
          -20 callgsubr
          endchar
        </CharString>
        <CharString name="s_p">
          486 -8 callsubr
          160 66 -66 97 -97 135 177 133 -96 96 -63 63 4 -20 183 49 callsubr
          -144 83 -83 144 133 204 48 208 hintmask 1100001011000111
          384 499 rmoveto
          78 92 27 38 38 26 -10 -57 -26 -6 -33 -10 -48 vhcurveto
          -126 -598 -5 callgsubr
          50 233 rlineto
          2 callgsubr
          6 27 34 92 71 vvcurveto
          84 -40 47 -146 -193 -102 -68 -109 -42 15 -18 30 -14 vhcurveto
          hintmask 1100000111010011
          3 -23 -23 2 -24 hhcurveto
          -118 -125 -38 -117 -83 62 -23 34 -9 hvcurveto
          49 -12 61 -16 -38 vvcurveto
          -19 -15 -28 -39 -34 -13 19 31 vhcurveto
          hintmask 1001001010110011
          -98 callgsubr
          vhcurveto
          hintmask 1010100011001011
          -20 callgsubr
          130 hlineto
          23 101 rlineto
          -45 30 -31 20 44 vvcurveto
          361 -410 43 callgsubr
          hintmask 1010010011010011
          13 12 24 24 25 -35 callgsubr
        </CharString>
        <CharString name="s_t">
          283 -8 66 -66 135 177 137 -78 78 -11 -20 191 49 callsubr
          -141 83 -83 141 85 202 -51 140 hintmask 1001011010010000
          502 10 callgsubr
          78 hlineto
          -42 -199 -45 callsubr
          40 callgsubr
          38 8 callsubr
          vhcurveto
          -62 callgsubr
          41 9 callsubr
          79 hlineto
          hintmask 1000111000101000
          14 67 rlineto
          -79 hlineto
          20 93 rlineto
          2 11 1 11 10 vvcurveto
          90 -100 39 -103 -177 -137 -68 -109 -38 13 -19 25 -13 vhcurveto
          hintmask 1010011010010000
          2 -21 -23 2 -22 hhcurveto
          -118 -125 -38 -117 -83 62 -23 34 -9 hvcurveto
          49 -12 61 -16 -38 vvcurveto
          -19 -15 -28 -39 -34 -13 19 31 vhcurveto
          hintmask 0110010110010000
          -98 callgsubr
          -20 callgsubr
          130 hlineto
          23 101 rlineto
          hintmask 1000111001001000
          -45 26 -28 20 45 vvcurveto
          78 113 27 75 73 33 -25 -33 -38 -39 -55 -126 -20 vhcurveto
          endchar
        </CharString>
        <CharString name="sacute">
          -93 callsubr
          13 185 -103 callsubr
        </CharString>
        <CharString name="scaron">
          -93 callsubr
          116 331 -102 callsubr
        </CharString>
        <CharString name="schwa">
          -32 -8 68 126 46 55 154 -68 68 hstemhm
          -2 180 140 200 hintmask 11101100
          -2 120 rmoveto
          -88 69 -40 132 245 74 128 132 145 -104 44 -133 -73 -92 -13 -34 -52 vhcurveto
          -26 -107 rlineto
          164 hlineto
          hintmask 11011100
          54 16 43 32 23 hhcurveto
          31 3 -38 -25 -22 -2 -28 -5 -28 hvcurveto
          -281 hlineto
          -21 -29 -11 -47 -36 vvcurveto
          180 -7 rmoveto
          30 9 43 0 vhcurveto
          114 hlineto
          -66 -17 -30 -60 -42 hhcurveto
          -18 -16 12 41 hvcurveto
          endchar
        </CharString>
        <CharString name="scircumflex">
          -93 callsubr
          -129 185 -105 callgsubr
        </CharString>
        <CharString name="sdotbelow">
          -92 -33 callgsubr
          73 66 -66 135 26 callsubr
          -71 160 12 206 -135 135 hintmask 1100110100000000
          -91 callsubr
          hintmask 1010101010000000
          -98 callgsubr
          vhcurveto
          hintmask 1101001100000000
          -20 callgsubr
          -73 -448 -100 callsubr
        </CharString>
        <CharString name="section">
          -35 -126 75 625 71 hstemhm
          24 147 -49 193 -95 205 -39 137 hintmask 11010100
          539 593 rmoveto
          34 -43 -49 18 -75 hhcurveto
          -117 -133 -43 -131 hvcurveto
          hintmask 11101000
          -54 23 -29 26 -16 vhcurveto
          -79 -20 -68 -48 -93 vvcurveto
          -82 53 -24 43 -19 vhcurveto
          42 -19 58 -26 -41 vvcurveto
          -19 -14 -32 -62 -53 -67 22 20 -26 vhcurveto
          -16 -63 rlineto
          -23 28 51 -31 115 hhcurveto
          142 107 47 125 hvcurveto
          hintmask 11010100
          50 -16 30 -23 21 vhcurveto
          82 21 55 49 90 vvcurveto
          98 -66 25 -44 14 vhcurveto
          -55 17 -43 14 42 vvcurveto
          20 10 37 61 45 46 -20 -15 28 vhcurveto
          -200 -350 rmoveto
          hintmask 11100100
          -81 25 -53 24 35 vvcurveto
          19 15 37 67 vhcurveto
          81 -26 52 -24 -34 vvcurveto
          -19 -14 -37 -67 vhcurveto
          endchar
        </CharString>
        <CharString name="semicolon">
          -294 -119 -21 300 69 0 168 hstemhm
          6 191 -139 187 hintmask 10101000
          245 318 rmoveto
          54 -38 25 -49 -52 -48 -33 -56 -54 20 callgsubr
          hintmask 11010000
          -48 -243 rmoveto
          58 -39 27 -50 -55 -47 -31 -57 vhcurveto
          39 -22 18 -30 -23 vvcurveto
          -31 -32 -32 -48 -34 vhcurveto
          25 -40 rlineto
          89 34 100 85 96 vvcurveto
          endchar
        </CharString>
        <CharString name="seven">
          -48 21 -21 497 138 hstem
          99 216 vstem
          600 -58 callsubr
          -504 hlineto
          -30 -138 rlineto
          304 hlineto
          -205 -124 -66 -275 -98 vvcurveto
          -26 callgsubr
          223 81 231 182 84 vhcurveto
          endchar
        </CharString>
        <CharString name="seveneighths">
          104 12 callgsubr
          318 61 hstemhm
          373 97 -73 89 48 83 hintmask 10111011
          188 -80 callgsubr
          hintmask 01111011
          404 -8 -76 callgsubr
          hintmask 01111101
          -32 callsubr
          hintmask 10111011
          20 callsubr
          -22 callgsubr
          hintmask 10111101
          -16 callgsubr
          -166 605 rmoveto
          -217 hlineto
          -13 -61 rlineto
          123 hlineto
          -82 -48 -27 -108 -38 vvcurveto
          103 hlineto
          87 32 92 73 32 vhcurveto
          endchar
        </CharString>
        <CharString name="seveninferior">
          -347 21 -21 194 61 hstem
          224 255 rmoveto
          -217 hlineto
          -13 -61 rlineto
          123 hlineto
          -82 -48 -27 -108 -38 vvcurveto
          103 hlineto
          87 32 91 73 33 vhcurveto
          endchar
        </CharString>
        <CharString name="sevensuperior">
          -348 401 -21 194 61 hstem
          304 -58 callsubr
          -217 hlineto
          -13 -61 rlineto
          123 hlineto
          -82 -48 -27 -108 -38 vvcurveto
          103 hlineto
          87 32 92 73 32 vhcurveto
          endchar
        </CharString>
        <CharString name="six">
          37 -8 68 260 91 165 69 hstemhm
          41 199 132 211 -165 165 hintmask 11110100
          415 645 rmoveto
          -256 -118 -191 -211 -198 102 -53 141 98 73 26 37 48 hvcurveto
          56 44 24 58 81 vvcurveto
          106 -41 67 -102 -60 -61 -23 -43 -38 vhcurveto
          -10 hlineto
          164 26 61 67 31 hhcurveto
          23 6 -34 -35 hvcurveto
          hintmask 11111000
          -15 -2 -13 -1 -14 vhcurveto
          155 hlineto
          32 140 rlineto
          32 -51 -85 8 -51 hhcurveto
          -136 -585 rmoveto
          -28 -11 24 37 61 29 138 72 26 5 -18 -32 -77 -28 -133 -65 hvcurveto
          endchar
        </CharString>
        <CharString name="sixinferior">
          -298 -8 38 85 46 22 74 hstem
          -13 91 54 99 vstem
          150 257 rmoveto
          -115 -48 -78 -85 -81 43 -21 66 47 33 10 15 -5 callsubr
          -14 -2 48 callsubr
          13 -25 -41 4 24 callsubr
          -9 -12 -22 -11 -42 -27 hvcurveto
          endchar
        </CharString>
        <CharString name="sixsuperior">
          -298 380 38 85 46 22 74 hstem
          68 91 54 99 vstem
          231 645 rmoveto
          -115 -48 -78 -85 -81 43 -21 66 47 33 11 14 -5 callsubr
          -13 -3 48 callsubr
          14 -25 -41 3 24 callsubr
          -8 -13 -22 -11 -42 -27 hvcurveto
          endchar
        </CharString>
        <CharString name="slash">
          -221 -6 callsubr
          73 hmoveto
          338 635 rlineto
          -91 hlineto
          -349 -56 callsubr
          endchar
        </CharString>
        <CharString name="space">
          -388 endchar
        </CharString>
        <CharString name="sterling">
          42 -8 131 -131 186 -144 89 -89 115 136 76 188 96 hstemhm
          119 194 hintmask 00101110
          82 3 rmoveto
          24 44 34 7 32 hhcurveto
          hintmask 01001110
          83 45 -42 86 hhcurveto
          101 57 58 128 9 hvcurveto
          -75 hlineto
          hintmask 10001110
          -38 -10 -36 -17 -37 hhcurveto
          hintmask 00011110
          -46 -29 26 -55 hhcurveto
          -40 -32 -14 3 2 hvcurveto
          -2 3 59 49 30 42 15 53 rlinecurve
          95 hlineto
          16 76 rlineto
          -105 hlineto
          19 -10 16 33 vvcurveto
          69 42 51 87 49 42 -16 -14 35 vhcurveto
          32 88 rlineto
          26 -71 -59 12 -63 hhcurveto
          -205 -83 -121 -111 -21 3 -18 5 -13 hvcurveto
          -78 hlineto
          -17 -76 rlineto
          109 hlineto
          1 -17 1 -18 -12 vvcurveto
          -62 -31 -52 -74 -57 vhcurveto
          endchar
        </CharString>
        <CharString name="t">
          -187 -8 11 callsubr
          202 hintmask 11010000
          32 10 callgsubr
          78 hlineto
          -42 -199 -45 callsubr
          40 callgsubr
          38 8 callsubr
          vhcurveto
          -62 callgsubr
          41 9 callsubr
          79 hlineto
          13 67 rlineto
          -78 hlineto
          hintmask 10110000
          -27 callgsubr
          hintmask 11010000
          1 callgsubr
          endchar
        </CharString>
        <CharString name="t_t">
          144 -8 11 callsubr
          202 129 202 hintmask 11011000
          314 10 callgsubr
          127 hlineto
          -42 -199 -45 callsubr
          40 callgsubr
          38 8 callsubr
          vhcurveto
          -62 callgsubr
          41 9 callsubr
          79 hlineto
          13 67 rlineto
          -78 hlineto
          hintmask 10111000
          -27 callgsubr
          hintmask 11011000
          -86 -67 -39 -48 -102 hhcurveto
          -49 hlineto
          hintmask 10111000
          -27 callgsubr
          hintmask 11011000
          -67 -86 -41 -27 -100 -21 -14 -67 rcurveline
          78 hlineto
          -42 -199 -45 callsubr
          40 callgsubr
          38 8 callsubr
          vhcurveto
          -62 callgsubr
          endchar
        </CharString>
        <CharString name="tbar">
          -185 -8 77 140 77 77 67 -67 201 hstemhm
          61 202 hintmask 11101000
          33 10 callgsubr
          78 hlineto
          -17 -77 rlineto
          -73 hlineto
          -18 -77 rlineto
          75 hlineto
          -9 -45 -45 callsubr
          40 callgsubr
          38 8 callsubr
          vhcurveto
          -62 callgsubr
          8 41 0 callsubr
          18 77 rlineto
          -78 hlineto
          17 77 rlineto
          79 hlineto
          13 67 rlineto
          -78 hlineto
          hintmask 11011000
          -27 callgsubr
          hintmask 11101000
          1 callgsubr
          endchar
        </CharString>
        <CharString name="tcaron">
          -106 -8 77 294 67 221 -20 hstem
          60 202 172 170 vstem
          32 10 callgsubr
          78 hlineto
          -42 -199 -45 callsubr
          40 callgsubr
          38 8 callsubr
          vhcurveto
          -62 callgsubr
          41 9 callsubr
          79 hlineto
          13 67 rlineto
          -78 hlineto
          -27 callgsubr
          1 callgsubr
          373 -7 -83 callgsubr
        </CharString>
        <CharString name="tdotbelow">
          -187 -33 callgsubr
          73 11 callsubr
          184 -184 202 -185 167 hintmask 11100100
          32 10 callgsubr
          78 hlineto
          -42 -199 -45 callsubr
          40 callgsubr
          38 8 callsubr
          vhcurveto
          -62 callgsubr
          41 9 callsubr
          79 hlineto
          13 67 rlineto
          -78 hlineto
          hintmask 11011000
          -27 callgsubr
          hintmask 11100010
          1 callgsubr
          198 -574 -100 callsubr
        </CharString>
        <CharString name="thorn">
          5 -8 callsubr
          160 97 252 96 235 -20 hstem
          349 208 vstem
          208 65 rmoveto
          6 hlineto
          -38 20 53 -35 73 -30 callsubr
          -54 -59 -21 -50 -44 hvcurveto
          -7 44 callsubr
          -33 callsubr
          -177 -840 -79 callgsubr
          106 257 -4 callsubr
        </CharString>
        <CharString name="three">
          25 -8 70 373 210 -69 69 hstemhm
          197 139 53 172 -172 195 hintmask 11011000
          234 -8 rmoveto
          201 126 86 115 85 -65 37 -79 9 hvcurveto
          hintmask 10110100
          103 38 64 42 91 vvcurveto
          120 -116 30 -103 -157 -98 -69 0 vhcurveto
          hintmask 11010100
          -30 -141 rlineto
          172 hlineto
          hintmask 10110100
          102 26 36 39 36 hhcurveto
          34 5 -39 -32 -78 -31 -60 -88 hvcurveto
          -1 -15 -68 0 45 36 -30 -61 -63 -42 -82 -57 -25 -15 22 54 vhcurveto
          hintmask 11010100
          40 9 50 -2 vvcurveto
          -169 hlineto
          -32 -150 rlineto
          -63 67 67 -21 95 hhcurveto
          endchar
        </CharString>
        <CharString name="threeeighths">
          144 12 callgsubr
          124 23 callgsubr
          91 97 -73 89 48 83 hintmask 1011100011101100
          228 -80 callgsubr
          hintmask 0111101001101100
          404 -8 -76 callgsubr
          hintmask 0111011001110100
          -41 -15 -16 -25 -31 vvcurveto
          -46 37 -26 72 vhcurveto
          -348 388 -10 callsubr
          hintmask 1011010101101100
          -46 callsubr
          -17 -36 hvcurveto
          -1 -6 -38 0 18 14 -11 -21 vhcurveto
          hintmask 1011101001101100
          -13 callgsubr
          vhcurveto
          hintmask 1011011001110100
          -7 callsubr
          353 -350 rmoveto
          -16 callgsubr
          16 125 rmoveto
          hintmask 1011101001101100
          20 callsubr
          15 1 -14 -13 -15 -9 -21 -22 hvcurveto
          endchar
        </CharString>
        <CharString name="threeinferior">
          -297 -8 39 -39 157 23 85 -39 39 hstemhm
          66 56 22 85 hintmask 01101100
          81 -8 -11 callsubr
          hintmask 01011100
          17 callsubr
          18 14 -11 -21 vhcurveto
          hintmask 10101100
          -13 callgsubr
          vhcurveto
          hintmask 01101100
          23 callsubr
          endchar
        </CharString>
        <CharString name="threequarters">
          143 0 28 callsubr
          125 23 callgsubr
          hintmask 1001000111000000
          239 -80 callgsubr
          hintmask 0101010011000000
          489 64 rmoveto
          37 hlineto
          9 46 rlineto
          -36 hlineto
          hintmask 0011010011000000
          -36 callgsubr
          hintmask 1001010011000000
          -14 -64 rlineto
          103 hlineto
          hintmask 0100110011000000
          -430 380 -10 callsubr
          hintmask 1000101011000000
          -46 callsubr
          -17 -36 hvcurveto
          -1 -6 -38 0 18 14 -11 -21 vhcurveto
          hintmask 1001010011000000
          -13 callgsubr
          vhcurveto
          hintmask 1000110011000000
          -7 callsubr
          292 -270 rmoveto
          78 91 -19 -91 rlineto
          endchar
        </CharString>
        <CharString name="threesuperior">
          -297 380 39 -39 158 22 85 -39 39 hstemhm
          147 56 22 85 hintmask 01101100
          162 380 -10 callsubr
          hintmask 01011100
          -46 callsubr
          -17 -36 hvcurveto
          -1 -6 -38 0 18 14 -11 -21 vhcurveto
          hintmask 10101100
          -13 callgsubr
          vhcurveto
          hintmask 01101100
          -7 callsubr
          endchar
        </CharString>
        <CharString name="tilde">
          -117 506 6 callgsubr
          hintmask 01000000
          401 640 rmoveto
          hintmask 10000000
          -52 callgsubr
          hintmask 01000000
          -95 callsubr
          hintmask 10000000
          -82 callgsubr
        </CharString>
        <CharString name="trademark">
          125 393 242 -43 43 hstemhm
          hintmask 10000000
          730 -58 callsubr
          -135 hlineto
          -73 -137 -12 137 rlineto
          -135 hlineto
          -51 -242 rlineto
          55 hlineto
          37 169 17 -169 rlineto
          89 hlineto
          90 163 -34 -163 rlineto
          100 hlineto
          -325 242 rmoveto
          -226 hlineto
          hintmask 01000000
          -8 -43 rlineto
          60 hlineto
          hintmask 10000000
          -43 -199 rlineto
          104 hlineto
          43 199 rlineto
          62 hlineto
          endchar
        </CharString>
        <CharString name="two">
          14 0 139 435 71 hstem
          381 205 vstem
          -3 hmoveto
          515 hlineto
          20 139 rlineto
          -223 hlineto
          219 127 58 92 98 vvcurveto
          131 -105 58 -128 -103 -81 -37 -64 -74 vhcurveto
          -33 -150 rlineto
          181 hlineto
          80 20 34 100 48 hhcurveto
          26 10 -31 -53 -218 -178 -115 -184 -59 hvcurveto
          endchar
        </CharString>
        <CharString name="twoinferior">
          -293 0 67 95 103 -39 39 hstemhm
          136 110 hintmask 11010000
          -29 hmoveto
          11 callgsubr
          48 24 35 37 vvcurveto
          53 -61 25 -15 callgsubr
          hintmask 10110000
          -36 callsubr
          endchar
        </CharString>
        <CharString name="twosuperior">
          -292 380 67 95 103 -39 39 hstemhm
          217 110 hintmask 11010000
          52 21 callsubr
          54 -61 24 -15 callgsubr
          hintmask 10110000
          -36 callsubr
          endchar
        </CharString>
        <CharString name="twothirds">
          164 33 callgsubr
          123 67 95 103 -39 39 -10 -20 hstemhm
          230 110 230 107 -85 85 hintmask 0011010011100000
          249 -80 callgsubr
          -74 21 callsubr
          hintmask 1001011001100000
          54 -61 24 -15 callgsubr
          hintmask 0101010101010000
          -36 callsubr
          456 -438 -11 callsubr
          hintmask 0100111001010000
          17 callsubr
          vhcurveto
          hintmask 1001011001100000
          18 14 -11 -21 -13 callgsubr
          hvcurveto
          hintmask 0101011001100000
          23 callsubr
          endchar
        </CharString>
        <CharString name="u">
          6 -8 50 callsubr
          hintmask 10110000
          -106 callsubr
          hintmask 01110000
          -86 callsubr
          -204 hlineto
          endchar
        </CharString>
        <CharString name="uacute">
          -49 callsubr
          225 -20 45 callsubr
          hintmask 10111000
          -106 callsubr
          hintmask 01111000
          -86 callsubr
          -204 hlineto
          -10 59 -103 callsubr
        </CharString>
        <CharString name="ubreve">
          -49 callsubr
          79 82 79 -20 45 callsubr
          hintmask 10111100
          -106 callsubr
          hintmask 01111100
          -86 callsubr
          -204 hlineto
          -29 59 -104 callgsubr
        </CharString>
        <CharString name="ucircumflex">
          -49 callsubr
          225 -20 45 callsubr
          hintmask 10111000
          -106 callsubr
          hintmask 01111000
          -86 callsubr
          -204 hlineto
          -128 59 -105 callgsubr
        </CharString>
        <CharString name="udieresis">
          -49 callsubr
          68 153 45 callsubr
          -48 -13 callsubr
          hintmask 10111010
          -106 callsubr
          hintmask 01110110
          -86 callsubr
          -204 hlineto
          -122 201 rmoveto
          -105 callsubr
        </CharString>
        <CharString name="udotbelow">
          6 -33 callgsubr
          73 50 callsubr
          -75 167 hintmask 11011000
          -106 callsubr
          hintmask 10110100
          -86 callsubr
          -204 hlineto
          -64 -574 -100 callsubr
        </CharString>
        <CharString name="ugrave">
          -49 callsubr
          225 -20 45 callsubr
          hintmask 10111000
          -106 callsubr
          hintmask 01111000
          -86 callsubr
          -204 hlineto
          -83 59 -81 callsubr
        </CharString>
        <CharString name="uhungarumlaut">
          -49 callsubr
          79 146 45 callsubr
          hintmask 10111000
          -106 callsubr
          hintmask 01111000
          -86 callsubr
          -204 hlineto
          -128 59 -77 callsubr
        </CharString>
        <CharString name="umacron">
          -49 callsubr
          116 77 45 callsubr
          hintmask 10111000
          -106 callsubr
          hintmask 01111000
          -86 callsubr
          -204 hlineto
          -202 96 -69 callsubr
        </CharString>
        <CharString name="underscore">
          -8 -106 91 hstem
          -29 -106 rmoveto
          473 hlineto
          20 91 rlineto
          -472 hlineto
          endchar
        </CharString>
        <CharString name="uni00A0">
          -388 endchar
        </CharString>
        <CharString name="uni00AD">
          17 callgsubr
        </CharString>
        <CharString name="uni015E">
          8 -210 66 138 72 -72 195 262 194 -73 73 hstemhm
          65 135 -135 198 81 214 -161 161 hintmask 1100110100000000
          -92 callsubr
          hintmask 1010101010000000
          12 2 25 1 12 vhcurveto
          -176 hlineto
          -34 -137 rlineto
          0 38 -51 153 -8 vhcurveto
          -52 -23 -57 -39 -67 -98 callsubr
          43 42 34 36 23 hvcurveto
          162 11 115 63 151 vvcurveto
          118 -70 32 -68 19 vhcurveto
          -79 22 -78 2 68 vvcurveto
          47 37 45 47 43 7 -39 -41 vhcurveto
          hintmask 1101010100000000
          4 callgsubr
          endchar
        </CharString>
        <CharString name="uni015F">
          -92 -204 66 131 65 -65 134 26 callsubr
          -105 134 -134 194 12 206 -135 135 hintmask 1100110010000000
          -91 callsubr
          hintmask 1011001001000000
          6 0 7 1 6 vhcurveto
          -135 hlineto
          -21 -100 23 -12 53 -15 78 -6 rlinecurve
          -49 -23 -49 -38 -63 -98 callsubr
          39 35 31 33 23 hvcurveto
          120 7 90 39 101 vvcurveto
          80 -58 27 -63 15 vhcurveto
          hintmask 1100100101000000
          -46 12 -51 5 42 vvcurveto
          32 29 21 22 25 7 -25 -24 vhcurveto
          hintmask 1101010010000000
          -20 callgsubr
          endchar
        </CharString>
        <CharString name="uni0162">
          -24 -204 66 159 -21 559 76 hstem
          63 128 vstem
          626 -58 callsubr
          -535 hlineto
          -18 -76 rlineto
          159 hlineto
          -119 -559 rlineto
          61 hlineto
          -52 -22 -59 -40 -68 -98 callsubr
          43 42 34 36 23 hvcurveto
          60 hlineto
          119 559 rlineto
          161 hlineto
          endchar
        </CharString>
        <CharString name="uni0163">
          -186 -204 66 501 67 -67 201 hstemhm
          21 128 -88 88 -88 202 hintmask 11001000
          33 10 callgsubr
          78 hlineto
          -42 -199 -45 callsubr
          -60 29 -25 39 -10 vhcurveto
          hintmask 11010000
          -52 -23 -56 -39 -67 -98 callsubr
          38 33 31 33 23 hvcurveto
          38 1 48 4 16 3 15 69 rcurveline
          hintmask 11000100
          -51 callsubr
          41 9 callsubr
          79 hlineto
          13 67 rlineto
          -78 hlineto
          hintmask 10110000
          -27 callgsubr
          hintmask 11010000
          1 callgsubr
          endchar
        </CharString>
        <CharString name="uni01C4">
          609 0 70 489 76 204 -20 -76 callsubr
          614 -85 callsubr
          -401 -21 -68 callsubr
          826 769 -102 callsubr
        </CharString>
        <CharString name="uni01C5">
          552 0 70 293 67 137 68 -76 callsubr
          620 -85 callgsubr
          -404 -8 -68 callsubr
          772 565 -102 callsubr
        </CharString>
        <CharString name="uni01C6">
          484 -8 75 -75 -50 callsubr
          -78 78 -11 -20 225 -20 57 5 callgsubr
          hintmask 0101001110000000
          351 365 rmoveto
          -78 callgsubr
          hintmask 0011001110000000
          -74 callgsubr
          hintmask 0101001110000000
          -51 callgsubr
          hintmask 0011001110000000
          258 -343 rmoveto
          446 hlineto
          hintmask 1000011110000000
          12 67 rlineto
          -221 hlineto
          260 291 16 72 46 callgsubr
          hintmask 0010101110000000
          -13 -67 -5 callgsubr
          -267 -285 rlineto
          411 557 -102 callsubr
        </CharString>
        <CharString name="uni01C7">
          490 0 59 -59 84 -84 235 -223 -21 644 -20 hstemhm
          hintmask 10001000
          -71 callgsubr
          hintmask 01001000
          326 -551 rmoveto
          hintmask 00011000
          -70 callgsubr
          hintmask 10001000
          -29 callgsubr
          hintmask 00101000
          3 callgsubr
          endchar
        </CharString>
        <CharString name="uni01C8">
          184 -8 callsubr
          168 84 346 -20 58 167 4 -20 hstemhm
          575 205 hintmask 11110100
          -71 callgsubr
          621 -205 -48 callsubr
        </CharString>
        <CharString name="uni01C9">
          0 36 callgsubr
          33 -20 hstem
          391 205 -16 callsubr
          378 430 -81 callgsubr
        </CharString>
        <CharString name="uni01CA">
          650 0 59 -59 235 -223 -21 644 -20 hstemhm
          hintmask 10010000
          -90 callgsubr
          88 84 rmoveto
          hintmask 00110000
          -70 callgsubr
          hintmask 10010000
          -29 callgsubr
          hintmask 01010000
          3 callgsubr
          endchar
        </CharString>
        <CharString name="uni01CB">
          344 38 callsubr
          430 -20 58 167 4 -20 hstemhm
          735 205 hintmask 11110100
          -90 callgsubr
          383 430 -48 callsubr
        </CharString>
        <CharString name="uni01CC">
          296 -147 -21 189 29 callsubr
          47 171 12 callsubr
          129 205 hintmask 11101110
          -102 callgsubr
          hintmask 11011110
          -43 callsubr
          hintmask 11101110
          600 64 -81 callgsubr
        </CharString>
        <CharString name="uni01F1">
          615 0 70 489 76 -76 callsubr
          620 -85 callsubr
          -407 -21 -68 callsubr
          endchar
        </CharString>
        <CharString name="uni01F2">
          552 0 70 293 67 137 68 -76 callsubr
          620 -85 callgsubr
          -404 -8 -68 callsubr
          endchar
        </CharString>
        <CharString name="uni01F3">
          484 -8 75 -75 -50 callsubr
          -78 78 -11 -20 262 5 callgsubr
          hintmask 01010011
          351 365 rmoveto
          -78 callgsubr
          hintmask 00110011
          -74 callgsubr
          hintmask 01010011
          -51 callgsubr
          hintmask 00110011
          258 -343 rmoveto
          446 hlineto
          hintmask 10000111
          12 67 rlineto
          -221 hlineto
          260 291 16 72 46 callgsubr
          hintmask 00101011
          -13 -67 -5 callgsubr
          -267 -285 rlineto
          endchar
        </CharString>
        <CharString name="uni0218">
          8 -31 callgsubr
          54 0 74 -74 197 383 73 hstemhm
          65 135 -135 198 -94 146 -106 106 29 214 -161 161 hintmask 1010110011000000
          -92 callsubr
          hintmask 1001101000100000
          -90 callsubr
          4 callgsubr
          hintmask 1100100101000000
          -79 -578 -72 callsubr
          -93 callgsubr
        </CharString>
        <CharString name="uni0219">
          -92 -31 callgsubr
          54 0 66 -66 135 247 67 hstemhm
          33 105 -105 194 -124 146 -10 206 -135 135 hintmask 1010110010000000
          -91 callsubr
          hintmask 1001101001000000
          -98 callgsubr
          -20 callgsubr
          hintmask 1100100101000000
          -58 -431 -72 callsubr
          -93 callgsubr
        </CharString>
        <CharString name="uni021A">
          -24 -31 callgsubr
          62 559 76 hstemhm
          129 146 vstemhm
          -66 callsubr
          -334 -686 -72 callsubr
          hintmask 11110000
          -93 callgsubr
        </CharString>
        <CharString name="uni021B">
          -187 -31 callgsubr
          54 0 11 callsubr
          154 -154 202 -154 106 hintmask 10101010
          32 10 callgsubr
          78 hlineto
          -42 -199 -45 callsubr
          40 callgsubr
          38 8 callsubr
          vhcurveto
          -62 callgsubr
          41 9 callsubr
          79 hlineto
          hintmask 11010100
          13 67 rlineto
          -78 hlineto
          hintmask 11001100
          -27 callgsubr
          hintmask 11010001
          1 callgsubr
          168 -557 -72 callsubr
          -93 callgsubr
        </CharString>
        <CharString name="uni03BC">
          10 -8 callsubr
          160 27 callsubr
          hintmask 11010000
          310 -55 callgsubr
        </CharString>
        <CharString name="uni2215">
          -209 -6 callsubr
          52 -80 callgsubr
          endchar
        </CharString>
        <CharString name="uni2219">
          -306 224 181 hstem
          46 203 vstem
          249 320 -26 callsubr
        </CharString>
        <CharString name="uogonek">
          6 -204 66 130 50 callsubr
          39 128 hintmask 11011100
          -106 callsubr
          hintmask 10111100
          18 -64 rlineto
          44 hlineto
          -52 -22 -59 -40 -68 -98 callsubr
          43 42 34 36 23 hvcurveto
          23 hlineto
          92 -31 callsubr
          -204 hlineto
          endchar
        </CharString>
        <CharString name="uring">
          -49 callsubr
          68 54 63 56 45 callsubr
          50 57 68 58 hintmask 10111111
          -106 callsubr
          hintmask 01111111
          -86 callsubr
          -204 hlineto
          77 141 -91 callgsubr
          endchar
        </CharString>
        <CharString name="utilde">
          -49 callsubr
          96 101 -64 97 45 callsubr
          hintmask 10110100
          -106 callsubr
          hintmask 01101100
          -86 callsubr
          -204 hlineto
          167 210 rmoveto
          hintmask 10110100
          -52 callgsubr
          hintmask 10101100
          -95 callsubr
          hintmask 10110100
          -82 callgsubr
        </CharString>
        <CharString name="v">
          -63 15 callgsubr
          106 hmoveto
          209 hlineto
          227 -31 callsubr
          -106 hlineto
          -146 -294 -41 294 rlineto
          -212 hlineto
          endchar
        </CharString>
        <CharString name="w">
          27 callgsubr
          hstem
          -84 callsubr
          endchar
        </CharString>
        <CharString name="wacute">
          27 callgsubr
          225 -20 hstem
          -84 callsubr
          499 59 -103 callsubr
        </CharString>
        <CharString name="wcircumflex">
          27 callgsubr
          225 -20 hstem
          -84 callsubr
          356 59 -105 callgsubr
        </CharString>
        <CharString name="wdieresis">
          27 callgsubr
          68 153 hstem
          337 29 callgsubr
          -84 callsubr
          385 201 rmoveto
          -105 callsubr
        </CharString>
        <CharString name="wgrave">
          27 callgsubr
          225 -20 hstem
          -84 callsubr
          427 59 -81 callsubr
        </CharString>
        <CharString name="x">
          -68 15 callgsubr
          244 430 rmoveto
          -211 hlineto
          119 -226 -209 -204 rlineto
          115 hlineto
          132 132 70 -132 rlineto
          212 hlineto
          -129 244 181 186 rlineto
          -115 hlineto
          -105 -113 rlineto
          endchar
        </CharString>
        <CharString name="y">
          14 callgsubr
          hstem
          40 430 rmoveto
          49 -354 rlineto
          5 -39 6 -35 -27 vvcurveto
          -40 -13 -19 -30 -8 vhcurveto
          -7 -23 -40 0 -44 hhcurveto
          -15 -69 rlineto
          178 96 0 168 95 hvcurveto
          241 -31 callsubr
          -106 hlineto
          -158 -294 -30 294 rlineto
          endchar
        </CharString>
        <CharString name="yacute">
          14 callgsubr
          225 -20 hstem
          40 430 rmoveto
          49 -354 rlineto
          5 -39 6 -35 -27 vvcurveto
          -40 -13 -19 -30 -8 vhcurveto
          -7 -23 -40 0 -44 hhcurveto
          -15 -69 rlineto
          178 96 0 168 95 hvcurveto
          241 -31 callsubr
          -106 hlineto
          -158 -294 -30 294 rlineto
          130 59 -103 callsubr
        </CharString>
        <CharString name="ycircumflex">
          14 callgsubr
          225 -20 hstem
          40 430 rmoveto
          49 -354 rlineto
          5 -39 6 -35 -27 vvcurveto
          -40 -13 -19 -30 -8 vhcurveto
          -7 -23 -40 0 -44 hhcurveto
          -15 -69 rlineto
          178 96 0 168 95 hvcurveto
          241 -31 callsubr
          -106 hlineto
          -158 -294 -30 294 rlineto
          2 59 -105 callgsubr
        </CharString>
        <CharString name="ydieresis">
          14 callgsubr
          68 153 hstem
          185 29 callgsubr
          40 430 rmoveto
          49 -354 rlineto
          5 -39 6 -35 -27 vvcurveto
          -40 -13 -19 -30 -8 vhcurveto
          -7 -23 -40 0 -44 hhcurveto
          -15 -69 rlineto
          178 96 0 168 95 hvcurveto
          241 -31 callsubr
          -106 hlineto
          -158 -294 -30 294 rlineto
          16 201 rmoveto
          -105 callsubr
        </CharString>
        <CharString name="yen">
          37 0 165 -76 76 75 76 319 -20 hstemhm
          hintmask 10110000
          81 240 rmoveto
          115 hlineto
          -16 -75 rlineto
          -114 hlineto
          hintmask 01110000
          -17 -76 rlineto
          115 hlineto
          hintmask 10110000
          -19 -89 rlineto
          217 hlineto
          hintmask 01110000
          19 89 rlineto
          117 hlineto
          16 76 rlineto
          -117 hlineto
          16 75 rlineto
          118 hlineto
          15 76 rlineto
          -84 hlineto
          206 319 rlineto
          -108 hlineto
          -150 -251 -68 251 rlineto
          -240 hlineto
          82 -319 rlineto
          -86 hlineto
          endchar
        </CharString>
        <CharString name="ygrave">
          14 callgsubr
          225 -20 hstem
          40 430 rmoveto
          49 -354 rlineto
          5 -39 6 -35 -27 vvcurveto
          -40 -13 -19 -30 -8 vhcurveto
          -7 -23 -40 0 -44 hhcurveto
          -15 -69 rlineto
          178 96 0 168 95 hvcurveto
          241 -31 callsubr
          -106 hlineto
          -158 -294 -30 294 rlineto
          58 59 -81 callsubr
        </CharString>
        <CharString name="ytilde">
          14 callgsubr
          96 6 callgsubr
          hintmask 11010000
          40 430 rmoveto
          49 -354 rlineto
          5 -39 6 -35 -27 vvcurveto
          -40 -13 -19 -30 -8 vhcurveto
          -7 -23 -40 0 -44 hhcurveto
          -15 -69 rlineto
          178 96 0 168 95 hvcurveto
          241 -31 callsubr
          -106 hlineto
          -158 -294 -30 294 rlineto
          258 210 -84 callgsubr
        </CharString>
        <CharString name="z">
          -101 0 67 296 67 hstem
          -33 -85 callgsubr
          endchar
        </CharString>
        <CharString name="zacute">
          -101 0 67 296 67 205 -20 hstem
          -33 -85 callgsubr
          333 411 -103 callsubr
        </CharString>
        <CharString name="zcaron">
          -101 0 67 296 67 205 -20 hstem
          -33 -85 callgsubr
          451 557 -102 callsubr
        </CharString>
        <CharString name="zdotaccent">
          -101 0 67 296 67 38 171 hstem
          206 205 vstem
          -33 -85 callgsubr
          429 483 -96 callgsubr
        </CharString>
        <CharString name="zdotbelow">
          -101 -33 callgsubr
          81 67 296 67 hstem
          84 167 vstem
          -33 -85 callgsubr
          269 -222 -100 callsubr
        </CharString>
        <CharString name="zero">
          89 4 callsubr
          hstem
          42 213 182 216 vstem
          404 645 rmoveto
          -88 -68 -21 -40 -55 hvcurveto
          -95 -67 -56 -130 -142 vvcurveto
          -78 15 -60 32 -39 vhcurveto
          -53 38 64 -23 106 hhcurveto
          110 75 25 66 59 hvcurveto
          67 73 45 126 113 vvcurveto
          66 -16 53 -26 41 vhcurveto
          61 -38 -65 29 -104 hhcurveto
          -109 -583 rmoveto
          -24 -16 24 75 148 64 267 83 23 12 -22 -68 -150 -60 -274 -82 hvcurveto
          endchar
        </CharString>
        <CharString name="zeroinferior">
          -270 -8 44 176 45 hstem
          -12 103 73 102 vstem
          151 257 rmoveto
          -106 -57 -60 -100 -77 34 -28 78 113 53 59 93 85 -43 28 -72 hvcurveto
          -43 -221 rmoveto
          -11 -6 11 25 51 25 89 33 10 5 -9 -23 -52 -25 -92 -31 hvcurveto
          endchar
        </CharString>
        <CharString name="zerosuperior">
          -270 380 44 177 44 hstem
          69 103 73 102 vstem
          232 645 -88 callgsubr
          endchar
        </CharString>
      <CharString index="0">
        411 645 rmoveto
        -95 -71 -20 -41 -58 hvcurveto
        -97 -68 -55 -122 -147 vvcurveto
        -86 18 -56 29 -37 vhcurveto
        -53 41 68 -23 115 25 callgsubr
        67 -15 52 -27 41 vhcurveto
        61 -41 -69 29 -114 hhcurveto
        -113 -583 rmoveto
        -27 -18 24 76 151 70 263 93 27 14 -22 -69 -153 -68 -270 -91 hvcurveto
        return
      </CharString>
      <CharString index="1">
        355 -58 callsubr
        -227 hlineto
        -61 -284 rlineto
        -18 -84 -14 -76 -46 vvcurveto
        -103 72 -50 153 222 65 106 127 27 vhcurveto
        87 410 rlineto
        -91 hlineto
        -85 -408 rlineto
        -76 -16 -23 -69 -93 hhcurveto
        -63 -34 31 46 18 5 21 6 29 hvcurveto
        return
      </CharString>
      <CharString index="2">
        rmoveto
        133 93 83 -93 0 callsubr
        -83 146 rlineto
        -2 callsubr
        -146 -46 callgsubr
      </CharString>
      <CharString index="3">
        rmoveto
        75 66 36 91 50 hvcurveto
        -38 34 rlineto
        -47 -35 -54 -32 -56 hhcurveto
        -32 -48 11 53 -16 hvcurveto
        -51 -21 rlineto
        -87 13 48 -38 78 hhcurveto
        endchar
      </CharString>
      <CharString index="4">
        -54 -16 -43 -32 -23 hhcurveto
        -31 -3 38 25 21 -95 callgsubr
        return
      </CharString>
      <CharString index="5">
        262 366 rmoveto
        -18 64 rlineto
        -163 hlineto
        -91 -430 -79 callgsubr
        66 311 rlineto
        12 -65 callsubr
        68 35 vvcurveto
        return
      </CharString>
      <CharString index="6">
        0 vmoveto
        421 hlineto
        15 77 rlineto
        -204 hlineto
        46 214 rlineto
        171 hlineto
        16 75 rlineto
        -171 hlineto
        42 193 -79 callgsubr
        16 76 46 callgsubr
        return
      </CharString>
      <CharString index="7">
        38 7 20 32 46 hhcurveto
        40 9 -25 -24 -18 -6 -30 -2 -13 hvcurveto
        -158 -168 -13 -139 -85 64 -35 64 55 62 26 46 42 hvcurveto
        6 hlineto
        return
      </CharString>
      <CharString index="8">
        -15 callsubr
        hintmask 10110111
        -44 callgsubr
        hintmask 10101111
        -100 callgsubr
        hintmask 01110111
        -96 callsubr
        hintmask 10110111
        -82 callsubr
        return
      </CharString>
      <CharString index="9">
        6 0 7 1 6 vhcurveto
        -135 hlineto
        -21 -100 rlineto
        -14 28 72 -21 108 hhcurveto
        142 112 35 113 80 -58 27 -63 15 hvcurveto
        -46 12 -51 5 42 vvcurveto
        32 29 21 22 25 7 -25 -24 return
      </CharString>
      <CharString index="10">
        rmoveto
        44 -34 19 -42 -48 -43 -25 -48 -45 34 -19 43 46 44 26 48 vhcurveto
        return
      </CharString>
      <CharString index="11">
        -101 callsubr
        endchar
      </CharString>
      <CharString index="12">
        2 28 5 29 hvcurveto
        133 119 -94 callgsubr
        return
      </CharString>
      <CharString index="13">
        rmoveto
        -30 -9 -43 0 vhcurveto
        -114 hlineto
        66 17 30 60 42 hhcurveto
        18 16 -12 -41 hvcurveto
        return
      </CharString>
      <CharString index="14">
        27 -18 13 -17 -17 vvcurveto
        -21 -19 -21 -33 -25 vhcurveto
        21 -30 rlineto
        63 27 74 60 70 vvcurveto
        endchar
      </CharString>
      <CharString index="15">
        -23 callgsubr
        hintmask 10011100
        396 430 rmoveto
        -34 -65 rlineto
        -8 hlineto
        hintmask 10101100
        -89 callgsubr
        hintmask 01011100
        -86 callsubr
        hintmask 10101100
        -97 callsubr
        return
      </CharString>
      <CharString index="16">
        rmoveto
        47 -36 33 -48 -52 -47 -39 -53 -49 36 -32 48 51 48 39 54 vhcurveto
        -58 -4 rmoveto
        -20 -18 -15 -19 -17 -14 13 17 20 18 13 19 17 14 -11 -17 vhcurveto
        return
      </CharString>
      <CharString index="17">
        670 -58 callsubr
        -92 hlineto
        -99 -465 -105 465 rlineto
        -239 -80 callsubr
        90 hlineto
        98 459 111 -459 51 callsubr
        return
      </CharString>
      <CharString index="18">
        64 -19 -61 12 -48 hhcurveto
        -203 -16 -257 -54 -80 35 -58 93 90 49 47 25 16 hvcurveto
        8 hlineto
        return
      </CharString>
      <CharString index="19">
        rmoveto
        -106 -57 -60 -100 -77 34 -28 78 113 53 59 93 85 -43 28 -72 hvcurveto
        -43 -221 rmoveto
        -11 -6 11 25 51 25 90 33 10 5 -10 -23 -51 -25 -93 -31 hvcurveto
        return
      </CharString>
      <CharString index="20">
        -58 -8 68 -68 173 90 186 -68 68 194 -20 41 callgsubr
        0 140 hintmask 01101100
        -28 callgsubr
        hintmask 10011010
        -74 callsubr
        hintmask 10101100
        -52 callsubr
        49 -41 -65 9 -86 -14 callgsubr
        -139 101 -53 138 78 60 10 22 56 hvcurveto
        hintmask 01101100
        return
      </CharString>
      <CharString index="21">
        120 hmoveto
        240 hlineto
        150 359 21 -359 rlineto
        225 hlineto
        247 635 rlineto
        -105 hlineto
        -168 -433 -26 433 rlineto
        -198 hlineto
        -167 -433 -17 433 rlineto
        -244 hlineto
        return
      </CharString>
      <CharString index="22">
        hmoveto
        446 hlineto
        12 67 rlineto
        -221 hlineto
        260 291 16 72 46 callgsubr
        -13 -67 -5 callgsubr
        -267 -285 rlineto
        return
      </CharString>
      <CharString index="23">
        rmoveto
        hintmask 11100000
        -52 callgsubr
        hintmask 11010000
        -95 callsubr
        hintmask 11100000
        -82 callgsubr
      </CharString>
      <CharString index="24">
        rmoveto
        -1 24 -35 0 hvcurveto
        77 31 85 68 89 vvcurveto
        51 -35 24 -44 -47 -44 -32 -53 -34 22 -25 32 -8 vhcurveto
        -20 -39 -28 -21 -21 -16 rrcurveto
        endchar
      </CharString>
      <CharString index="25">
        37 92 -37 48 hhcurveto
        59 36 36 73 40 hvcurveto
        endchar
      </CharString>
      <CharString index="26">
        -8 callgsubr
        53 -41 25 -52 -59 -53 -32 -60 -54 41 -25 53 57 54 33 60 vhcurveto
        endchar
      </CharString>
</ttFont>
